ISO-10303-21;
HEADER;
/* Generated by software containing ST-Developer
 * from STEP Tools, Inc. (www.steptools.com) 
 */

FILE_DESCRIPTION(
/* description */ (''),
/* implementation_level */ '2;1');

FILE_NAME(
/* name */ '3.5 TFI SPI 480X320 V1 v3.step',
/* time_stamp */ '2023-06-05T20:35:12-04:00',
/* author */ (''),
/* organization */ (''),
/* preprocessor_version */ 'ST-DEVELOPER v19.2',
/* originating_system */ 'Autodesk Translation Framework v12.6.0.85',
/* authorisation */ '');

FILE_SCHEMA (('AUTOMOTIVE_DESIGN { 1 0 10303 214 3 1 1 }'));
ENDSEC;

DATA;
#10=MECHANICAL_DESIGN_GEOMETRIC_PRESENTATION_REPRESENTATION('',(#13),#2091);
#11=SHAPE_REPRESENTATION_RELATIONSHIP('SRR','None',#2098,#12);
#12=ADVANCED_BREP_SHAPE_REPRESENTATION('',(#14),#2090);
#13=STYLED_ITEM('',(#2107),#14);
#14=MANIFOLD_SOLID_BREP('3.5 480 * 320 Display',#1211);
#15=CYLINDRICAL_SURFACE('',#1256,0.0499999999999998);
#16=CYLINDRICAL_SURFACE('',#1258,0.0499999999999998);
#17=CYLINDRICAL_SURFACE('',#1263,0.0499999999999998);
#18=CYLINDRICAL_SURFACE('',#1265,0.0499999999999998);
#19=CYLINDRICAL_SURFACE('',#1270,0.0499999999999998);
#20=CYLINDRICAL_SURFACE('',#1272,0.0499999999999998);
#21=CYLINDRICAL_SURFACE('',#1277,0.0499999999999998);
#22=CYLINDRICAL_SURFACE('',#1279,0.0499999999999998);
#23=CYLINDRICAL_SURFACE('',#1284,0.0499999999999998);
#24=CYLINDRICAL_SURFACE('',#1286,0.0499999999999998);
#25=CYLINDRICAL_SURFACE('',#1291,0.0499999999999998);
#26=CYLINDRICAL_SURFACE('',#1293,0.0499999999999998);
#27=CYLINDRICAL_SURFACE('',#1298,0.0499999999999998);
#28=CYLINDRICAL_SURFACE('',#1300,0.0499999999999998);
#29=CYLINDRICAL_SURFACE('',#1305,0.0499999999999998);
#30=CYLINDRICAL_SURFACE('',#1307,0.0499999999999998);
#31=CYLINDRICAL_SURFACE('',#1312,0.0499999999999998);
#32=CYLINDRICAL_SURFACE('',#1314,0.0499999999999998);
#33=CYLINDRICAL_SURFACE('',#1319,0.0499999999999998);
#34=CYLINDRICAL_SURFACE('',#1321,0.0499999999999998);
#35=CYLINDRICAL_SURFACE('',#1326,0.0499999999999998);
#36=CYLINDRICAL_SURFACE('',#1328,0.0499999999999998);
#37=CYLINDRICAL_SURFACE('',#1333,0.0499999999999998);
#38=CYLINDRICAL_SURFACE('',#1335,0.0499999999999998);
#39=CYLINDRICAL_SURFACE('',#1340,0.0499999999999998);
#40=CYLINDRICAL_SURFACE('',#1342,0.0499999999999998);
#41=CYLINDRICAL_SURFACE('',#1347,0.0499999999999998);
#42=CYLINDRICAL_SURFACE('',#1349,0.0499999999999998);
#43=CYLINDRICAL_SURFACE('',#1354,0.15);
#44=CYLINDRICAL_SURFACE('',#1357,0.15);
#45=CYLINDRICAL_SURFACE('',#1360,0.15);
#46=CYLINDRICAL_SURFACE('',#1363,0.15);
#47=FACE_BOUND('',#246,.T.);
#48=FACE_BOUND('',#247,.T.);
#49=FACE_BOUND('',#248,.T.);
#50=FACE_BOUND('',#249,.T.);
#51=FACE_BOUND('',#250,.T.);
#52=FACE_BOUND('',#251,.T.);
#53=FACE_BOUND('',#252,.T.);
#54=FACE_BOUND('',#253,.T.);
#55=FACE_BOUND('',#254,.T.);
#56=FACE_BOUND('',#255,.T.);
#57=FACE_BOUND('',#256,.T.);
#58=FACE_BOUND('',#257,.T.);
#59=FACE_BOUND('',#258,.T.);
#60=FACE_BOUND('',#259,.T.);
#61=FACE_BOUND('',#329,.T.);
#62=FACE_BOUND('',#330,.T.);
#63=FACE_BOUND('',#331,.T.);
#64=FACE_BOUND('',#332,.T.);
#65=FACE_BOUND('',#333,.T.);
#66=FACE_BOUND('',#334,.T.);
#67=FACE_BOUND('',#335,.T.);
#68=FACE_BOUND('',#336,.T.);
#69=FACE_BOUND('',#337,.T.);
#70=FACE_BOUND('',#338,.T.);
#71=FACE_BOUND('',#339,.T.);
#72=FACE_BOUND('',#340,.T.);
#73=FACE_BOUND('',#341,.T.);
#74=FACE_BOUND('',#342,.T.);
#75=FACE_BOUND('',#343,.T.);
#76=FACE_BOUND('',#344,.T.);
#77=FACE_BOUND('',#345,.T.);
#78=FACE_BOUND('',#346,.T.);
#79=FACE_BOUND('',#347,.T.);
#80=FACE_BOUND('',#349,.T.);
#81=FACE_BOUND('',#350,.T.);
#82=FACE_BOUND('',#351,.T.);
#83=FACE_BOUND('',#352,.T.);
#84=FACE_BOUND('',#353,.T.);
#85=FACE_BOUND('',#354,.T.);
#86=CIRCLE('',#1238,0.0499999999999998);
#87=CIRCLE('',#1239,0.0499999999999998);
#88=CIRCLE('',#1240,0.0499999999999998);
#89=CIRCLE('',#1241,0.0499999999999998);
#90=CIRCLE('',#1242,0.0499999999999998);
#91=CIRCLE('',#1243,0.0499999999999998);
#92=CIRCLE('',#1244,0.0499999999999998);
#93=CIRCLE('',#1245,0.0499999999999998);
#94=CIRCLE('',#1246,0.0499999999999998);
#95=CIRCLE('',#1247,0.0499999999999998);
#96=CIRCLE('',#1248,0.0499999999999998);
#97=CIRCLE('',#1249,0.0499999999999998);
#98=CIRCLE('',#1250,0.0499999999999998);
#99=CIRCLE('',#1251,0.0499999999999998);
#100=CIRCLE('',#1257,0.0499999999999998);
#101=CIRCLE('',#1259,0.0499999999999998);
#102=CIRCLE('',#1260,0.0499999999999998);
#103=CIRCLE('',#1264,0.0499999999999998);
#104=CIRCLE('',#1266,0.0499999999999998);
#105=CIRCLE('',#1267,0.0499999999999998);
#106=CIRCLE('',#1271,0.0499999999999998);
#107=CIRCLE('',#1273,0.0499999999999998);
#108=CIRCLE('',#1274,0.0499999999999998);
#109=CIRCLE('',#1278,0.0499999999999998);
#110=CIRCLE('',#1280,0.0499999999999998);
#111=CIRCLE('',#1281,0.0499999999999998);
#112=CIRCLE('',#1285,0.0499999999999998);
#113=CIRCLE('',#1287,0.0499999999999998);
#114=CIRCLE('',#1288,0.0499999999999998);
#115=CIRCLE('',#1292,0.0499999999999998);
#116=CIRCLE('',#1294,0.0499999999999998);
#117=CIRCLE('',#1295,0.0499999999999998);
#118=CIRCLE('',#1299,0.0499999999999998);
#119=CIRCLE('',#1301,0.0499999999999998);
#120=CIRCLE('',#1302,0.0499999999999998);
#121=CIRCLE('',#1306,0.0499999999999998);
#122=CIRCLE('',#1308,0.0499999999999998);
#123=CIRCLE('',#1309,0.0499999999999998);
#124=CIRCLE('',#1313,0.0499999999999998);
#125=CIRCLE('',#1315,0.0499999999999998);
#126=CIRCLE('',#1316,0.0499999999999998);
#127=CIRCLE('',#1320,0.0499999999999998);
#128=CIRCLE('',#1322,0.0499999999999998);
#129=CIRCLE('',#1323,0.0499999999999998);
#130=CIRCLE('',#1327,0.0499999999999998);
#131=CIRCLE('',#1329,0.0499999999999998);
#132=CIRCLE('',#1330,0.0499999999999998);
#133=CIRCLE('',#1334,0.0499999999999998);
#134=CIRCLE('',#1336,0.0499999999999998);
#135=CIRCLE('',#1337,0.0499999999999998);
#136=CIRCLE('',#1341,0.0499999999999998);
#137=CIRCLE('',#1343,0.0499999999999998);
#138=CIRCLE('',#1344,0.0499999999999998);
#139=CIRCLE('',#1348,0.0499999999999998);
#140=CIRCLE('',#1350,0.0499999999999998);
#141=CIRCLE('',#1351,0.0499999999999998);
#142=CIRCLE('',#1355,0.15);
#143=CIRCLE('',#1356,0.15);
#144=CIRCLE('',#1358,0.15);
#145=CIRCLE('',#1359,0.15);
#146=CIRCLE('',#1361,0.15);
#147=CIRCLE('',#1362,0.15);
#148=CIRCLE('',#1364,0.15);
#149=CIRCLE('',#1365,0.15);
#150=FACE_OUTER_BOUND('',#233,.T.);
#151=FACE_OUTER_BOUND('',#234,.T.);
#152=FACE_OUTER_BOUND('',#235,.T.);
#153=FACE_OUTER_BOUND('',#236,.T.);
#154=FACE_OUTER_BOUND('',#237,.T.);
#155=FACE_OUTER_BOUND('',#238,.T.);
#156=FACE_OUTER_BOUND('',#239,.T.);
#157=FACE_OUTER_BOUND('',#240,.T.);
#158=FACE_OUTER_BOUND('',#241,.T.);
#159=FACE_OUTER_BOUND('',#242,.T.);
#160=FACE_OUTER_BOUND('',#243,.T.);
#161=FACE_OUTER_BOUND('',#244,.T.);
#162=FACE_OUTER_BOUND('',#245,.T.);
#163=FACE_OUTER_BOUND('',#260,.T.);
#164=FACE_OUTER_BOUND('',#261,.T.);
#165=FACE_OUTER_BOUND('',#262,.T.);
#166=FACE_OUTER_BOUND('',#263,.T.);
#167=FACE_OUTER_BOUND('',#264,.T.);
#168=FACE_OUTER_BOUND('',#265,.T.);
#169=FACE_OUTER_BOUND('',#266,.T.);
#170=FACE_OUTER_BOUND('',#267,.T.);
#171=FACE_OUTER_BOUND('',#268,.T.);
#172=FACE_OUTER_BOUND('',#269,.T.);
#173=FACE_OUTER_BOUND('',#270,.T.);
#174=FACE_OUTER_BOUND('',#271,.T.);
#175=FACE_OUTER_BOUND('',#272,.T.);
#176=FACE_OUTER_BOUND('',#273,.T.);
#177=FACE_OUTER_BOUND('',#274,.T.);
#178=FACE_OUTER_BOUND('',#275,.T.);
#179=FACE_OUTER_BOUND('',#276,.T.);
#180=FACE_OUTER_BOUND('',#277,.T.);
#181=FACE_OUTER_BOUND('',#278,.T.);
#182=FACE_OUTER_BOUND('',#279,.T.);
#183=FACE_OUTER_BOUND('',#280,.T.);
#184=FACE_OUTER_BOUND('',#281,.T.);
#185=FACE_OUTER_BOUND('',#282,.T.);
#186=FACE_OUTER_BOUND('',#283,.T.);
#187=FACE_OUTER_BOUND('',#284,.T.);
#188=FACE_OUTER_BOUND('',#285,.T.);
#189=FACE_OUTER_BOUND('',#286,.T.);
#190=FACE_OUTER_BOUND('',#287,.T.);
#191=FACE_OUTER_BOUND('',#288,.T.);
#192=FACE_OUTER_BOUND('',#289,.T.);
#193=FACE_OUTER_BOUND('',#290,.T.);
#194=FACE_OUTER_BOUND('',#291,.T.);
#195=FACE_OUTER_BOUND('',#292,.T.);
#196=FACE_OUTER_BOUND('',#293,.T.);
#197=FACE_OUTER_BOUND('',#294,.T.);
#198=FACE_OUTER_BOUND('',#295,.T.);
#199=FACE_OUTER_BOUND('',#296,.T.);
#200=FACE_OUTER_BOUND('',#297,.T.);
#201=FACE_OUTER_BOUND('',#298,.T.);
#202=FACE_OUTER_BOUND('',#299,.T.);
#203=FACE_OUTER_BOUND('',#300,.T.);
#204=FACE_OUTER_BOUND('',#301,.T.);
#205=FACE_OUTER_BOUND('',#302,.T.);
#206=FACE_OUTER_BOUND('',#303,.T.);
#207=FACE_OUTER_BOUND('',#304,.T.);
#208=FACE_OUTER_BOUND('',#305,.T.);
#209=FACE_OUTER_BOUND('',#306,.T.);
#210=FACE_OUTER_BOUND('',#307,.T.);
#211=FACE_OUTER_BOUND('',#308,.T.);
#212=FACE_OUTER_BOUND('',#309,.T.);
#213=FACE_OUTER_BOUND('',#310,.T.);
#214=FACE_OUTER_BOUND('',#311,.T.);
#215=FACE_OUTER_BOUND('',#312,.T.);
#216=FACE_OUTER_BOUND('',#313,.T.);
#217=FACE_OUTER_BOUND('',#314,.T.);
#218=FACE_OUTER_BOUND('',#315,.T.);
#219=FACE_OUTER_BOUND('',#316,.T.);
#220=FACE_OUTER_BOUND('',#317,.T.);
#221=FACE_OUTER_BOUND('',#318,.T.);
#222=FACE_OUTER_BOUND('',#319,.T.);
#223=FACE_OUTER_BOUND('',#320,.T.);
#224=FACE_OUTER_BOUND('',#321,.T.);
#225=FACE_OUTER_BOUND('',#322,.T.);
#226=FACE_OUTER_BOUND('',#323,.T.);
#227=FACE_OUTER_BOUND('',#324,.T.);
#228=FACE_OUTER_BOUND('',#325,.T.);
#229=FACE_OUTER_BOUND('',#326,.T.);
#230=FACE_OUTER_BOUND('',#327,.T.);
#231=FACE_OUTER_BOUND('',#328,.T.);
#232=FACE_OUTER_BOUND('',#348,.T.);
#233=EDGE_LOOP('',(#777,#778,#779,#780));
#234=EDGE_LOOP('',(#781,#782,#783,#784));
#235=EDGE_LOOP('',(#785,#786,#787,#788));
#236=EDGE_LOOP('',(#789,#790,#791,#792));
#237=EDGE_LOOP('',(#793,#794,#795,#796));
#238=EDGE_LOOP('',(#797,#798,#799,#800));
#239=EDGE_LOOP('',(#801,#802,#803,#804,#805,#806));
#240=EDGE_LOOP('',(#807,#808,#809,#810));
#241=EDGE_LOOP('',(#811,#812,#813,#814));
#242=EDGE_LOOP('',(#815,#816,#817,#818));
#243=EDGE_LOOP('',(#819,#820,#821,#822));
#244=EDGE_LOOP('',(#823,#824,#825,#826));
#245=EDGE_LOOP('',(#827,#828,#829,#830));
#246=EDGE_LOOP('',(#831));
#247=EDGE_LOOP('',(#832));
#248=EDGE_LOOP('',(#833));
#249=EDGE_LOOP('',(#834));
#250=EDGE_LOOP('',(#835));
#251=EDGE_LOOP('',(#836));
#252=EDGE_LOOP('',(#837));
#253=EDGE_LOOP('',(#838));
#254=EDGE_LOOP('',(#839));
#255=EDGE_LOOP('',(#840));
#256=EDGE_LOOP('',(#841));
#257=EDGE_LOOP('',(#842));
#258=EDGE_LOOP('',(#843));
#259=EDGE_LOOP('',(#844));
#260=EDGE_LOOP('',(#845,#846,#847,#848));
#261=EDGE_LOOP('',(#849,#850,#851,#852));
#262=EDGE_LOOP('',(#853,#854,#855,#856));
#263=EDGE_LOOP('',(#857,#858,#859,#860));
#264=EDGE_LOOP('',(#861,#862,#863,#864));
#265=EDGE_LOOP('',(#865,#866,#867,#868));
#266=EDGE_LOOP('',(#869));
#267=EDGE_LOOP('',(#870));
#268=EDGE_LOOP('',(#871,#872,#873,#874));
#269=EDGE_LOOP('',(#875,#876,#877,#878));
#270=EDGE_LOOP('',(#879));
#271=EDGE_LOOP('',(#880));
#272=EDGE_LOOP('',(#881,#882,#883,#884));
#273=EDGE_LOOP('',(#885,#886,#887,#888));
#274=EDGE_LOOP('',(#889));
#275=EDGE_LOOP('',(#890));
#276=EDGE_LOOP('',(#891,#892,#893,#894));
#277=EDGE_LOOP('',(#895,#896,#897,#898));
#278=EDGE_LOOP('',(#899));
#279=EDGE_LOOP('',(#900));
#280=EDGE_LOOP('',(#901,#902,#903,#904));
#281=EDGE_LOOP('',(#905,#906,#907,#908));
#282=EDGE_LOOP('',(#909));
#283=EDGE_LOOP('',(#910));
#284=EDGE_LOOP('',(#911,#912,#913,#914));
#285=EDGE_LOOP('',(#915,#916,#917,#918));
#286=EDGE_LOOP('',(#919));
#287=EDGE_LOOP('',(#920));
#288=EDGE_LOOP('',(#921,#922,#923,#924));
#289=EDGE_LOOP('',(#925,#926,#927,#928));
#290=EDGE_LOOP('',(#929));
#291=EDGE_LOOP('',(#930));
#292=EDGE_LOOP('',(#931,#932,#933,#934));
#293=EDGE_LOOP('',(#935,#936,#937,#938));
#294=EDGE_LOOP('',(#939));
#295=EDGE_LOOP('',(#940));
#296=EDGE_LOOP('',(#941,#942,#943,#944));
#297=EDGE_LOOP('',(#945,#946,#947,#948));
#298=EDGE_LOOP('',(#949));
#299=EDGE_LOOP('',(#950));
#300=EDGE_LOOP('',(#951,#952,#953,#954));
#301=EDGE_LOOP('',(#955,#956,#957,#958));
#302=EDGE_LOOP('',(#959));
#303=EDGE_LOOP('',(#960));
#304=EDGE_LOOP('',(#961,#962,#963,#964));
#305=EDGE_LOOP('',(#965,#966,#967,#968));
#306=EDGE_LOOP('',(#969));
#307=EDGE_LOOP('',(#970));
#308=EDGE_LOOP('',(#971,#972,#973,#974));
#309=EDGE_LOOP('',(#975,#976,#977,#978));
#310=EDGE_LOOP('',(#979));
#311=EDGE_LOOP('',(#980));
#312=EDGE_LOOP('',(#981,#982,#983,#984));
#313=EDGE_LOOP('',(#985,#986,#987,#988));
#314=EDGE_LOOP('',(#989));
#315=EDGE_LOOP('',(#990));
#316=EDGE_LOOP('',(#991,#992,#993,#994));
#317=EDGE_LOOP('',(#995,#996,#997,#998));
#318=EDGE_LOOP('',(#999));
#319=EDGE_LOOP('',(#1000));
#320=EDGE_LOOP('',(#1001,#1002,#1003,#1004));
#321=EDGE_LOOP('',(#1005,#1006,#1007,#1008));
#322=EDGE_LOOP('',(#1009,#1010,#1011,#1012));
#323=EDGE_LOOP('',(#1013,#1014,#1015,#1016));
#324=EDGE_LOOP('',(#1017,#1018,#1019,#1020));
#325=EDGE_LOOP('',(#1021,#1022,#1023,#1024));
#326=EDGE_LOOP('',(#1025,#1026,#1027,#1028));
#327=EDGE_LOOP('',(#1029,#1030,#1031,#1032));
#328=EDGE_LOOP('',(#1033,#1034,#1035,#1036));
#329=EDGE_LOOP('',(#1037,#1038,#1039,#1040));
#330=EDGE_LOOP('',(#1041));
#331=EDGE_LOOP('',(#1042));
#332=EDGE_LOOP('',(#1043));
#333=EDGE_LOOP('',(#1044));
#334=EDGE_LOOP('',(#1045));
#335=EDGE_LOOP('',(#1046));
#336=EDGE_LOOP('',(#1047));
#337=EDGE_LOOP('',(#1048));
#338=EDGE_LOOP('',(#1049));
#339=EDGE_LOOP('',(#1050));
#340=EDGE_LOOP('',(#1051));
#341=EDGE_LOOP('',(#1052));
#342=EDGE_LOOP('',(#1053));
#343=EDGE_LOOP('',(#1054));
#344=EDGE_LOOP('',(#1055));
#345=EDGE_LOOP('',(#1056));
#346=EDGE_LOOP('',(#1057));
#347=EDGE_LOOP('',(#1058));
#348=EDGE_LOOP('',(#1059,#1060,#1061,#1062));
#349=EDGE_LOOP('',(#1063,#1064,#1065,#1066,#1067,#1068));
#350=EDGE_LOOP('',(#1069,#1070,#1071,#1072));
#351=EDGE_LOOP('',(#1073));
#352=EDGE_LOOP('',(#1074));
#353=EDGE_LOOP('',(#1075));
#354=EDGE_LOOP('',(#1076));
#355=LINE('',#1758,#441);
#356=LINE('',#1760,#442);
#357=LINE('',#1762,#443);
#358=LINE('',#1763,#444);
#359=LINE('',#1766,#445);
#360=LINE('',#1768,#446);
#361=LINE('',#1769,#447);
#362=LINE('',#1772,#448);
#363=LINE('',#1774,#449);
#364=LINE('',#1775,#450);
#365=LINE('',#1778,#451);
#366=LINE('',#1780,#452);
#367=LINE('',#1781,#453);
#368=LINE('',#1784,#454);
#369=LINE('',#1786,#455);
#370=LINE('',#1787,#456);
#371=LINE('',#1789,#457);
#372=LINE('',#1790,#458);
#373=LINE('',#1795,#459);
#374=LINE('',#1797,#460);
#375=LINE('',#1799,#461);
#376=LINE('',#1800,#462);
#377=LINE('',#1803,#463);
#378=LINE('',#1805,#464);
#379=LINE('',#1806,#465);
#380=LINE('',#1809,#466);
#381=LINE('',#1811,#467);
#382=LINE('',#1812,#468);
#383=LINE('',#1814,#469);
#384=LINE('',#1815,#470);
#385=LINE('',#1820,#471);
#386=LINE('',#1822,#472);
#387=LINE('',#1824,#473);
#388=LINE('',#1825,#474);
#389=LINE('',#1857,#475);
#390=LINE('',#1858,#476);
#391=LINE('',#1859,#477);
#392=LINE('',#1862,#478);
#393=LINE('',#1863,#479);
#394=LINE('',#1866,#480);
#395=LINE('',#1867,#481);
#396=LINE('',#1869,#482);
#397=LINE('',#1872,#483);
#398=LINE('',#1878,#484);
#399=LINE('',#1884,#485);
#400=LINE('',#1890,#486);
#401=LINE('',#1896,#487);
#402=LINE('',#1902,#488);
#403=LINE('',#1908,#489);
#404=LINE('',#1914,#490);
#405=LINE('',#1920,#491);
#406=LINE('',#1926,#492);
#407=LINE('',#1932,#493);
#408=LINE('',#1938,#494);
#409=LINE('',#1944,#495);
#410=LINE('',#1950,#496);
#411=LINE('',#1956,#497);
#412=LINE('',#1962,#498);
#413=LINE('',#1968,#499);
#414=LINE('',#1974,#500);
#415=LINE('',#1980,#501);
#416=LINE('',#1986,#502);
#417=LINE('',#1992,#503);
#418=LINE('',#1998,#504);
#419=LINE('',#2004,#505);
#420=LINE('',#2010,#506);
#421=LINE('',#2016,#507);
#422=LINE('',#2022,#508);
#423=LINE('',#2028,#509);
#424=LINE('',#2034,#510);
#425=LINE('',#2042,#511);
#426=LINE('',#2048,#512);
#427=LINE('',#2054,#513);
#428=LINE('',#2060,#514);
#429=LINE('',#2065,#515);
#430=LINE('',#2067,#516);
#431=LINE('',#2069,#517);
#432=LINE('',#2070,#518);
#433=LINE('',#2073,#519);
#434=LINE('',#2075,#520);
#435=LINE('',#2076,#521);
#436=LINE('',#2079,#522);
#437=LINE('',#2081,#523);
#438=LINE('',#2082,#524);
#439=LINE('',#2084,#525);
#440=LINE('',#2085,#526);
#441=VECTOR('',#1376,1.);
#442=VECTOR('',#1377,1.);
#443=VECTOR('',#1378,1.);
#444=VECTOR('',#1379,1.);
#445=VECTOR('',#1382,1.);
#446=VECTOR('',#1383,1.);
#447=VECTOR('',#1384,1.);
#448=VECTOR('',#1387,1.);
#449=VECTOR('',#1388,1.);
#450=VECTOR('',#1389,1.);
#451=VECTOR('',#1392,1.);
#452=VECTOR('',#1393,1.);
#453=VECTOR('',#1394,1.);
#454=VECTOR('',#1397,1.);
#455=VECTOR('',#1398,1.);
#456=VECTOR('',#1399,1.);
#457=VECTOR('',#1402,1.);
#458=VECTOR('',#1403,1.);
#459=VECTOR('',#1408,1.);
#460=VECTOR('',#1409,1.);
#461=VECTOR('',#1410,1.);
#462=VECTOR('',#1411,1.);
#463=VECTOR('',#1414,1.);
#464=VECTOR('',#1415,1.);
#465=VECTOR('',#1416,1.);
#466=VECTOR('',#1419,1.);
#467=VECTOR('',#1420,1.);
#468=VECTOR('',#1421,1.);
#469=VECTOR('',#1424,1.);
#470=VECTOR('',#1425,1.);
#471=VECTOR('',#1430,1.);
#472=VECTOR('',#1431,1.);
#473=VECTOR('',#1432,1.);
#474=VECTOR('',#1433,1.);
#475=VECTOR('',#1464,1.);
#476=VECTOR('',#1465,1.);
#477=VECTOR('',#1466,1.);
#478=VECTOR('',#1469,1.);
#479=VECTOR('',#1470,1.);
#480=VECTOR('',#1473,1.);
#481=VECTOR('',#1474,1.);
#482=VECTOR('',#1477,1.);
#483=VECTOR('',#1480,0.0499999999999998);
#484=VECTOR('',#1487,0.0499999999999998);
#485=VECTOR('',#1496,0.0499999999999998);
#486=VECTOR('',#1503,0.0499999999999998);
#487=VECTOR('',#1512,0.0499999999999998);
#488=VECTOR('',#1519,0.0499999999999998);
#489=VECTOR('',#1528,0.0499999999999998);
#490=VECTOR('',#1535,0.0499999999999998);
#491=VECTOR('',#1544,0.0499999999999998);
#492=VECTOR('',#1551,0.0499999999999998);
#493=VECTOR('',#1560,0.0499999999999998);
#494=VECTOR('',#1567,0.0499999999999998);
#495=VECTOR('',#1576,0.0499999999999998);
#496=VECTOR('',#1583,0.0499999999999998);
#497=VECTOR('',#1592,0.0499999999999998);
#498=VECTOR('',#1599,0.0499999999999998);
#499=VECTOR('',#1608,0.0499999999999998);
#500=VECTOR('',#1615,0.0499999999999998);
#501=VECTOR('',#1624,0.0499999999999998);
#502=VECTOR('',#1631,0.0499999999999998);
#503=VECTOR('',#1640,0.0499999999999998);
#504=VECTOR('',#1647,0.0499999999999998);
#505=VECTOR('',#1656,0.0499999999999998);
#506=VECTOR('',#1663,0.0499999999999998);
#507=VECTOR('',#1672,0.0499999999999998);
#508=VECTOR('',#1679,0.0499999999999998);
#509=VECTOR('',#1688,0.0499999999999998);
#510=VECTOR('',#1695,0.0499999999999998);
#511=VECTOR('',#1706,0.15);
#512=VECTOR('',#1713,0.15);
#513=VECTOR('',#1720,0.15);
#514=VECTOR('',#1727,0.15);
#515=VECTOR('',#1732,1.);
#516=VECTOR('',#1733,1.);
#517=VECTOR('',#1734,1.);
#518=VECTOR('',#1735,1.);
#519=VECTOR('',#1738,1.);
#520=VECTOR('',#1739,1.);
#521=VECTOR('',#1740,1.);
#522=VECTOR('',#1743,1.);
#523=VECTOR('',#1744,1.);
#524=VECTOR('',#1745,1.);
#525=VECTOR('',#1748,1.);
#526=VECTOR('',#1749,1.);
#527=VERTEX_POINT('',#1756);
#528=VERTEX_POINT('',#1757);
#529=VERTEX_POINT('',#1759);
#530=VERTEX_POINT('',#1761);
#531=VERTEX_POINT('',#1765);
#532=VERTEX_POINT('',#1767);
#533=VERTEX_POINT('',#1771);
#534=VERTEX_POINT('',#1773);
#535=VERTEX_POINT('',#1777);
#536=VERTEX_POINT('',#1779);
#537=VERTEX_POINT('',#1783);
#538=VERTEX_POINT('',#1785);
#539=VERTEX_POINT('',#1793);
#540=VERTEX_POINT('',#1794);
#541=VERTEX_POINT('',#1796);
#542=VERTEX_POINT('',#1798);
#543=VERTEX_POINT('',#1802);
#544=VERTEX_POINT('',#1804);
#545=VERTEX_POINT('',#1808);
#546=VERTEX_POINT('',#1810);
#547=VERTEX_POINT('',#1818);
#548=VERTEX_POINT('',#1819);
#549=VERTEX_POINT('',#1821);
#550=VERTEX_POINT('',#1823);
#551=VERTEX_POINT('',#1826);
#552=VERTEX_POINT('',#1828);
#553=VERTEX_POINT('',#1830);
#554=VERTEX_POINT('',#1832);
#555=VERTEX_POINT('',#1834);
#556=VERTEX_POINT('',#1836);
#557=VERTEX_POINT('',#1838);
#558=VERTEX_POINT('',#1840);
#559=VERTEX_POINT('',#1842);
#560=VERTEX_POINT('',#1844);
#561=VERTEX_POINT('',#1846);
#562=VERTEX_POINT('',#1848);
#563=VERTEX_POINT('',#1850);
#564=VERTEX_POINT('',#1852);
#565=VERTEX_POINT('',#1855);
#566=VERTEX_POINT('',#1856);
#567=VERTEX_POINT('',#1861);
#568=VERTEX_POINT('',#1865);
#569=VERTEX_POINT('',#1871);
#570=VERTEX_POINT('',#1875);
#571=VERTEX_POINT('',#1877);
#572=VERTEX_POINT('',#1883);
#573=VERTEX_POINT('',#1887);
#574=VERTEX_POINT('',#1889);
#575=VERTEX_POINT('',#1895);
#576=VERTEX_POINT('',#1899);
#577=VERTEX_POINT('',#1901);
#578=VERTEX_POINT('',#1907);
#579=VERTEX_POINT('',#1911);
#580=VERTEX_POINT('',#1913);
#581=VERTEX_POINT('',#1919);
#582=VERTEX_POINT('',#1923);
#583=VERTEX_POINT('',#1925);
#584=VERTEX_POINT('',#1931);
#585=VERTEX_POINT('',#1935);
#586=VERTEX_POINT('',#1937);
#587=VERTEX_POINT('',#1943);
#588=VERTEX_POINT('',#1947);
#589=VERTEX_POINT('',#1949);
#590=VERTEX_POINT('',#1955);
#591=VERTEX_POINT('',#1959);
#592=VERTEX_POINT('',#1961);
#593=VERTEX_POINT('',#1967);
#594=VERTEX_POINT('',#1971);
#595=VERTEX_POINT('',#1973);
#596=VERTEX_POINT('',#1979);
#597=VERTEX_POINT('',#1983);
#598=VERTEX_POINT('',#1985);
#599=VERTEX_POINT('',#1991);
#600=VERTEX_POINT('',#1995);
#601=VERTEX_POINT('',#1997);
#602=VERTEX_POINT('',#2003);
#603=VERTEX_POINT('',#2007);
#604=VERTEX_POINT('',#2009);
#605=VERTEX_POINT('',#2015);
#606=VERTEX_POINT('',#2019);
#607=VERTEX_POINT('',#2021);
#608=VERTEX_POINT('',#2027);
#609=VERTEX_POINT('',#2031);
#610=VERTEX_POINT('',#2033);
#611=VERTEX_POINT('',#2039);
#612=VERTEX_POINT('',#2041);
#613=VERTEX_POINT('',#2045);
#614=VERTEX_POINT('',#2047);
#615=VERTEX_POINT('',#2051);
#616=VERTEX_POINT('',#2053);
#617=VERTEX_POINT('',#2057);
#618=VERTEX_POINT('',#2059);
#619=VERTEX_POINT('',#2063);
#620=VERTEX_POINT('',#2064);
#621=VERTEX_POINT('',#2066);
#622=VERTEX_POINT('',#2068);
#623=VERTEX_POINT('',#2072);
#624=VERTEX_POINT('',#2074);
#625=VERTEX_POINT('',#2078);
#626=VERTEX_POINT('',#2080);
#627=EDGE_CURVE('',#527,#528,#355,.T.);
#628=EDGE_CURVE('',#527,#529,#356,.T.);
#629=EDGE_CURVE('',#530,#529,#357,.T.);
#630=EDGE_CURVE('',#528,#530,#358,.T.);
#631=EDGE_CURVE('',#528,#531,#359,.T.);
#632=EDGE_CURVE('',#532,#530,#360,.T.);
#633=EDGE_CURVE('',#531,#532,#361,.T.);
#634=EDGE_CURVE('',#531,#533,#362,.T.);
#635=EDGE_CURVE('',#534,#532,#363,.T.);
#636=EDGE_CURVE('',#533,#534,#364,.T.);
#637=EDGE_CURVE('',#533,#535,#365,.T.);
#638=EDGE_CURVE('',#536,#534,#366,.T.);
#639=EDGE_CURVE('',#535,#536,#367,.T.);
#640=EDGE_CURVE('',#535,#537,#368,.T.);
#641=EDGE_CURVE('',#538,#536,#369,.T.);
#642=EDGE_CURVE('',#537,#538,#370,.T.);
#643=EDGE_CURVE('',#537,#527,#371,.T.);
#644=EDGE_CURVE('',#529,#538,#372,.T.);
#645=EDGE_CURVE('',#539,#540,#373,.T.);
#646=EDGE_CURVE('',#539,#541,#374,.T.);
#647=EDGE_CURVE('',#542,#541,#375,.T.);
#648=EDGE_CURVE('',#540,#542,#376,.T.);
#649=EDGE_CURVE('',#540,#543,#377,.T.);
#650=EDGE_CURVE('',#544,#542,#378,.T.);
#651=EDGE_CURVE('',#543,#544,#379,.T.);
#652=EDGE_CURVE('',#543,#545,#380,.T.);
#653=EDGE_CURVE('',#546,#544,#381,.T.);
#654=EDGE_CURVE('',#545,#546,#382,.T.);
#655=EDGE_CURVE('',#545,#539,#383,.T.);
#656=EDGE_CURVE('',#541,#546,#384,.T.);
#657=EDGE_CURVE('',#547,#548,#385,.T.);
#658=EDGE_CURVE('',#548,#549,#386,.T.);
#659=EDGE_CURVE('',#549,#550,#387,.T.);
#660=EDGE_CURVE('',#550,#547,#388,.T.);
#661=EDGE_CURVE('',#551,#551,#86,.T.);
#662=EDGE_CURVE('',#552,#552,#87,.T.);
#663=EDGE_CURVE('',#553,#553,#88,.T.);
#664=EDGE_CURVE('',#554,#554,#89,.T.);
#665=EDGE_CURVE('',#555,#555,#90,.T.);
#666=EDGE_CURVE('',#556,#556,#91,.T.);
#667=EDGE_CURVE('',#557,#557,#92,.T.);
#668=EDGE_CURVE('',#558,#558,#93,.T.);
#669=EDGE_CURVE('',#559,#559,#94,.T.);
#670=EDGE_CURVE('',#560,#560,#95,.T.);
#671=EDGE_CURVE('',#561,#561,#96,.T.);
#672=EDGE_CURVE('',#562,#562,#97,.T.);
#673=EDGE_CURVE('',#563,#563,#98,.T.);
#674=EDGE_CURVE('',#564,#564,#99,.T.);
#675=EDGE_CURVE('',#565,#566,#389,.T.);
#676=EDGE_CURVE('',#565,#547,#390,.T.);
#677=EDGE_CURVE('',#566,#550,#391,.T.);
#678=EDGE_CURVE('',#566,#567,#392,.T.);
#679=EDGE_CURVE('',#567,#549,#393,.T.);
#680=EDGE_CURVE('',#567,#568,#394,.T.);
#681=EDGE_CURVE('',#568,#548,#395,.T.);
#682=EDGE_CURVE('',#568,#565,#396,.T.);
#683=EDGE_CURVE('',#564,#569,#397,.T.);
#684=EDGE_CURVE('',#569,#569,#100,.T.);
#685=EDGE_CURVE('',#570,#570,#101,.T.);
#686=EDGE_CURVE('',#570,#571,#398,.T.);
#687=EDGE_CURVE('',#571,#571,#102,.T.);
#688=EDGE_CURVE('',#563,#572,#399,.T.);
#689=EDGE_CURVE('',#572,#572,#103,.T.);
#690=EDGE_CURVE('',#573,#573,#104,.T.);
#691=EDGE_CURVE('',#573,#574,#400,.T.);
#692=EDGE_CURVE('',#574,#574,#105,.T.);
#693=EDGE_CURVE('',#562,#575,#401,.T.);
#694=EDGE_CURVE('',#575,#575,#106,.T.);
#695=EDGE_CURVE('',#576,#576,#107,.T.);
#696=EDGE_CURVE('',#576,#577,#402,.T.);
#697=EDGE_CURVE('',#577,#577,#108,.T.);
#698=EDGE_CURVE('',#561,#578,#403,.T.);
#699=EDGE_CURVE('',#578,#578,#109,.T.);
#700=EDGE_CURVE('',#579,#579,#110,.T.);
#701=EDGE_CURVE('',#579,#580,#404,.T.);
#702=EDGE_CURVE('',#580,#580,#111,.T.);
#703=EDGE_CURVE('',#560,#581,#405,.T.);
#704=EDGE_CURVE('',#581,#581,#112,.T.);
#705=EDGE_CURVE('',#582,#582,#113,.T.);
#706=EDGE_CURVE('',#582,#583,#406,.T.);
#707=EDGE_CURVE('',#583,#583,#114,.T.);
#708=EDGE_CURVE('',#559,#584,#407,.T.);
#709=EDGE_CURVE('',#584,#584,#115,.T.);
#710=EDGE_CURVE('',#585,#585,#116,.T.);
#711=EDGE_CURVE('',#585,#586,#408,.T.);
#712=EDGE_CURVE('',#586,#586,#117,.T.);
#713=EDGE_CURVE('',#558,#587,#409,.T.);
#714=EDGE_CURVE('',#587,#587,#118,.T.);
#715=EDGE_CURVE('',#588,#588,#119,.T.);
#716=EDGE_CURVE('',#588,#589,#410,.T.);
#717=EDGE_CURVE('',#589,#589,#120,.T.);
#718=EDGE_CURVE('',#557,#590,#411,.T.);
#719=EDGE_CURVE('',#590,#590,#121,.T.);
#720=EDGE_CURVE('',#591,#591,#122,.T.);
#721=EDGE_CURVE('',#591,#592,#412,.T.);
#722=EDGE_CURVE('',#592,#592,#123,.T.);
#723=EDGE_CURVE('',#556,#593,#413,.T.);
#724=EDGE_CURVE('',#593,#593,#124,.T.);
#725=EDGE_CURVE('',#594,#594,#125,.T.);
#726=EDGE_CURVE('',#594,#595,#414,.T.);
#727=EDGE_CURVE('',#595,#595,#126,.T.);
#728=EDGE_CURVE('',#555,#596,#415,.T.);
#729=EDGE_CURVE('',#596,#596,#127,.T.);
#730=EDGE_CURVE('',#597,#597,#128,.T.);
#731=EDGE_CURVE('',#597,#598,#416,.T.);
#732=EDGE_CURVE('',#598,#598,#129,.T.);
#733=EDGE_CURVE('',#554,#599,#417,.T.);
#734=EDGE_CURVE('',#599,#599,#130,.T.);
#735=EDGE_CURVE('',#600,#600,#131,.T.);
#736=EDGE_CURVE('',#600,#601,#418,.T.);
#737=EDGE_CURVE('',#601,#601,#132,.T.);
#738=EDGE_CURVE('',#553,#602,#419,.T.);
#739=EDGE_CURVE('',#602,#602,#133,.T.);
#740=EDGE_CURVE('',#603,#603,#134,.T.);
#741=EDGE_CURVE('',#603,#604,#420,.T.);
#742=EDGE_CURVE('',#604,#604,#135,.T.);
#743=EDGE_CURVE('',#552,#605,#421,.T.);
#744=EDGE_CURVE('',#605,#605,#136,.T.);
#745=EDGE_CURVE('',#606,#606,#137,.T.);
#746=EDGE_CURVE('',#606,#607,#422,.T.);
#747=EDGE_CURVE('',#607,#607,#138,.T.);
#748=EDGE_CURVE('',#551,#608,#423,.T.);
#749=EDGE_CURVE('',#608,#608,#139,.T.);
#750=EDGE_CURVE('',#609,#609,#140,.T.);
#751=EDGE_CURVE('',#609,#610,#424,.T.);
#752=EDGE_CURVE('',#610,#610,#141,.T.);
#753=EDGE_CURVE('',#611,#611,#142,.T.);
#754=EDGE_CURVE('',#611,#612,#425,.T.);
#755=EDGE_CURVE('',#612,#612,#143,.T.);
#756=EDGE_CURVE('',#613,#613,#144,.T.);
#757=EDGE_CURVE('',#613,#614,#426,.T.);
#758=EDGE_CURVE('',#614,#614,#145,.T.);
#759=EDGE_CURVE('',#615,#615,#146,.T.);
#760=EDGE_CURVE('',#615,#616,#427,.T.);
#761=EDGE_CURVE('',#616,#616,#147,.T.);
#762=EDGE_CURVE('',#617,#617,#148,.T.);
#763=EDGE_CURVE('',#617,#618,#428,.T.);
#764=EDGE_CURVE('',#618,#618,#149,.T.);
#765=EDGE_CURVE('',#619,#620,#429,.T.);
#766=EDGE_CURVE('',#619,#621,#430,.T.);
#767=EDGE_CURVE('',#622,#621,#431,.T.);
#768=EDGE_CURVE('',#620,#622,#432,.T.);
#769=EDGE_CURVE('',#620,#623,#433,.T.);
#770=EDGE_CURVE('',#624,#622,#434,.T.);
#771=EDGE_CURVE('',#623,#624,#435,.T.);
#772=EDGE_CURVE('',#623,#625,#436,.T.);
#773=EDGE_CURVE('',#626,#624,#437,.T.);
#774=EDGE_CURVE('',#625,#626,#438,.T.);
#775=EDGE_CURVE('',#625,#619,#439,.T.);
#776=EDGE_CURVE('',#621,#626,#440,.T.);
#777=ORIENTED_EDGE('',*,*,#627,.F.);
#778=ORIENTED_EDGE('',*,*,#628,.T.);
#779=ORIENTED_EDGE('',*,*,#629,.F.);
#780=ORIENTED_EDGE('',*,*,#630,.F.);
#781=ORIENTED_EDGE('',*,*,#631,.F.);
#782=ORIENTED_EDGE('',*,*,#630,.T.);
#783=ORIENTED_EDGE('',*,*,#632,.F.);
#784=ORIENTED_EDGE('',*,*,#633,.F.);
#785=ORIENTED_EDGE('',*,*,#634,.F.);
#786=ORIENTED_EDGE('',*,*,#633,.T.);
#787=ORIENTED_EDGE('',*,*,#635,.F.);
#788=ORIENTED_EDGE('',*,*,#636,.F.);
#789=ORIENTED_EDGE('',*,*,#637,.F.);
#790=ORIENTED_EDGE('',*,*,#636,.T.);
#791=ORIENTED_EDGE('',*,*,#638,.F.);
#792=ORIENTED_EDGE('',*,*,#639,.F.);
#793=ORIENTED_EDGE('',*,*,#640,.F.);
#794=ORIENTED_EDGE('',*,*,#639,.T.);
#795=ORIENTED_EDGE('',*,*,#641,.F.);
#796=ORIENTED_EDGE('',*,*,#642,.F.);
#797=ORIENTED_EDGE('',*,*,#643,.F.);
#798=ORIENTED_EDGE('',*,*,#642,.T.);
#799=ORIENTED_EDGE('',*,*,#644,.F.);
#800=ORIENTED_EDGE('',*,*,#628,.F.);
#801=ORIENTED_EDGE('',*,*,#644,.T.);
#802=ORIENTED_EDGE('',*,*,#641,.T.);
#803=ORIENTED_EDGE('',*,*,#638,.T.);
#804=ORIENTED_EDGE('',*,*,#635,.T.);
#805=ORIENTED_EDGE('',*,*,#632,.T.);
#806=ORIENTED_EDGE('',*,*,#629,.T.);
#807=ORIENTED_EDGE('',*,*,#645,.F.);
#808=ORIENTED_EDGE('',*,*,#646,.T.);
#809=ORIENTED_EDGE('',*,*,#647,.F.);
#810=ORIENTED_EDGE('',*,*,#648,.F.);
#811=ORIENTED_EDGE('',*,*,#649,.F.);
#812=ORIENTED_EDGE('',*,*,#648,.T.);
#813=ORIENTED_EDGE('',*,*,#650,.F.);
#814=ORIENTED_EDGE('',*,*,#651,.F.);
#815=ORIENTED_EDGE('',*,*,#652,.F.);
#816=ORIENTED_EDGE('',*,*,#651,.T.);
#817=ORIENTED_EDGE('',*,*,#653,.F.);
#818=ORIENTED_EDGE('',*,*,#654,.F.);
#819=ORIENTED_EDGE('',*,*,#655,.F.);
#820=ORIENTED_EDGE('',*,*,#654,.T.);
#821=ORIENTED_EDGE('',*,*,#656,.F.);
#822=ORIENTED_EDGE('',*,*,#646,.F.);
#823=ORIENTED_EDGE('',*,*,#656,.T.);
#824=ORIENTED_EDGE('',*,*,#653,.T.);
#825=ORIENTED_EDGE('',*,*,#650,.T.);
#826=ORIENTED_EDGE('',*,*,#647,.T.);
#827=ORIENTED_EDGE('',*,*,#657,.T.);
#828=ORIENTED_EDGE('',*,*,#658,.T.);
#829=ORIENTED_EDGE('',*,*,#659,.T.);
#830=ORIENTED_EDGE('',*,*,#660,.T.);
#831=ORIENTED_EDGE('',*,*,#661,.F.);
#832=ORIENTED_EDGE('',*,*,#662,.F.);
#833=ORIENTED_EDGE('',*,*,#663,.F.);
#834=ORIENTED_EDGE('',*,*,#664,.F.);
#835=ORIENTED_EDGE('',*,*,#665,.F.);
#836=ORIENTED_EDGE('',*,*,#666,.F.);
#837=ORIENTED_EDGE('',*,*,#667,.F.);
#838=ORIENTED_EDGE('',*,*,#668,.F.);
#839=ORIENTED_EDGE('',*,*,#669,.F.);
#840=ORIENTED_EDGE('',*,*,#670,.F.);
#841=ORIENTED_EDGE('',*,*,#671,.F.);
#842=ORIENTED_EDGE('',*,*,#672,.F.);
#843=ORIENTED_EDGE('',*,*,#673,.F.);
#844=ORIENTED_EDGE('',*,*,#674,.F.);
#845=ORIENTED_EDGE('',*,*,#675,.F.);
#846=ORIENTED_EDGE('',*,*,#676,.T.);
#847=ORIENTED_EDGE('',*,*,#660,.F.);
#848=ORIENTED_EDGE('',*,*,#677,.F.);
#849=ORIENTED_EDGE('',*,*,#678,.F.);
#850=ORIENTED_EDGE('',*,*,#677,.T.);
#851=ORIENTED_EDGE('',*,*,#659,.F.);
#852=ORIENTED_EDGE('',*,*,#679,.F.);
#853=ORIENTED_EDGE('',*,*,#680,.F.);
#854=ORIENTED_EDGE('',*,*,#679,.T.);
#855=ORIENTED_EDGE('',*,*,#658,.F.);
#856=ORIENTED_EDGE('',*,*,#681,.F.);
#857=ORIENTED_EDGE('',*,*,#682,.F.);
#858=ORIENTED_EDGE('',*,*,#681,.T.);
#859=ORIENTED_EDGE('',*,*,#657,.F.);
#860=ORIENTED_EDGE('',*,*,#676,.F.);
#861=ORIENTED_EDGE('',*,*,#674,.T.);
#862=ORIENTED_EDGE('',*,*,#683,.T.);
#863=ORIENTED_EDGE('',*,*,#684,.F.);
#864=ORIENTED_EDGE('',*,*,#683,.F.);
#865=ORIENTED_EDGE('',*,*,#685,.F.);
#866=ORIENTED_EDGE('',*,*,#686,.T.);
#867=ORIENTED_EDGE('',*,*,#687,.F.);
#868=ORIENTED_EDGE('',*,*,#686,.F.);
#869=ORIENTED_EDGE('',*,*,#684,.T.);
#870=ORIENTED_EDGE('',*,*,#685,.T.);
#871=ORIENTED_EDGE('',*,*,#673,.T.);
#872=ORIENTED_EDGE('',*,*,#688,.T.);
#873=ORIENTED_EDGE('',*,*,#689,.F.);
#874=ORIENTED_EDGE('',*,*,#688,.F.);
#875=ORIENTED_EDGE('',*,*,#690,.F.);
#876=ORIENTED_EDGE('',*,*,#691,.T.);
#877=ORIENTED_EDGE('',*,*,#692,.F.);
#878=ORIENTED_EDGE('',*,*,#691,.F.);
#879=ORIENTED_EDGE('',*,*,#689,.T.);
#880=ORIENTED_EDGE('',*,*,#690,.T.);
#881=ORIENTED_EDGE('',*,*,#672,.T.);
#882=ORIENTED_EDGE('',*,*,#693,.T.);
#883=ORIENTED_EDGE('',*,*,#694,.F.);
#884=ORIENTED_EDGE('',*,*,#693,.F.);
#885=ORIENTED_EDGE('',*,*,#695,.F.);
#886=ORIENTED_EDGE('',*,*,#696,.T.);
#887=ORIENTED_EDGE('',*,*,#697,.F.);
#888=ORIENTED_EDGE('',*,*,#696,.F.);
#889=ORIENTED_EDGE('',*,*,#694,.T.);
#890=ORIENTED_EDGE('',*,*,#695,.T.);
#891=ORIENTED_EDGE('',*,*,#671,.T.);
#892=ORIENTED_EDGE('',*,*,#698,.T.);
#893=ORIENTED_EDGE('',*,*,#699,.F.);
#894=ORIENTED_EDGE('',*,*,#698,.F.);
#895=ORIENTED_EDGE('',*,*,#700,.F.);
#896=ORIENTED_EDGE('',*,*,#701,.T.);
#897=ORIENTED_EDGE('',*,*,#702,.F.);
#898=ORIENTED_EDGE('',*,*,#701,.F.);
#899=ORIENTED_EDGE('',*,*,#699,.T.);
#900=ORIENTED_EDGE('',*,*,#700,.T.);
#901=ORIENTED_EDGE('',*,*,#670,.T.);
#902=ORIENTED_EDGE('',*,*,#703,.T.);
#903=ORIENTED_EDGE('',*,*,#704,.F.);
#904=ORIENTED_EDGE('',*,*,#703,.F.);
#905=ORIENTED_EDGE('',*,*,#705,.F.);
#906=ORIENTED_EDGE('',*,*,#706,.T.);
#907=ORIENTED_EDGE('',*,*,#707,.F.);
#908=ORIENTED_EDGE('',*,*,#706,.F.);
#909=ORIENTED_EDGE('',*,*,#704,.T.);
#910=ORIENTED_EDGE('',*,*,#705,.T.);
#911=ORIENTED_EDGE('',*,*,#669,.T.);
#912=ORIENTED_EDGE('',*,*,#708,.T.);
#913=ORIENTED_EDGE('',*,*,#709,.F.);
#914=ORIENTED_EDGE('',*,*,#708,.F.);
#915=ORIENTED_EDGE('',*,*,#710,.F.);
#916=ORIENTED_EDGE('',*,*,#711,.T.);
#917=ORIENTED_EDGE('',*,*,#712,.F.);
#918=ORIENTED_EDGE('',*,*,#711,.F.);
#919=ORIENTED_EDGE('',*,*,#709,.T.);
#920=ORIENTED_EDGE('',*,*,#710,.T.);
#921=ORIENTED_EDGE('',*,*,#668,.T.);
#922=ORIENTED_EDGE('',*,*,#713,.T.);
#923=ORIENTED_EDGE('',*,*,#714,.F.);
#924=ORIENTED_EDGE('',*,*,#713,.F.);
#925=ORIENTED_EDGE('',*,*,#715,.F.);
#926=ORIENTED_EDGE('',*,*,#716,.T.);
#927=ORIENTED_EDGE('',*,*,#717,.F.);
#928=ORIENTED_EDGE('',*,*,#716,.F.);
#929=ORIENTED_EDGE('',*,*,#714,.T.);
#930=ORIENTED_EDGE('',*,*,#715,.T.);
#931=ORIENTED_EDGE('',*,*,#667,.T.);
#932=ORIENTED_EDGE('',*,*,#718,.T.);
#933=ORIENTED_EDGE('',*,*,#719,.F.);
#934=ORIENTED_EDGE('',*,*,#718,.F.);
#935=ORIENTED_EDGE('',*,*,#720,.F.);
#936=ORIENTED_EDGE('',*,*,#721,.T.);
#937=ORIENTED_EDGE('',*,*,#722,.F.);
#938=ORIENTED_EDGE('',*,*,#721,.F.);
#939=ORIENTED_EDGE('',*,*,#719,.T.);
#940=ORIENTED_EDGE('',*,*,#720,.T.);
#941=ORIENTED_EDGE('',*,*,#666,.T.);
#942=ORIENTED_EDGE('',*,*,#723,.T.);
#943=ORIENTED_EDGE('',*,*,#724,.F.);
#944=ORIENTED_EDGE('',*,*,#723,.F.);
#945=ORIENTED_EDGE('',*,*,#725,.F.);
#946=ORIENTED_EDGE('',*,*,#726,.T.);
#947=ORIENTED_EDGE('',*,*,#727,.F.);
#948=ORIENTED_EDGE('',*,*,#726,.F.);
#949=ORIENTED_EDGE('',*,*,#724,.T.);
#950=ORIENTED_EDGE('',*,*,#725,.T.);
#951=ORIENTED_EDGE('',*,*,#665,.T.);
#952=ORIENTED_EDGE('',*,*,#728,.T.);
#953=ORIENTED_EDGE('',*,*,#729,.F.);
#954=ORIENTED_EDGE('',*,*,#728,.F.);
#955=ORIENTED_EDGE('',*,*,#730,.F.);
#956=ORIENTED_EDGE('',*,*,#731,.T.);
#957=ORIENTED_EDGE('',*,*,#732,.F.);
#958=ORIENTED_EDGE('',*,*,#731,.F.);
#959=ORIENTED_EDGE('',*,*,#729,.T.);
#960=ORIENTED_EDGE('',*,*,#730,.T.);
#961=ORIENTED_EDGE('',*,*,#664,.T.);
#962=ORIENTED_EDGE('',*,*,#733,.T.);
#963=ORIENTED_EDGE('',*,*,#734,.F.);
#964=ORIENTED_EDGE('',*,*,#733,.F.);
#965=ORIENTED_EDGE('',*,*,#735,.F.);
#966=ORIENTED_EDGE('',*,*,#736,.T.);
#967=ORIENTED_EDGE('',*,*,#737,.F.);
#968=ORIENTED_EDGE('',*,*,#736,.F.);
#969=ORIENTED_EDGE('',*,*,#734,.T.);
#970=ORIENTED_EDGE('',*,*,#735,.T.);
#971=ORIENTED_EDGE('',*,*,#663,.T.);
#972=ORIENTED_EDGE('',*,*,#738,.T.);
#973=ORIENTED_EDGE('',*,*,#739,.F.);
#974=ORIENTED_EDGE('',*,*,#738,.F.);
#975=ORIENTED_EDGE('',*,*,#740,.F.);
#976=ORIENTED_EDGE('',*,*,#741,.T.);
#977=ORIENTED_EDGE('',*,*,#742,.F.);
#978=ORIENTED_EDGE('',*,*,#741,.F.);
#979=ORIENTED_EDGE('',*,*,#739,.T.);
#980=ORIENTED_EDGE('',*,*,#740,.T.);
#981=ORIENTED_EDGE('',*,*,#662,.T.);
#982=ORIENTED_EDGE('',*,*,#743,.T.);
#983=ORIENTED_EDGE('',*,*,#744,.F.);
#984=ORIENTED_EDGE('',*,*,#743,.F.);
#985=ORIENTED_EDGE('',*,*,#745,.F.);
#986=ORIENTED_EDGE('',*,*,#746,.T.);
#987=ORIENTED_EDGE('',*,*,#747,.F.);
#988=ORIENTED_EDGE('',*,*,#746,.F.);
#989=ORIENTED_EDGE('',*,*,#744,.T.);
#990=ORIENTED_EDGE('',*,*,#745,.T.);
#991=ORIENTED_EDGE('',*,*,#661,.T.);
#992=ORIENTED_EDGE('',*,*,#748,.T.);
#993=ORIENTED_EDGE('',*,*,#749,.F.);
#994=ORIENTED_EDGE('',*,*,#748,.F.);
#995=ORIENTED_EDGE('',*,*,#750,.F.);
#996=ORIENTED_EDGE('',*,*,#751,.T.);
#997=ORIENTED_EDGE('',*,*,#752,.F.);
#998=ORIENTED_EDGE('',*,*,#751,.F.);
#999=ORIENTED_EDGE('',*,*,#749,.T.);
#1000=ORIENTED_EDGE('',*,*,#750,.T.);
#1001=ORIENTED_EDGE('',*,*,#753,.F.);
#1002=ORIENTED_EDGE('',*,*,#754,.T.);
#1003=ORIENTED_EDGE('',*,*,#755,.T.);
#1004=ORIENTED_EDGE('',*,*,#754,.F.);
#1005=ORIENTED_EDGE('',*,*,#756,.F.);
#1006=ORIENTED_EDGE('',*,*,#757,.T.);
#1007=ORIENTED_EDGE('',*,*,#758,.T.);
#1008=ORIENTED_EDGE('',*,*,#757,.F.);
#1009=ORIENTED_EDGE('',*,*,#759,.F.);
#1010=ORIENTED_EDGE('',*,*,#760,.T.);
#1011=ORIENTED_EDGE('',*,*,#761,.T.);
#1012=ORIENTED_EDGE('',*,*,#760,.F.);
#1013=ORIENTED_EDGE('',*,*,#762,.F.);
#1014=ORIENTED_EDGE('',*,*,#763,.T.);
#1015=ORIENTED_EDGE('',*,*,#764,.T.);
#1016=ORIENTED_EDGE('',*,*,#763,.F.);
#1017=ORIENTED_EDGE('',*,*,#765,.F.);
#1018=ORIENTED_EDGE('',*,*,#766,.T.);
#1019=ORIENTED_EDGE('',*,*,#767,.F.);
#1020=ORIENTED_EDGE('',*,*,#768,.F.);
#1021=ORIENTED_EDGE('',*,*,#769,.F.);
#1022=ORIENTED_EDGE('',*,*,#768,.T.);
#1023=ORIENTED_EDGE('',*,*,#770,.F.);
#1024=ORIENTED_EDGE('',*,*,#771,.F.);
#1025=ORIENTED_EDGE('',*,*,#772,.F.);
#1026=ORIENTED_EDGE('',*,*,#771,.T.);
#1027=ORIENTED_EDGE('',*,*,#773,.F.);
#1028=ORIENTED_EDGE('',*,*,#774,.F.);
#1029=ORIENTED_EDGE('',*,*,#775,.F.);
#1030=ORIENTED_EDGE('',*,*,#774,.T.);
#1031=ORIENTED_EDGE('',*,*,#776,.F.);
#1032=ORIENTED_EDGE('',*,*,#766,.F.);
#1033=ORIENTED_EDGE('',*,*,#776,.T.);
#1034=ORIENTED_EDGE('',*,*,#773,.T.);
#1035=ORIENTED_EDGE('',*,*,#770,.T.);
#1036=ORIENTED_EDGE('',*,*,#767,.T.);
#1037=ORIENTED_EDGE('',*,*,#645,.T.);
#1038=ORIENTED_EDGE('',*,*,#649,.T.);
#1039=ORIENTED_EDGE('',*,*,#652,.T.);
#1040=ORIENTED_EDGE('',*,*,#655,.T.);
#1041=ORIENTED_EDGE('',*,*,#687,.T.);
#1042=ORIENTED_EDGE('',*,*,#692,.T.);
#1043=ORIENTED_EDGE('',*,*,#697,.T.);
#1044=ORIENTED_EDGE('',*,*,#702,.T.);
#1045=ORIENTED_EDGE('',*,*,#707,.T.);
#1046=ORIENTED_EDGE('',*,*,#712,.T.);
#1047=ORIENTED_EDGE('',*,*,#717,.T.);
#1048=ORIENTED_EDGE('',*,*,#722,.T.);
#1049=ORIENTED_EDGE('',*,*,#727,.T.);
#1050=ORIENTED_EDGE('',*,*,#732,.T.);
#1051=ORIENTED_EDGE('',*,*,#737,.T.);
#1052=ORIENTED_EDGE('',*,*,#742,.T.);
#1053=ORIENTED_EDGE('',*,*,#747,.T.);
#1054=ORIENTED_EDGE('',*,*,#762,.T.);
#1055=ORIENTED_EDGE('',*,*,#752,.T.);
#1056=ORIENTED_EDGE('',*,*,#759,.T.);
#1057=ORIENTED_EDGE('',*,*,#756,.T.);
#1058=ORIENTED_EDGE('',*,*,#753,.T.);
#1059=ORIENTED_EDGE('',*,*,#775,.T.);
#1060=ORIENTED_EDGE('',*,*,#765,.T.);
#1061=ORIENTED_EDGE('',*,*,#769,.T.);
#1062=ORIENTED_EDGE('',*,*,#772,.T.);
#1063=ORIENTED_EDGE('',*,*,#627,.T.);
#1064=ORIENTED_EDGE('',*,*,#631,.T.);
#1065=ORIENTED_EDGE('',*,*,#634,.T.);
#1066=ORIENTED_EDGE('',*,*,#637,.T.);
#1067=ORIENTED_EDGE('',*,*,#640,.T.);
#1068=ORIENTED_EDGE('',*,*,#643,.T.);
#1069=ORIENTED_EDGE('',*,*,#675,.T.);
#1070=ORIENTED_EDGE('',*,*,#678,.T.);
#1071=ORIENTED_EDGE('',*,*,#680,.T.);
#1072=ORIENTED_EDGE('',*,*,#682,.T.);
#1073=ORIENTED_EDGE('',*,*,#764,.F.);
#1074=ORIENTED_EDGE('',*,*,#761,.F.);
#1075=ORIENTED_EDGE('',*,*,#758,.F.);
#1076=ORIENTED_EDGE('',*,*,#755,.F.);
#1077=PLANE('',#1225);
#1078=PLANE('',#1226);
#1079=PLANE('',#1227);
#1080=PLANE('',#1228);
#1081=PLANE('',#1229);
#1082=PLANE('',#1230);
#1083=PLANE('',#1231);
#1084=PLANE('',#1232);
#1085=PLANE('',#1233);
#1086=PLANE('',#1234);
#1087=PLANE('',#1235);
#1088=PLANE('',#1236);
#1089=PLANE('',#1237);
#1090=PLANE('',#1252);
#1091=PLANE('',#1253);
#1092=PLANE('',#1254);
#1093=PLANE('',#1255);
#1094=PLANE('',#1261);
#1095=PLANE('',#1262);
#1096=PLANE('',#1268);
#1097=PLANE('',#1269);
#1098=PLANE('',#1275);
#1099=PLANE('',#1276);
#1100=PLANE('',#1282);
#1101=PLANE('',#1283);
#1102=PLANE('',#1289);
#1103=PLANE('',#1290);
#1104=PLANE('',#1296);
#1105=PLANE('',#1297);
#1106=PLANE('',#1303);
#1107=PLANE('',#1304);
#1108=PLANE('',#1310);
#1109=PLANE('',#1311);
#1110=PLANE('',#1317);
#1111=PLANE('',#1318);
#1112=PLANE('',#1324);
#1113=PLANE('',#1325);
#1114=PLANE('',#1331);
#1115=PLANE('',#1332);
#1116=PLANE('',#1338);
#1117=PLANE('',#1339);
#1118=PLANE('',#1345);
#1119=PLANE('',#1346);
#1120=PLANE('',#1352);
#1121=PLANE('',#1353);
#1122=PLANE('',#1366);
#1123=PLANE('',#1367);
#1124=PLANE('',#1368);
#1125=PLANE('',#1369);
#1126=PLANE('',#1370);
#1127=PLANE('',#1371);
#1128=ADVANCED_FACE('',(#150),#1077,.T.);
#1129=ADVANCED_FACE('',(#151),#1078,.T.);
#1130=ADVANCED_FACE('',(#152),#1079,.T.);
#1131=ADVANCED_FACE('',(#153),#1080,.T.);
#1132=ADVANCED_FACE('',(#154),#1081,.T.);
#1133=ADVANCED_FACE('',(#155),#1082,.T.);
#1134=ADVANCED_FACE('',(#156),#1083,.T.);
#1135=ADVANCED_FACE('',(#157),#1084,.T.);
#1136=ADVANCED_FACE('',(#158),#1085,.T.);
#1137=ADVANCED_FACE('',(#159),#1086,.T.);
#1138=ADVANCED_FACE('',(#160),#1087,.T.);
#1139=ADVANCED_FACE('',(#161),#1088,.T.);
#1140=ADVANCED_FACE('',(#162,#47,#48,#49,#50,#51,#52,#53,#54,#55,#56,#57,
#58,#59,#60),#1089,.F.);
#1141=ADVANCED_FACE('',(#163),#1090,.T.);
#1142=ADVANCED_FACE('',(#164),#1091,.T.);
#1143=ADVANCED_FACE('',(#165),#1092,.T.);
#1144=ADVANCED_FACE('',(#166),#1093,.T.);
#1145=ADVANCED_FACE('',(#167),#15,.T.);
#1146=ADVANCED_FACE('',(#168),#16,.T.);
#1147=ADVANCED_FACE('',(#169),#1094,.F.);
#1148=ADVANCED_FACE('',(#170),#1095,.T.);
#1149=ADVANCED_FACE('',(#171),#17,.T.);
#1150=ADVANCED_FACE('',(#172),#18,.T.);
#1151=ADVANCED_FACE('',(#173),#1096,.F.);
#1152=ADVANCED_FACE('',(#174),#1097,.T.);
#1153=ADVANCED_FACE('',(#175),#19,.T.);
#1154=ADVANCED_FACE('',(#176),#20,.T.);
#1155=ADVANCED_FACE('',(#177),#1098,.F.);
#1156=ADVANCED_FACE('',(#178),#1099,.T.);
#1157=ADVANCED_FACE('',(#179),#21,.T.);
#1158=ADVANCED_FACE('',(#180),#22,.T.);
#1159=ADVANCED_FACE('',(#181),#1100,.F.);
#1160=ADVANCED_FACE('',(#182),#1101,.T.);
#1161=ADVANCED_FACE('',(#183),#23,.T.);
#1162=ADVANCED_FACE('',(#184),#24,.T.);
#1163=ADVANCED_FACE('',(#185),#1102,.F.);
#1164=ADVANCED_FACE('',(#186),#1103,.T.);
#1165=ADVANCED_FACE('',(#187),#25,.T.);
#1166=ADVANCED_FACE('',(#188),#26,.T.);
#1167=ADVANCED_FACE('',(#189),#1104,.F.);
#1168=ADVANCED_FACE('',(#190),#1105,.T.);
#1169=ADVANCED_FACE('',(#191),#27,.T.);
#1170=ADVANCED_FACE('',(#192),#28,.T.);
#1171=ADVANCED_FACE('',(#193),#1106,.F.);
#1172=ADVANCED_FACE('',(#194),#1107,.T.);
#1173=ADVANCED_FACE('',(#195),#29,.T.);
#1174=ADVANCED_FACE('',(#196),#30,.T.);
#1175=ADVANCED_FACE('',(#197),#1108,.F.);
#1176=ADVANCED_FACE('',(#198),#1109,.T.);
#1177=ADVANCED_FACE('',(#199),#31,.T.);
#1178=ADVANCED_FACE('',(#200),#32,.T.);
#1179=ADVANCED_FACE('',(#201),#1110,.F.);
#1180=ADVANCED_FACE('',(#202),#1111,.T.);
#1181=ADVANCED_FACE('',(#203),#33,.T.);
#1182=ADVANCED_FACE('',(#204),#34,.T.);
#1183=ADVANCED_FACE('',(#205),#1112,.F.);
#1184=ADVANCED_FACE('',(#206),#1113,.T.);
#1185=ADVANCED_FACE('',(#207),#35,.T.);
#1186=ADVANCED_FACE('',(#208),#36,.T.);
#1187=ADVANCED_FACE('',(#209),#1114,.F.);
#1188=ADVANCED_FACE('',(#210),#1115,.T.);
#1189=ADVANCED_FACE('',(#211),#37,.T.);
#1190=ADVANCED_FACE('',(#212),#38,.T.);
#1191=ADVANCED_FACE('',(#213),#1116,.F.);
#1192=ADVANCED_FACE('',(#214),#1117,.T.);
#1193=ADVANCED_FACE('',(#215),#39,.T.);
#1194=ADVANCED_FACE('',(#216),#40,.T.);
#1195=ADVANCED_FACE('',(#217),#1118,.F.);
#1196=ADVANCED_FACE('',(#218),#1119,.T.);
#1197=ADVANCED_FACE('',(#219),#41,.T.);
#1198=ADVANCED_FACE('',(#220),#42,.T.);
#1199=ADVANCED_FACE('',(#221),#1120,.F.);
#1200=ADVANCED_FACE('',(#222),#1121,.T.);
#1201=ADVANCED_FACE('',(#223),#43,.F.);
#1202=ADVANCED_FACE('',(#224),#44,.F.);
#1203=ADVANCED_FACE('',(#225),#45,.F.);
#1204=ADVANCED_FACE('',(#226),#46,.F.);
#1205=ADVANCED_FACE('',(#227),#1122,.T.);
#1206=ADVANCED_FACE('',(#228),#1123,.T.);
#1207=ADVANCED_FACE('',(#229),#1124,.T.);
#1208=ADVANCED_FACE('',(#230),#1125,.T.);
#1209=ADVANCED_FACE('',(#231,#61,#62,#63,#64,#65,#66,#67,#68,#69,#70,#71,
#72,#73,#74,#75,#76,#77,#78,#79),#1126,.T.);
#1210=ADVANCED_FACE('',(#232,#80,#81,#82,#83,#84,#85),#1127,.F.);
#1211=CLOSED_SHELL('',(#1128,#1129,#1130,#1131,#1132,#1133,#1134,#1135,
#1136,#1137,#1138,#1139,#1140,#1141,#1142,#1143,#1144,#1145,#1146,#1147,
#1148,#1149,#1150,#1151,#1152,#1153,#1154,#1155,#1156,#1157,#1158,#1159,
#1160,#1161,#1162,#1163,#1164,#1165,#1166,#1167,#1168,#1169,#1170,#1171,
#1172,#1173,#1174,#1175,#1176,#1177,#1178,#1179,#1180,#1181,#1182,#1183,
#1184,#1185,#1186,#1187,#1188,#1189,#1190,#1191,#1192,#1193,#1194,#1195,
#1196,#1197,#1198,#1199,#1200,#1201,#1202,#1203,#1204,#1205,#1206,#1207,
#1208,#1209,#1210));
#1212=DERIVED_UNIT_ELEMENT(#1214,1.);
#1213=DERIVED_UNIT_ELEMENT(#2093,-3.);
#1214=(
MASS_UNIT()
NAMED_UNIT(*)
SI_UNIT(.KILO.,.GRAM.)
);
#1215=DERIVED_UNIT((#1212,#1213));
#1216=MEASURE_REPRESENTATION_ITEM('density measure',
POSITIVE_RATIO_MEASURE(7850.),#1215);
#1217=PROPERTY_DEFINITION_REPRESENTATION(#1222,#1219);
#1218=PROPERTY_DEFINITION_REPRESENTATION(#1223,#1220);
#1219=REPRESENTATION('material name',(#1221),#2090);
#1220=REPRESENTATION('density',(#1216),#2090);
#1221=DESCRIPTIVE_REPRESENTATION_ITEM('Steel','Steel');
#1222=PROPERTY_DEFINITION('material property','material name',#2100);
#1223=PROPERTY_DEFINITION('material property','density of part',#2100);
#1224=AXIS2_PLACEMENT_3D('',#1754,#1372,#1373);
#1225=AXIS2_PLACEMENT_3D('',#1755,#1374,#1375);
#1226=AXIS2_PLACEMENT_3D('',#1764,#1380,#1381);
#1227=AXIS2_PLACEMENT_3D('',#1770,#1385,#1386);
#1228=AXIS2_PLACEMENT_3D('',#1776,#1390,#1391);
#1229=AXIS2_PLACEMENT_3D('',#1782,#1395,#1396);
#1230=AXIS2_PLACEMENT_3D('',#1788,#1400,#1401);
#1231=AXIS2_PLACEMENT_3D('',#1791,#1404,#1405);
#1232=AXIS2_PLACEMENT_3D('',#1792,#1406,#1407);
#1233=AXIS2_PLACEMENT_3D('',#1801,#1412,#1413);
#1234=AXIS2_PLACEMENT_3D('',#1807,#1417,#1418);
#1235=AXIS2_PLACEMENT_3D('',#1813,#1422,#1423);
#1236=AXIS2_PLACEMENT_3D('',#1816,#1426,#1427);
#1237=AXIS2_PLACEMENT_3D('',#1817,#1428,#1429);
#1238=AXIS2_PLACEMENT_3D('',#1827,#1434,#1435);
#1239=AXIS2_PLACEMENT_3D('',#1829,#1436,#1437);
#1240=AXIS2_PLACEMENT_3D('',#1831,#1438,#1439);
#1241=AXIS2_PLACEMENT_3D('',#1833,#1440,#1441);
#1242=AXIS2_PLACEMENT_3D('',#1835,#1442,#1443);
#1243=AXIS2_PLACEMENT_3D('',#1837,#1444,#1445);
#1244=AXIS2_PLACEMENT_3D('',#1839,#1446,#1447);
#1245=AXIS2_PLACEMENT_3D('',#1841,#1448,#1449);
#1246=AXIS2_PLACEMENT_3D('',#1843,#1450,#1451);
#1247=AXIS2_PLACEMENT_3D('',#1845,#1452,#1453);
#1248=AXIS2_PLACEMENT_3D('',#1847,#1454,#1455);
#1249=AXIS2_PLACEMENT_3D('',#1849,#1456,#1457);
#1250=AXIS2_PLACEMENT_3D('',#1851,#1458,#1459);
#1251=AXIS2_PLACEMENT_3D('',#1853,#1460,#1461);
#1252=AXIS2_PLACEMENT_3D('',#1854,#1462,#1463);
#1253=AXIS2_PLACEMENT_3D('',#1860,#1467,#1468);
#1254=AXIS2_PLACEMENT_3D('',#1864,#1471,#1472);
#1255=AXIS2_PLACEMENT_3D('',#1868,#1475,#1476);
#1256=AXIS2_PLACEMENT_3D('',#1870,#1478,#1479);
#1257=AXIS2_PLACEMENT_3D('',#1873,#1481,#1482);
#1258=AXIS2_PLACEMENT_3D('',#1874,#1483,#1484);
#1259=AXIS2_PLACEMENT_3D('',#1876,#1485,#1486);
#1260=AXIS2_PLACEMENT_3D('',#1879,#1488,#1489);
#1261=AXIS2_PLACEMENT_3D('',#1880,#1490,#1491);
#1262=AXIS2_PLACEMENT_3D('',#1881,#1492,#1493);
#1263=AXIS2_PLACEMENT_3D('',#1882,#1494,#1495);
#1264=AXIS2_PLACEMENT_3D('',#1885,#1497,#1498);
#1265=AXIS2_PLACEMENT_3D('',#1886,#1499,#1500);
#1266=AXIS2_PLACEMENT_3D('',#1888,#1501,#1502);
#1267=AXIS2_PLACEMENT_3D('',#1891,#1504,#1505);
#1268=AXIS2_PLACEMENT_3D('',#1892,#1506,#1507);
#1269=AXIS2_PLACEMENT_3D('',#1893,#1508,#1509);
#1270=AXIS2_PLACEMENT_3D('',#1894,#1510,#1511);
#1271=AXIS2_PLACEMENT_3D('',#1897,#1513,#1514);
#1272=AXIS2_PLACEMENT_3D('',#1898,#1515,#1516);
#1273=AXIS2_PLACEMENT_3D('',#1900,#1517,#1518);
#1274=AXIS2_PLACEMENT_3D('',#1903,#1520,#1521);
#1275=AXIS2_PLACEMENT_3D('',#1904,#1522,#1523);
#1276=AXIS2_PLACEMENT_3D('',#1905,#1524,#1525);
#1277=AXIS2_PLACEMENT_3D('',#1906,#1526,#1527);
#1278=AXIS2_PLACEMENT_3D('',#1909,#1529,#1530);
#1279=AXIS2_PLACEMENT_3D('',#1910,#1531,#1532);
#1280=AXIS2_PLACEMENT_3D('',#1912,#1533,#1534);
#1281=AXIS2_PLACEMENT_3D('',#1915,#1536,#1537);
#1282=AXIS2_PLACEMENT_3D('',#1916,#1538,#1539);
#1283=AXIS2_PLACEMENT_3D('',#1917,#1540,#1541);
#1284=AXIS2_PLACEMENT_3D('',#1918,#1542,#1543);
#1285=AXIS2_PLACEMENT_3D('',#1921,#1545,#1546);
#1286=AXIS2_PLACEMENT_3D('',#1922,#1547,#1548);
#1287=AXIS2_PLACEMENT_3D('',#1924,#1549,#1550);
#1288=AXIS2_PLACEMENT_3D('',#1927,#1552,#1553);
#1289=AXIS2_PLACEMENT_3D('',#1928,#1554,#1555);
#1290=AXIS2_PLACEMENT_3D('',#1929,#1556,#1557);
#1291=AXIS2_PLACEMENT_3D('',#1930,#1558,#1559);
#1292=AXIS2_PLACEMENT_3D('',#1933,#1561,#1562);
#1293=AXIS2_PLACEMENT_3D('',#1934,#1563,#1564);
#1294=AXIS2_PLACEMENT_3D('',#1936,#1565,#1566);
#1295=AXIS2_PLACEMENT_3D('',#1939,#1568,#1569);
#1296=AXIS2_PLACEMENT_3D('',#1940,#1570,#1571);
#1297=AXIS2_PLACEMENT_3D('',#1941,#1572,#1573);
#1298=AXIS2_PLACEMENT_3D('',#1942,#1574,#1575);
#1299=AXIS2_PLACEMENT_3D('',#1945,#1577,#1578);
#1300=AXIS2_PLACEMENT_3D('',#1946,#1579,#1580);
#1301=AXIS2_PLACEMENT_3D('',#1948,#1581,#1582);
#1302=AXIS2_PLACEMENT_3D('',#1951,#1584,#1585);
#1303=AXIS2_PLACEMENT_3D('',#1952,#1586,#1587);
#1304=AXIS2_PLACEMENT_3D('',#1953,#1588,#1589);
#1305=AXIS2_PLACEMENT_3D('',#1954,#1590,#1591);
#1306=AXIS2_PLACEMENT_3D('',#1957,#1593,#1594);
#1307=AXIS2_PLACEMENT_3D('',#1958,#1595,#1596);
#1308=AXIS2_PLACEMENT_3D('',#1960,#1597,#1598);
#1309=AXIS2_PLACEMENT_3D('',#1963,#1600,#1601);
#1310=AXIS2_PLACEMENT_3D('',#1964,#1602,#1603);
#1311=AXIS2_PLACEMENT_3D('',#1965,#1604,#1605);
#1312=AXIS2_PLACEMENT_3D('',#1966,#1606,#1607);
#1313=AXIS2_PLACEMENT_3D('',#1969,#1609,#1610);
#1314=AXIS2_PLACEMENT_3D('',#1970,#1611,#1612);
#1315=AXIS2_PLACEMENT_3D('',#1972,#1613,#1614);
#1316=AXIS2_PLACEMENT_3D('',#1975,#1616,#1617);
#1317=AXIS2_PLACEMENT_3D('',#1976,#1618,#1619);
#1318=AXIS2_PLACEMENT_3D('',#1977,#1620,#1621);
#1319=AXIS2_PLACEMENT_3D('',#1978,#1622,#1623);
#1320=AXIS2_PLACEMENT_3D('',#1981,#1625,#1626);
#1321=AXIS2_PLACEMENT_3D('',#1982,#1627,#1628);
#1322=AXIS2_PLACEMENT_3D('',#1984,#1629,#1630);
#1323=AXIS2_PLACEMENT_3D('',#1987,#1632,#1633);
#1324=AXIS2_PLACEMENT_3D('',#1988,#1634,#1635);
#1325=AXIS2_PLACEMENT_3D('',#1989,#1636,#1637);
#1326=AXIS2_PLACEMENT_3D('',#1990,#1638,#1639);
#1327=AXIS2_PLACEMENT_3D('',#1993,#1641,#1642);
#1328=AXIS2_PLACEMENT_3D('',#1994,#1643,#1644);
#1329=AXIS2_PLACEMENT_3D('',#1996,#1645,#1646);
#1330=AXIS2_PLACEMENT_3D('',#1999,#1648,#1649);
#1331=AXIS2_PLACEMENT_3D('',#2000,#1650,#1651);
#1332=AXIS2_PLACEMENT_3D('',#2001,#1652,#1653);
#1333=AXIS2_PLACEMENT_3D('',#2002,#1654,#1655);
#1334=AXIS2_PLACEMENT_3D('',#2005,#1657,#1658);
#1335=AXIS2_PLACEMENT_3D('',#2006,#1659,#1660);
#1336=AXIS2_PLACEMENT_3D('',#2008,#1661,#1662);
#1337=AXIS2_PLACEMENT_3D('',#2011,#1664,#1665);
#1338=AXIS2_PLACEMENT_3D('',#2012,#1666,#1667);
#1339=AXIS2_PLACEMENT_3D('',#2013,#1668,#1669);
#1340=AXIS2_PLACEMENT_3D('',#2014,#1670,#1671);
#1341=AXIS2_PLACEMENT_3D('',#2017,#1673,#1674);
#1342=AXIS2_PLACEMENT_3D('',#2018,#1675,#1676);
#1343=AXIS2_PLACEMENT_3D('',#2020,#1677,#1678);
#1344=AXIS2_PLACEMENT_3D('',#2023,#1680,#1681);
#1345=AXIS2_PLACEMENT_3D('',#2024,#1682,#1683);
#1346=AXIS2_PLACEMENT_3D('',#2025,#1684,#1685);
#1347=AXIS2_PLACEMENT_3D('',#2026,#1686,#1687);
#1348=AXIS2_PLACEMENT_3D('',#2029,#1689,#1690);
#1349=AXIS2_PLACEMENT_3D('',#2030,#1691,#1692);
#1350=AXIS2_PLACEMENT_3D('',#2032,#1693,#1694);
#1351=AXIS2_PLACEMENT_3D('',#2035,#1696,#1697);
#1352=AXIS2_PLACEMENT_3D('',#2036,#1698,#1699);
#1353=AXIS2_PLACEMENT_3D('',#2037,#1700,#1701);
#1354=AXIS2_PLACEMENT_3D('',#2038,#1702,#1703);
#1355=AXIS2_PLACEMENT_3D('',#2040,#1704,#1705);
#1356=AXIS2_PLACEMENT_3D('',#2043,#1707,#1708);
#1357=AXIS2_PLACEMENT_3D('',#2044,#1709,#1710);
#1358=AXIS2_PLACEMENT_3D('',#2046,#1711,#1712);
#1359=AXIS2_PLACEMENT_3D('',#2049,#1714,#1715);
#1360=AXIS2_PLACEMENT_3D('',#2050,#1716,#1717);
#1361=AXIS2_PLACEMENT_3D('',#2052,#1718,#1719);
#1362=AXIS2_PLACEMENT_3D('',#2055,#1721,#1722);
#1363=AXIS2_PLACEMENT_3D('',#2056,#1723,#1724);
#1364=AXIS2_PLACEMENT_3D('',#2058,#1725,#1726);
#1365=AXIS2_PLACEMENT_3D('',#2061,#1728,#1729);
#1366=AXIS2_PLACEMENT_3D('',#2062,#1730,#1731);
#1367=AXIS2_PLACEMENT_3D('',#2071,#1736,#1737);
#1368=AXIS2_PLACEMENT_3D('',#2077,#1741,#1742);
#1369=AXIS2_PLACEMENT_3D('',#2083,#1746,#1747);
#1370=AXIS2_PLACEMENT_3D('',#2086,#1750,#1751);
#1371=AXIS2_PLACEMENT_3D('',#2087,#1752,#1753);
#1372=DIRECTION('axis',(0.,0.,1.));
#1373=DIRECTION('refdir',(1.,0.,0.));
#1374=DIRECTION('center_axis',(1.,0.,0.));
#1375=DIRECTION('ref_axis',(0.,-1.,0.));
#1376=DIRECTION('',(0.,1.,0.));
#1377=DIRECTION('',(0.,0.,-1.));
#1378=DIRECTION('',(0.,-1.,0.));
#1379=DIRECTION('',(0.,0.,-1.));
#1380=DIRECTION('center_axis',(0.768221279597376,-0.64018439966448,0.));
#1381=DIRECTION('ref_axis',(-0.64018439966448,-0.768221279597376,0.));
#1382=DIRECTION('',(0.64018439966448,0.768221279597376,0.));
#1383=DIRECTION('',(-0.64018439966448,-0.768221279597376,0.));
#1384=DIRECTION('',(0.,0.,-1.));
#1385=DIRECTION('center_axis',(1.,0.,0.));
#1386=DIRECTION('ref_axis',(0.,-1.,0.));
#1387=DIRECTION('',(0.,1.,0.));
#1388=DIRECTION('',(0.,-1.,0.));
#1389=DIRECTION('',(0.,0.,-1.));
#1390=DIRECTION('center_axis',(0.,1.,0.));
#1391=DIRECTION('ref_axis',(1.,0.,0.));
#1392=DIRECTION('',(-1.,0.,0.));
#1393=DIRECTION('',(1.,0.,0.));
#1394=DIRECTION('',(0.,0.,-1.));
#1395=DIRECTION('center_axis',(-1.,-1.00929365875014E-16,0.));
#1396=DIRECTION('ref_axis',(-1.00929365875014E-16,1.,0.));
#1397=DIRECTION('',(1.00929365875014E-16,-1.,0.));
#1398=DIRECTION('',(-1.00929365875014E-16,1.,0.));
#1399=DIRECTION('',(0.,0.,-1.));
#1400=DIRECTION('center_axis',(0.,-1.,0.));
#1401=DIRECTION('ref_axis',(-1.,0.,0.));
#1402=DIRECTION('',(1.,0.,0.));
#1403=DIRECTION('',(-1.,0.,0.));
#1404=DIRECTION('center_axis',(0.,0.,-1.));
#1405=DIRECTION('ref_axis',(-1.,0.,0.));
#1406=DIRECTION('center_axis',(0.,-1.,0.));
#1407=DIRECTION('ref_axis',(1.,0.,0.));
#1408=DIRECTION('',(-1.,0.,0.));
#1409=DIRECTION('',(0.,0.,1.));
#1410=DIRECTION('',(1.,0.,0.));
#1411=DIRECTION('',(0.,0.,1.));
#1412=DIRECTION('center_axis',(-1.,0.,0.));
#1413=DIRECTION('ref_axis',(0.,-1.,0.));
#1414=DIRECTION('',(0.,1.,0.));
#1415=DIRECTION('',(0.,-1.,0.));
#1416=DIRECTION('',(0.,0.,1.));
#1417=DIRECTION('center_axis',(0.,1.,0.));
#1418=DIRECTION('ref_axis',(-1.,0.,0.));
#1419=DIRECTION('',(1.,0.,0.));
#1420=DIRECTION('',(-1.,0.,0.));
#1421=DIRECTION('',(0.,0.,1.));
#1422=DIRECTION('center_axis',(1.,0.,0.));
#1423=DIRECTION('ref_axis',(0.,1.,0.));
#1424=DIRECTION('',(0.,-1.,0.));
#1425=DIRECTION('',(0.,1.,0.));
#1426=DIRECTION('center_axis',(0.,0.,1.));
#1427=DIRECTION('ref_axis',(1.,0.,0.));
#1428=DIRECTION('center_axis',(0.,0.,1.));
#1429=DIRECTION('ref_axis',(1.,0.,0.));
#1430=DIRECTION('',(-1.,0.,0.));
#1431=DIRECTION('',(0.,1.,0.));
#1432=DIRECTION('',(1.,0.,0.));
#1433=DIRECTION('',(0.,-1.,0.));
#1434=DIRECTION('center_axis',(0.,0.,-1.));
#1435=DIRECTION('ref_axis',(1.,0.,0.));
#1436=DIRECTION('center_axis',(0.,0.,-1.));
#1437=DIRECTION('ref_axis',(1.,0.,0.));
#1438=DIRECTION('center_axis',(0.,0.,-1.));
#1439=DIRECTION('ref_axis',(1.,0.,0.));
#1440=DIRECTION('center_axis',(0.,0.,-1.));
#1441=DIRECTION('ref_axis',(1.,0.,0.));
#1442=DIRECTION('center_axis',(0.,0.,-1.));
#1443=DIRECTION('ref_axis',(1.,0.,0.));
#1444=DIRECTION('center_axis',(0.,0.,-1.));
#1445=DIRECTION('ref_axis',(1.,0.,0.));
#1446=DIRECTION('center_axis',(0.,0.,-1.));
#1447=DIRECTION('ref_axis',(1.,0.,0.));
#1448=DIRECTION('center_axis',(0.,0.,-1.));
#1449=DIRECTION('ref_axis',(1.,0.,0.));
#1450=DIRECTION('center_axis',(0.,0.,-1.));
#1451=DIRECTION('ref_axis',(1.,0.,0.));
#1452=DIRECTION('center_axis',(0.,0.,-1.));
#1453=DIRECTION('ref_axis',(1.,0.,0.));
#1454=DIRECTION('center_axis',(0.,0.,-1.));
#1455=DIRECTION('ref_axis',(1.,0.,0.));
#1456=DIRECTION('center_axis',(0.,0.,-1.));
#1457=DIRECTION('ref_axis',(1.,0.,0.));
#1458=DIRECTION('center_axis',(0.,0.,-1.));
#1459=DIRECTION('ref_axis',(1.,0.,0.));
#1460=DIRECTION('center_axis',(0.,0.,-1.));
#1461=DIRECTION('ref_axis',(1.,0.,0.));
#1462=DIRECTION('center_axis',(1.,0.,0.));
#1463=DIRECTION('ref_axis',(0.,-1.,0.));
#1464=DIRECTION('',(0.,1.,0.));
#1465=DIRECTION('',(0.,0.,-1.));
#1466=DIRECTION('',(0.,0.,-1.));
#1467=DIRECTION('center_axis',(0.,1.,0.));
#1468=DIRECTION('ref_axis',(1.,0.,0.));
#1469=DIRECTION('',(-1.,0.,0.));
#1470=DIRECTION('',(0.,0.,-1.));
#1471=DIRECTION('center_axis',(-1.,0.,0.));
#1472=DIRECTION('ref_axis',(0.,1.,0.));
#1473=DIRECTION('',(0.,-1.,0.));
#1474=DIRECTION('',(0.,0.,-1.));
#1475=DIRECTION('center_axis',(0.,-1.,0.));
#1476=DIRECTION('ref_axis',(-1.,0.,0.));
#1477=DIRECTION('',(1.,0.,0.));
#1478=DIRECTION('center_axis',(0.,0.,1.));
#1479=DIRECTION('ref_axis',(1.,0.,0.));
#1480=DIRECTION('',(0.,0.,-1.));
#1481=DIRECTION('center_axis',(0.,0.,-1.));
#1482=DIRECTION('ref_axis',(1.,0.,0.));
#1483=DIRECTION('center_axis',(0.,0.,1.));
#1484=DIRECTION('ref_axis',(1.,0.,0.));
#1485=DIRECTION('center_axis',(0.,0.,1.));
#1486=DIRECTION('ref_axis',(1.,0.,0.));
#1487=DIRECTION('',(0.,0.,-1.));
#1488=DIRECTION('center_axis',(0.,0.,-1.));
#1489=DIRECTION('ref_axis',(1.,0.,0.));
#1490=DIRECTION('center_axis',(0.,0.,1.));
#1491=DIRECTION('ref_axis',(1.,0.,0.));
#1492=DIRECTION('center_axis',(0.,0.,1.));
#1493=DIRECTION('ref_axis',(1.,0.,0.));
#1494=DIRECTION('center_axis',(0.,0.,1.));
#1495=DIRECTION('ref_axis',(1.,0.,0.));
#1496=DIRECTION('',(0.,0.,-1.));
#1497=DIRECTION('center_axis',(0.,0.,-1.));
#1498=DIRECTION('ref_axis',(1.,0.,0.));
#1499=DIRECTION('center_axis',(0.,0.,1.));
#1500=DIRECTION('ref_axis',(1.,0.,0.));
#1501=DIRECTION('center_axis',(0.,0.,1.));
#1502=DIRECTION('ref_axis',(1.,0.,0.));
#1503=DIRECTION('',(0.,0.,-1.));
#1504=DIRECTION('center_axis',(0.,0.,-1.));
#1505=DIRECTION('ref_axis',(1.,0.,0.));
#1506=DIRECTION('center_axis',(0.,0.,1.));
#1507=DIRECTION('ref_axis',(1.,0.,0.));
#1508=DIRECTION('center_axis',(0.,0.,1.));
#1509=DIRECTION('ref_axis',(1.,0.,0.));
#1510=DIRECTION('center_axis',(0.,0.,1.));
#1511=DIRECTION('ref_axis',(1.,0.,0.));
#1512=DIRECTION('',(0.,0.,-1.));
#1513=DIRECTION('center_axis',(0.,0.,-1.));
#1514=DIRECTION('ref_axis',(1.,0.,0.));
#1515=DIRECTION('center_axis',(0.,0.,1.));
#1516=DIRECTION('ref_axis',(1.,0.,0.));
#1517=DIRECTION('center_axis',(0.,0.,1.));
#1518=DIRECTION('ref_axis',(1.,0.,0.));
#1519=DIRECTION('',(0.,0.,-1.));
#1520=DIRECTION('center_axis',(0.,0.,-1.));
#1521=DIRECTION('ref_axis',(1.,0.,0.));
#1522=DIRECTION('center_axis',(0.,0.,1.));
#1523=DIRECTION('ref_axis',(1.,0.,0.));
#1524=DIRECTION('center_axis',(0.,0.,1.));
#1525=DIRECTION('ref_axis',(1.,0.,0.));
#1526=DIRECTION('center_axis',(0.,0.,1.));
#1527=DIRECTION('ref_axis',(1.,0.,0.));
#1528=DIRECTION('',(0.,0.,-1.));
#1529=DIRECTION('center_axis',(0.,0.,-1.));
#1530=DIRECTION('ref_axis',(1.,0.,0.));
#1531=DIRECTION('center_axis',(0.,0.,1.));
#1532=DIRECTION('ref_axis',(1.,0.,0.));
#1533=DIRECTION('center_axis',(0.,0.,1.));
#1534=DIRECTION('ref_axis',(1.,0.,0.));
#1535=DIRECTION('',(0.,0.,-1.));
#1536=DIRECTION('center_axis',(0.,0.,-1.));
#1537=DIRECTION('ref_axis',(1.,0.,0.));
#1538=DIRECTION('center_axis',(0.,0.,1.));
#1539=DIRECTION('ref_axis',(1.,0.,0.));
#1540=DIRECTION('center_axis',(0.,0.,1.));
#1541=DIRECTION('ref_axis',(1.,0.,0.));
#1542=DIRECTION('center_axis',(0.,0.,1.));
#1543=DIRECTION('ref_axis',(1.,0.,0.));
#1544=DIRECTION('',(0.,0.,-1.));
#1545=DIRECTION('center_axis',(0.,0.,-1.));
#1546=DIRECTION('ref_axis',(1.,0.,0.));
#1547=DIRECTION('center_axis',(0.,0.,1.));
#1548=DIRECTION('ref_axis',(1.,0.,0.));
#1549=DIRECTION('center_axis',(0.,0.,1.));
#1550=DIRECTION('ref_axis',(1.,0.,0.));
#1551=DIRECTION('',(0.,0.,-1.));
#1552=DIRECTION('center_axis',(0.,0.,-1.));
#1553=DIRECTION('ref_axis',(1.,0.,0.));
#1554=DIRECTION('center_axis',(0.,0.,1.));
#1555=DIRECTION('ref_axis',(1.,0.,0.));
#1556=DIRECTION('center_axis',(0.,0.,1.));
#1557=DIRECTION('ref_axis',(1.,0.,0.));
#1558=DIRECTION('center_axis',(0.,0.,1.));
#1559=DIRECTION('ref_axis',(1.,0.,0.));
#1560=DIRECTION('',(0.,0.,-1.));
#1561=DIRECTION('center_axis',(0.,0.,-1.));
#1562=DIRECTION('ref_axis',(1.,0.,0.));
#1563=DIRECTION('center_axis',(0.,0.,1.));
#1564=DIRECTION('ref_axis',(1.,0.,0.));
#1565=DIRECTION('center_axis',(0.,0.,1.));
#1566=DIRECTION('ref_axis',(1.,0.,0.));
#1567=DIRECTION('',(0.,0.,-1.));
#1568=DIRECTION('center_axis',(0.,0.,-1.));
#1569=DIRECTION('ref_axis',(1.,0.,0.));
#1570=DIRECTION('center_axis',(0.,0.,1.));
#1571=DIRECTION('ref_axis',(1.,0.,0.));
#1572=DIRECTION('center_axis',(0.,0.,1.));
#1573=DIRECTION('ref_axis',(1.,0.,0.));
#1574=DIRECTION('center_axis',(0.,0.,1.));
#1575=DIRECTION('ref_axis',(1.,0.,0.));
#1576=DIRECTION('',(0.,0.,-1.));
#1577=DIRECTION('center_axis',(0.,0.,-1.));
#1578=DIRECTION('ref_axis',(1.,0.,0.));
#1579=DIRECTION('center_axis',(0.,0.,1.));
#1580=DIRECTION('ref_axis',(1.,0.,0.));
#1581=DIRECTION('center_axis',(0.,0.,1.));
#1582=DIRECTION('ref_axis',(1.,0.,0.));
#1583=DIRECTION('',(0.,0.,-1.));
#1584=DIRECTION('center_axis',(0.,0.,-1.));
#1585=DIRECTION('ref_axis',(1.,0.,0.));
#1586=DIRECTION('center_axis',(0.,0.,1.));
#1587=DIRECTION('ref_axis',(1.,0.,0.));
#1588=DIRECTION('center_axis',(0.,0.,1.));
#1589=DIRECTION('ref_axis',(1.,0.,0.));
#1590=DIRECTION('center_axis',(0.,0.,1.));
#1591=DIRECTION('ref_axis',(1.,0.,0.));
#1592=DIRECTION('',(0.,0.,-1.));
#1593=DIRECTION('center_axis',(0.,0.,-1.));
#1594=DIRECTION('ref_axis',(1.,0.,0.));
#1595=DIRECTION('center_axis',(0.,0.,1.));
#1596=DIRECTION('ref_axis',(1.,0.,0.));
#1597=DIRECTION('center_axis',(0.,0.,1.));
#1598=DIRECTION('ref_axis',(1.,0.,0.));
#1599=DIRECTION('',(0.,0.,-1.));
#1600=DIRECTION('center_axis',(0.,0.,-1.));
#1601=DIRECTION('ref_axis',(1.,0.,0.));
#1602=DIRECTION('center_axis',(0.,0.,1.));
#1603=DIRECTION('ref_axis',(1.,0.,0.));
#1604=DIRECTION('center_axis',(0.,0.,1.));
#1605=DIRECTION('ref_axis',(1.,0.,0.));
#1606=DIRECTION('center_axis',(0.,0.,1.));
#1607=DIRECTION('ref_axis',(1.,0.,0.));
#1608=DIRECTION('',(0.,0.,-1.));
#1609=DIRECTION('center_axis',(0.,0.,-1.));
#1610=DIRECTION('ref_axis',(1.,0.,0.));
#1611=DIRECTION('center_axis',(0.,0.,1.));
#1612=DIRECTION('ref_axis',(1.,0.,0.));
#1613=DIRECTION('center_axis',(0.,0.,1.));
#1614=DIRECTION('ref_axis',(1.,0.,0.));
#1615=DIRECTION('',(0.,0.,-1.));
#1616=DIRECTION('center_axis',(0.,0.,-1.));
#1617=DIRECTION('ref_axis',(1.,0.,0.));
#1618=DIRECTION('center_axis',(0.,0.,1.));
#1619=DIRECTION('ref_axis',(1.,0.,0.));
#1620=DIRECTION('center_axis',(0.,0.,1.));
#1621=DIRECTION('ref_axis',(1.,0.,0.));
#1622=DIRECTION('center_axis',(0.,0.,1.));
#1623=DIRECTION('ref_axis',(1.,0.,0.));
#1624=DIRECTION('',(0.,0.,-1.));
#1625=DIRECTION('center_axis',(0.,0.,-1.));
#1626=DIRECTION('ref_axis',(1.,0.,0.));
#1627=DIRECTION('center_axis',(0.,0.,1.));
#1628=DIRECTION('ref_axis',(1.,0.,0.));
#1629=DIRECTION('center_axis',(0.,0.,1.));
#1630=DIRECTION('ref_axis',(1.,0.,0.));
#1631=DIRECTION('',(0.,0.,-1.));
#1632=DIRECTION('center_axis',(0.,0.,-1.));
#1633=DIRECTION('ref_axis',(1.,0.,0.));
#1634=DIRECTION('center_axis',(0.,0.,1.));
#1635=DIRECTION('ref_axis',(1.,0.,0.));
#1636=DIRECTION('center_axis',(0.,0.,1.));
#1637=DIRECTION('ref_axis',(1.,0.,0.));
#1638=DIRECTION('center_axis',(0.,0.,1.));
#1639=DIRECTION('ref_axis',(1.,0.,0.));
#1640=DIRECTION('',(0.,0.,-1.));
#1641=DIRECTION('center_axis',(0.,0.,-1.));
#1642=DIRECTION('ref_axis',(1.,0.,0.));
#1643=DIRECTION('center_axis',(0.,0.,1.));
#1644=DIRECTION('ref_axis',(1.,0.,0.));
#1645=DIRECTION('center_axis',(0.,0.,1.));
#1646=DIRECTION('ref_axis',(1.,0.,0.));
#1647=DIRECTION('',(0.,0.,-1.));
#1648=DIRECTION('center_axis',(0.,0.,-1.));
#1649=DIRECTION('ref_axis',(1.,0.,0.));
#1650=DIRECTION('center_axis',(0.,0.,1.));
#1651=DIRECTION('ref_axis',(1.,0.,0.));
#1652=DIRECTION('center_axis',(0.,0.,1.));
#1653=DIRECTION('ref_axis',(1.,0.,0.));
#1654=DIRECTION('center_axis',(0.,0.,1.));
#1655=DIRECTION('ref_axis',(1.,0.,0.));
#1656=DIRECTION('',(0.,0.,-1.));
#1657=DIRECTION('center_axis',(0.,0.,-1.));
#1658=DIRECTION('ref_axis',(1.,0.,0.));
#1659=DIRECTION('center_axis',(0.,0.,1.));
#1660=DIRECTION('ref_axis',(1.,0.,0.));
#1661=DIRECTION('center_axis',(0.,0.,1.));
#1662=DIRECTION('ref_axis',(1.,0.,0.));
#1663=DIRECTION('',(0.,0.,-1.));
#1664=DIRECTION('center_axis',(0.,0.,-1.));
#1665=DIRECTION('ref_axis',(1.,0.,0.));
#1666=DIRECTION('center_axis',(0.,0.,1.));
#1667=DIRECTION('ref_axis',(1.,0.,0.));
#1668=DIRECTION('center_axis',(0.,0.,1.));
#1669=DIRECTION('ref_axis',(1.,0.,0.));
#1670=DIRECTION('center_axis',(0.,0.,1.));
#1671=DIRECTION('ref_axis',(1.,0.,0.));
#1672=DIRECTION('',(0.,0.,-1.));
#1673=DIRECTION('center_axis',(0.,0.,-1.));
#1674=DIRECTION('ref_axis',(1.,0.,0.));
#1675=DIRECTION('center_axis',(0.,0.,1.));
#1676=DIRECTION('ref_axis',(1.,0.,0.));
#1677=DIRECTION('center_axis',(0.,0.,1.));
#1678=DIRECTION('ref_axis',(1.,0.,0.));
#1679=DIRECTION('',(0.,0.,-1.));
#1680=DIRECTION('center_axis',(0.,0.,-1.));
#1681=DIRECTION('ref_axis',(1.,0.,0.));
#1682=DIRECTION('center_axis',(0.,0.,1.));
#1683=DIRECTION('ref_axis',(1.,0.,0.));
#1684=DIRECTION('center_axis',(0.,0.,1.));
#1685=DIRECTION('ref_axis',(1.,0.,0.));
#1686=DIRECTION('center_axis',(0.,0.,1.));
#1687=DIRECTION('ref_axis',(1.,0.,0.));
#1688=DIRECTION('',(0.,0.,-1.));
#1689=DIRECTION('center_axis',(0.,0.,-1.));
#1690=DIRECTION('ref_axis',(1.,0.,0.));
#1691=DIRECTION('center_axis',(0.,0.,1.));
#1692=DIRECTION('ref_axis',(1.,0.,0.));
#1693=DIRECTION('center_axis',(0.,0.,1.));
#1694=DIRECTION('ref_axis',(1.,0.,0.));
#1695=DIRECTION('',(0.,0.,-1.));
#1696=DIRECTION('center_axis',(0.,0.,-1.));
#1697=DIRECTION('ref_axis',(1.,0.,0.));
#1698=DIRECTION('center_axis',(0.,0.,1.));
#1699=DIRECTION('ref_axis',(1.,0.,0.));
#1700=DIRECTION('center_axis',(0.,0.,1.));
#1701=DIRECTION('ref_axis',(1.,0.,0.));
#1702=DIRECTION('center_axis',(0.,0.,1.));
#1703=DIRECTION('ref_axis',(1.,0.,0.));
#1704=DIRECTION('center_axis',(0.,0.,-1.));
#1705=DIRECTION('ref_axis',(1.,0.,0.));
#1706=DIRECTION('',(0.,0.,-1.));
#1707=DIRECTION('center_axis',(0.,0.,-1.));
#1708=DIRECTION('ref_axis',(1.,0.,0.));
#1709=DIRECTION('center_axis',(0.,0.,1.));
#1710=DIRECTION('ref_axis',(1.,0.,0.));
#1711=DIRECTION('center_axis',(0.,0.,-1.));
#1712=DIRECTION('ref_axis',(1.,0.,0.));
#1713=DIRECTION('',(0.,0.,-1.));
#1714=DIRECTION('center_axis',(0.,0.,-1.));
#1715=DIRECTION('ref_axis',(1.,0.,0.));
#1716=DIRECTION('center_axis',(0.,0.,1.));
#1717=DIRECTION('ref_axis',(1.,0.,0.));
#1718=DIRECTION('center_axis',(0.,0.,-1.));
#1719=DIRECTION('ref_axis',(1.,0.,0.));
#1720=DIRECTION('',(0.,0.,-1.));
#1721=DIRECTION('center_axis',(0.,0.,-1.));
#1722=DIRECTION('ref_axis',(1.,0.,0.));
#1723=DIRECTION('center_axis',(0.,0.,1.));
#1724=DIRECTION('ref_axis',(1.,0.,0.));
#1725=DIRECTION('center_axis',(0.,0.,-1.));
#1726=DIRECTION('ref_axis',(1.,0.,0.));
#1727=DIRECTION('',(0.,0.,-1.));
#1728=DIRECTION('center_axis',(0.,0.,-1.));
#1729=DIRECTION('ref_axis',(1.,0.,0.));
#1730=DIRECTION('center_axis',(1.,0.,0.));
#1731=DIRECTION('ref_axis',(0.,1.,0.));
#1732=DIRECTION('',(0.,-1.,0.));
#1733=DIRECTION('',(0.,0.,1.));
#1734=DIRECTION('',(0.,1.,0.));
#1735=DIRECTION('',(0.,0.,1.));
#1736=DIRECTION('center_axis',(0.,-1.,0.));
#1737=DIRECTION('ref_axis',(1.,0.,0.));
#1738=DIRECTION('',(-1.,0.,0.));
#1739=DIRECTION('',(1.,0.,0.));
#1740=DIRECTION('',(0.,0.,1.));
#1741=DIRECTION('center_axis',(-1.,0.,0.));
#1742=DIRECTION('ref_axis',(0.,-1.,0.));
#1743=DIRECTION('',(0.,1.,0.));
#1744=DIRECTION('',(0.,-1.,0.));
#1745=DIRECTION('',(0.,0.,1.));
#1746=DIRECTION('center_axis',(0.,1.,0.));
#1747=DIRECTION('ref_axis',(-1.,0.,0.));
#1748=DIRECTION('',(1.,0.,0.));
#1749=DIRECTION('',(-1.,0.,0.));
#1750=DIRECTION('center_axis',(0.,0.,1.));
#1751=DIRECTION('ref_axis',(1.,0.,0.));
#1752=DIRECTION('center_axis',(0.,0.,1.));
#1753=DIRECTION('ref_axis',(1.,0.,0.));
#1754=CARTESIAN_POINT('',(0.,0.,0.));
#1755=CARTESIAN_POINT('Origin',(2.75,1.49,0.));
#1756=CARTESIAN_POINT('',(2.75,0.94,0.));
#1757=CARTESIAN_POINT('',(2.75,1.49,0.));
#1758=CARTESIAN_POINT('',(2.75,0.745,0.));
#1759=CARTESIAN_POINT('',(2.75,0.94,-0.285));
#1760=CARTESIAN_POINT('',(2.75,0.94,0.));
#1761=CARTESIAN_POINT('',(2.75,1.49,-0.285));
#1762=CARTESIAN_POINT('',(2.75,0.94,-0.285));
#1763=CARTESIAN_POINT('',(2.75,1.49,0.));
#1764=CARTESIAN_POINT('Origin',(3.,1.79,0.));
#1765=CARTESIAN_POINT('',(3.,1.79,0.));
#1766=CARTESIAN_POINT('',(1.94508196721311,0.524098360655738,0.));
#1767=CARTESIAN_POINT('',(3.,1.79,-0.285));
#1768=CARTESIAN_POINT('',(2.75,1.49,-0.285));
#1769=CARTESIAN_POINT('',(3.,1.79,0.));
#1770=CARTESIAN_POINT('Origin',(3.,2.59,0.));
#1771=CARTESIAN_POINT('',(3.,2.59,0.));
#1772=CARTESIAN_POINT('',(3.,1.295,0.));
#1773=CARTESIAN_POINT('',(3.,2.59,-0.285));
#1774=CARTESIAN_POINT('',(3.,2.59,-0.285));
#1775=CARTESIAN_POINT('',(3.,2.59,0.));
#1776=CARTESIAN_POINT('Origin',(0.35,2.59,0.));
#1777=CARTESIAN_POINT('',(0.35,2.59,0.));
#1778=CARTESIAN_POINT('',(0.175,2.59,0.));
#1779=CARTESIAN_POINT('',(0.350000000000001,2.59,-0.285));
#1780=CARTESIAN_POINT('',(0.35,2.59,-0.285));
#1781=CARTESIAN_POINT('',(0.35,2.59,0.));
#1782=CARTESIAN_POINT('Origin',(0.350000000000001,0.94,0.));
#1783=CARTESIAN_POINT('',(0.350000000000001,0.94,0.));
#1784=CARTESIAN_POINT('',(0.350000000000001,0.47,0.));
#1785=CARTESIAN_POINT('',(0.350000000000001,0.94,-0.285));
#1786=CARTESIAN_POINT('',(0.350000000000001,0.94,-0.285));
#1787=CARTESIAN_POINT('',(0.350000000000001,0.94,0.));
#1788=CARTESIAN_POINT('Origin',(2.75,0.94,0.));
#1789=CARTESIAN_POINT('',(1.375,0.94,0.));
#1790=CARTESIAN_POINT('',(3.,0.94,-0.285));
#1791=CARTESIAN_POINT('Origin',(1.675,1.765,-0.285));
#1792=CARTESIAN_POINT('Origin',(-4.255,-2.775,0.165));
#1793=CARTESIAN_POINT('',(4.24,-2.775,0.165));
#1794=CARTESIAN_POINT('',(-4.255,-2.775,0.165));
#1795=CARTESIAN_POINT('',(-2.1275,-2.775,0.165));
#1796=CARTESIAN_POINT('',(4.24,-2.775,0.59));
#1797=CARTESIAN_POINT('',(4.24,-2.775,0.165));
#1798=CARTESIAN_POINT('',(-4.255,-2.775,0.59));
#1799=CARTESIAN_POINT('',(-4.255,-2.775,0.59));
#1800=CARTESIAN_POINT('',(-4.255,-2.775,0.165));
#1801=CARTESIAN_POINT('Origin',(-4.255,2.775,0.165));
#1802=CARTESIAN_POINT('',(-4.255,2.775,0.165));
#1803=CARTESIAN_POINT('',(-4.255,1.3875,0.165));
#1804=CARTESIAN_POINT('',(-4.255,2.775,0.59));
#1805=CARTESIAN_POINT('',(-4.255,2.775,0.59));
#1806=CARTESIAN_POINT('',(-4.255,2.775,0.165));
#1807=CARTESIAN_POINT('Origin',(4.24,2.775,0.165));
#1808=CARTESIAN_POINT('',(4.24,2.775,0.165));
#1809=CARTESIAN_POINT('',(2.12,2.775,0.165));
#1810=CARTESIAN_POINT('',(4.24,2.775,0.59));
#1811=CARTESIAN_POINT('',(4.24,2.775,0.59));
#1812=CARTESIAN_POINT('',(4.24,2.775,0.165));
#1813=CARTESIAN_POINT('Origin',(4.24,-2.775,0.165));
#1814=CARTESIAN_POINT('',(4.24,-1.3875,0.165));
#1815=CARTESIAN_POINT('',(4.24,-2.775,0.59));
#1816=CARTESIAN_POINT('Origin',(-0.00750000000000028,-8.88178419700125E-16,
0.59));
#1817=CARTESIAN_POINT('Origin',(-4.675,0.05,-0.225));
#1818=CARTESIAN_POINT('',(-4.55,-1.725,-0.225));
#1819=CARTESIAN_POINT('',(-4.8,-1.725,-0.225));
#1820=CARTESIAN_POINT('',(-4.55,-1.725,-0.225));
#1821=CARTESIAN_POINT('',(-4.8,1.825,-0.225));
#1822=CARTESIAN_POINT('',(-4.8,-1.725,-0.225));
#1823=CARTESIAN_POINT('',(-4.55,1.825,-0.225));
#1824=CARTESIAN_POINT('',(-4.8,1.825,-0.225));
#1825=CARTESIAN_POINT('',(-4.55,1.825,-0.225));
#1826=CARTESIAN_POINT('',(-4.725,1.725,-0.225));
#1827=CARTESIAN_POINT('Origin',(-4.675,1.725,-0.225));
#1828=CARTESIAN_POINT('',(-4.725,1.475,-0.225));
#1829=CARTESIAN_POINT('Origin',(-4.675,1.475,-0.225));
#1830=CARTESIAN_POINT('',(-4.725,1.225,-0.225));
#1831=CARTESIAN_POINT('Origin',(-4.675,1.225,-0.225));
#1832=CARTESIAN_POINT('',(-4.725,0.975,-0.225));
#1833=CARTESIAN_POINT('Origin',(-4.675,0.975,-0.225));
#1834=CARTESIAN_POINT('',(-4.725,0.725,-0.225));
#1835=CARTESIAN_POINT('Origin',(-4.675,0.725,-0.225));
#1836=CARTESIAN_POINT('',(-4.725,0.475,-0.225));
#1837=CARTESIAN_POINT('Origin',(-4.675,0.475,-0.225));
#1838=CARTESIAN_POINT('',(-4.725,0.225,-0.225));
#1839=CARTESIAN_POINT('Origin',(-4.675,0.225,-0.225));
#1840=CARTESIAN_POINT('',(-4.725,-0.0249999999999999,-0.225));
#1841=CARTESIAN_POINT('Origin',(-4.675,-0.0249999999999999,-0.225));
#1842=CARTESIAN_POINT('',(-4.725,-0.275,-0.225));
#1843=CARTESIAN_POINT('Origin',(-4.675,-0.275,-0.225));
#1844=CARTESIAN_POINT('',(-4.725,-0.525,-0.225));
#1845=CARTESIAN_POINT('Origin',(-4.675,-0.525,-0.225));
#1846=CARTESIAN_POINT('',(-4.725,-0.775,-0.225));
#1847=CARTESIAN_POINT('Origin',(-4.675,-0.775,-0.225));
#1848=CARTESIAN_POINT('',(-4.725,-1.025,-0.225));
#1849=CARTESIAN_POINT('Origin',(-4.675,-1.025,-0.225));
#1850=CARTESIAN_POINT('',(-4.725,-1.275,-0.225));
#1851=CARTESIAN_POINT('Origin',(-4.675,-1.275,-0.225));
#1852=CARTESIAN_POINT('',(-4.725,-1.525,-0.225));
#1853=CARTESIAN_POINT('Origin',(-4.675,-1.525,-0.225));
#1854=CARTESIAN_POINT('Origin',(-4.55,1.825,0.));
#1855=CARTESIAN_POINT('',(-4.55,-1.725,0.));
#1856=CARTESIAN_POINT('',(-4.55,1.825,0.));
#1857=CARTESIAN_POINT('',(-4.55,0.9125,0.));
#1858=CARTESIAN_POINT('',(-4.55,-1.725,0.));
#1859=CARTESIAN_POINT('',(-4.55,1.825,0.));
#1860=CARTESIAN_POINT('Origin',(-4.8,1.825,0.));
#1861=CARTESIAN_POINT('',(-4.8,1.825,0.));
#1862=CARTESIAN_POINT('',(-2.4,1.825,0.));
#1863=CARTESIAN_POINT('',(-4.8,1.825,0.));
#1864=CARTESIAN_POINT('Origin',(-4.8,-1.725,0.));
#1865=CARTESIAN_POINT('',(-4.8,-1.725,0.));
#1866=CARTESIAN_POINT('',(-4.8,-0.8625,0.));
#1867=CARTESIAN_POINT('',(-4.8,-1.725,0.));
#1868=CARTESIAN_POINT('Origin',(-4.55,-1.725,0.));
#1869=CARTESIAN_POINT('',(-2.275,-1.725,0.));
#1870=CARTESIAN_POINT('Origin',(-4.675,-1.525,0.));
#1871=CARTESIAN_POINT('',(-4.725,-1.525,-0.825));
#1872=CARTESIAN_POINT('',(-4.725,-1.525,0.));
#1873=CARTESIAN_POINT('Origin',(-4.675,-1.525,-0.825));
#1874=CARTESIAN_POINT('Origin',(-4.675,-1.525,0.));
#1875=CARTESIAN_POINT('',(-4.725,-1.525,0.28));
#1876=CARTESIAN_POINT('Origin',(-4.675,-1.525,0.28));
#1877=CARTESIAN_POINT('',(-4.725,-1.525,0.165));
#1878=CARTESIAN_POINT('',(-4.725,-1.525,0.));
#1879=CARTESIAN_POINT('Origin',(-4.675,-1.525,0.165));
#1880=CARTESIAN_POINT('Origin',(-4.675,-1.525,-0.825));
#1881=CARTESIAN_POINT('Origin',(-4.675,-1.525,0.28));
#1882=CARTESIAN_POINT('Origin',(-4.675,-1.275,0.));
#1883=CARTESIAN_POINT('',(-4.725,-1.275,-0.825));
#1884=CARTESIAN_POINT('',(-4.725,-1.275,0.));
#1885=CARTESIAN_POINT('Origin',(-4.675,-1.275,-0.825));
#1886=CARTESIAN_POINT('Origin',(-4.675,-1.275,0.));
#1887=CARTESIAN_POINT('',(-4.725,-1.275,0.28));
#1888=CARTESIAN_POINT('Origin',(-4.675,-1.275,0.28));
#1889=CARTESIAN_POINT('',(-4.725,-1.275,0.165));
#1890=CARTESIAN_POINT('',(-4.725,-1.275,0.));
#1891=CARTESIAN_POINT('Origin',(-4.675,-1.275,0.165));
#1892=CARTESIAN_POINT('Origin',(-4.675,-1.275,-0.825));
#1893=CARTESIAN_POINT('Origin',(-4.675,-1.275,0.28));
#1894=CARTESIAN_POINT('Origin',(-4.675,-1.025,0.));
#1895=CARTESIAN_POINT('',(-4.725,-1.025,-0.825));
#1896=CARTESIAN_POINT('',(-4.725,-1.025,0.));
#1897=CARTESIAN_POINT('Origin',(-4.675,-1.025,-0.825));
#1898=CARTESIAN_POINT('Origin',(-4.675,-1.025,0.));
#1899=CARTESIAN_POINT('',(-4.725,-1.025,0.28));
#1900=CARTESIAN_POINT('Origin',(-4.675,-1.025,0.28));
#1901=CARTESIAN_POINT('',(-4.725,-1.025,0.165));
#1902=CARTESIAN_POINT('',(-4.725,-1.025,0.));
#1903=CARTESIAN_POINT('Origin',(-4.675,-1.025,0.165));
#1904=CARTESIAN_POINT('Origin',(-4.675,-1.025,-0.825));
#1905=CARTESIAN_POINT('Origin',(-4.675,-1.025,0.28));
#1906=CARTESIAN_POINT('Origin',(-4.675,-0.775,0.));
#1907=CARTESIAN_POINT('',(-4.725,-0.775,-0.825));
#1908=CARTESIAN_POINT('',(-4.725,-0.775,0.));
#1909=CARTESIAN_POINT('Origin',(-4.675,-0.775,-0.825));
#1910=CARTESIAN_POINT('Origin',(-4.675,-0.775,0.));
#1911=CARTESIAN_POINT('',(-4.725,-0.775,0.28));
#1912=CARTESIAN_POINT('Origin',(-4.675,-0.775,0.28));
#1913=CARTESIAN_POINT('',(-4.725,-0.775,0.165));
#1914=CARTESIAN_POINT('',(-4.725,-0.775,0.));
#1915=CARTESIAN_POINT('Origin',(-4.675,-0.775,0.165));
#1916=CARTESIAN_POINT('Origin',(-4.675,-0.775,-0.825));
#1917=CARTESIAN_POINT('Origin',(-4.675,-0.775,0.28));
#1918=CARTESIAN_POINT('Origin',(-4.675,-0.525,0.));
#1919=CARTESIAN_POINT('',(-4.725,-0.525,-0.825));
#1920=CARTESIAN_POINT('',(-4.725,-0.525,0.));
#1921=CARTESIAN_POINT('Origin',(-4.675,-0.525,-0.825));
#1922=CARTESIAN_POINT('Origin',(-4.675,-0.525,0.));
#1923=CARTESIAN_POINT('',(-4.725,-0.525,0.28));
#1924=CARTESIAN_POINT('Origin',(-4.675,-0.525,0.28));
#1925=CARTESIAN_POINT('',(-4.725,-0.525,0.165));
#1926=CARTESIAN_POINT('',(-4.725,-0.525,0.));
#1927=CARTESIAN_POINT('Origin',(-4.675,-0.525,0.165));
#1928=CARTESIAN_POINT('Origin',(-4.675,-0.525,-0.825));
#1929=CARTESIAN_POINT('Origin',(-4.675,-0.525,0.28));
#1930=CARTESIAN_POINT('Origin',(-4.675,-0.275,0.));
#1931=CARTESIAN_POINT('',(-4.725,-0.275,-0.825));
#1932=CARTESIAN_POINT('',(-4.725,-0.275,0.));
#1933=CARTESIAN_POINT('Origin',(-4.675,-0.275,-0.825));
#1934=CARTESIAN_POINT('Origin',(-4.675,-0.275,0.));
#1935=CARTESIAN_POINT('',(-4.725,-0.275,0.28));
#1936=CARTESIAN_POINT('Origin',(-4.675,-0.275,0.28));
#1937=CARTESIAN_POINT('',(-4.725,-0.275,0.165));
#1938=CARTESIAN_POINT('',(-4.725,-0.275,0.));
#1939=CARTESIAN_POINT('Origin',(-4.675,-0.275,0.165));
#1940=CARTESIAN_POINT('Origin',(-4.675,-0.275,-0.825));
#1941=CARTESIAN_POINT('Origin',(-4.675,-0.275,0.28));
#1942=CARTESIAN_POINT('Origin',(-4.675,-0.0249999999999999,0.));
#1943=CARTESIAN_POINT('',(-4.725,-0.0249999999999999,-0.825));
#1944=CARTESIAN_POINT('',(-4.725,-0.0249999999999999,0.));
#1945=CARTESIAN_POINT('Origin',(-4.675,-0.0249999999999999,-0.825));
#1946=CARTESIAN_POINT('Origin',(-4.675,-0.0249999999999999,0.));
#1947=CARTESIAN_POINT('',(-4.725,-0.0249999999999999,0.28));
#1948=CARTESIAN_POINT('Origin',(-4.675,-0.0249999999999999,0.28));
#1949=CARTESIAN_POINT('',(-4.725,-0.0249999999999999,0.165));
#1950=CARTESIAN_POINT('',(-4.725,-0.0249999999999999,0.));
#1951=CARTESIAN_POINT('Origin',(-4.675,-0.0249999999999999,0.165));
#1952=CARTESIAN_POINT('Origin',(-4.675,-0.0249999999999999,-0.825));
#1953=CARTESIAN_POINT('Origin',(-4.675,-0.0249999999999999,0.28));
#1954=CARTESIAN_POINT('Origin',(-4.675,0.225,0.));
#1955=CARTESIAN_POINT('',(-4.725,0.225,-0.825));
#1956=CARTESIAN_POINT('',(-4.725,0.225,0.));
#1957=CARTESIAN_POINT('Origin',(-4.675,0.225,-0.825));
#1958=CARTESIAN_POINT('Origin',(-4.675,0.225,0.));
#1959=CARTESIAN_POINT('',(-4.725,0.225,0.28));
#1960=CARTESIAN_POINT('Origin',(-4.675,0.225,0.28));
#1961=CARTESIAN_POINT('',(-4.725,0.225,0.165));
#1962=CARTESIAN_POINT('',(-4.725,0.225,0.));
#1963=CARTESIAN_POINT('Origin',(-4.675,0.225,0.165));
#1964=CARTESIAN_POINT('Origin',(-4.675,0.225,-0.825));
#1965=CARTESIAN_POINT('Origin',(-4.675,0.225,0.28));
#1966=CARTESIAN_POINT('Origin',(-4.675,0.475,0.));
#1967=CARTESIAN_POINT('',(-4.725,0.475,-0.825));
#1968=CARTESIAN_POINT('',(-4.725,0.475,0.));
#1969=CARTESIAN_POINT('Origin',(-4.675,0.475,-0.825));
#1970=CARTESIAN_POINT('Origin',(-4.675,0.475,0.));
#1971=CARTESIAN_POINT('',(-4.725,0.475,0.28));
#1972=CARTESIAN_POINT('Origin',(-4.675,0.475,0.28));
#1973=CARTESIAN_POINT('',(-4.725,0.475,0.165));
#1974=CARTESIAN_POINT('',(-4.725,0.475,0.));
#1975=CARTESIAN_POINT('Origin',(-4.675,0.475,0.165));
#1976=CARTESIAN_POINT('Origin',(-4.675,0.475,-0.825));
#1977=CARTESIAN_POINT('Origin',(-4.675,0.475,0.28));
#1978=CARTESIAN_POINT('Origin',(-4.675,0.725,0.));
#1979=CARTESIAN_POINT('',(-4.725,0.725,-0.825));
#1980=CARTESIAN_POINT('',(-4.725,0.725,0.));
#1981=CARTESIAN_POINT('Origin',(-4.675,0.725,-0.825));
#1982=CARTESIAN_POINT('Origin',(-4.675,0.725,0.));
#1983=CARTESIAN_POINT('',(-4.725,0.725,0.28));
#1984=CARTESIAN_POINT('Origin',(-4.675,0.725,0.28));
#1985=CARTESIAN_POINT('',(-4.725,0.725,0.165));
#1986=CARTESIAN_POINT('',(-4.725,0.725,0.));
#1987=CARTESIAN_POINT('Origin',(-4.675,0.725,0.165));
#1988=CARTESIAN_POINT('Origin',(-4.675,0.725,-0.825));
#1989=CARTESIAN_POINT('Origin',(-4.675,0.725,0.28));
#1990=CARTESIAN_POINT('Origin',(-4.675,0.975,0.));
#1991=CARTESIAN_POINT('',(-4.725,0.975,-0.825));
#1992=CARTESIAN_POINT('',(-4.725,0.975,0.));
#1993=CARTESIAN_POINT('Origin',(-4.675,0.975,-0.825));
#1994=CARTESIAN_POINT('Origin',(-4.675,0.975,0.));
#1995=CARTESIAN_POINT('',(-4.725,0.975,0.28));
#1996=CARTESIAN_POINT('Origin',(-4.675,0.975,0.28));
#1997=CARTESIAN_POINT('',(-4.725,0.975,0.165));
#1998=CARTESIAN_POINT('',(-4.725,0.975,0.));
#1999=CARTESIAN_POINT('Origin',(-4.675,0.975,0.165));
#2000=CARTESIAN_POINT('Origin',(-4.675,0.975,-0.825));
#2001=CARTESIAN_POINT('Origin',(-4.675,0.975,0.28));
#2002=CARTESIAN_POINT('Origin',(-4.675,1.225,0.));
#2003=CARTESIAN_POINT('',(-4.725,1.225,-0.825));
#2004=CARTESIAN_POINT('',(-4.725,1.225,0.));
#2005=CARTESIAN_POINT('Origin',(-4.675,1.225,-0.825));
#2006=CARTESIAN_POINT('Origin',(-4.675,1.225,0.));
#2007=CARTESIAN_POINT('',(-4.725,1.225,0.28));
#2008=CARTESIAN_POINT('Origin',(-4.675,1.225,0.28));
#2009=CARTESIAN_POINT('',(-4.725,1.225,0.165));
#2010=CARTESIAN_POINT('',(-4.725,1.225,0.));
#2011=CARTESIAN_POINT('Origin',(-4.675,1.225,0.165));
#2012=CARTESIAN_POINT('Origin',(-4.675,1.225,-0.825));
#2013=CARTESIAN_POINT('Origin',(-4.675,1.225,0.28));
#2014=CARTESIAN_POINT('Origin',(-4.675,1.475,0.));
#2015=CARTESIAN_POINT('',(-4.725,1.475,-0.825));
#2016=CARTESIAN_POINT('',(-4.725,1.475,0.));
#2017=CARTESIAN_POINT('Origin',(-4.675,1.475,-0.825));
#2018=CARTESIAN_POINT('Origin',(-4.675,1.475,0.));
#2019=CARTESIAN_POINT('',(-4.725,1.475,0.28));
#2020=CARTESIAN_POINT('Origin',(-4.675,1.475,0.28));
#2021=CARTESIAN_POINT('',(-4.725,1.475,0.165));
#2022=CARTESIAN_POINT('',(-4.725,1.475,0.));
#2023=CARTESIAN_POINT('Origin',(-4.675,1.475,0.165));
#2024=CARTESIAN_POINT('Origin',(-4.675,1.475,-0.825));
#2025=CARTESIAN_POINT('Origin',(-4.675,1.475,0.28));
#2026=CARTESIAN_POINT('Origin',(-4.675,1.725,0.));
#2027=CARTESIAN_POINT('',(-4.725,1.725,-0.825));
#2028=CARTESIAN_POINT('',(-4.725,1.725,0.));
#2029=CARTESIAN_POINT('Origin',(-4.675,1.725,-0.825));
#2030=CARTESIAN_POINT('Origin',(-4.675,1.725,0.));
#2031=CARTESIAN_POINT('',(-4.725,1.725,0.28));
#2032=CARTESIAN_POINT('Origin',(-4.675,1.725,0.28));
#2033=CARTESIAN_POINT('',(-4.725,1.725,0.165));
#2034=CARTESIAN_POINT('',(-4.725,1.725,0.));
#2035=CARTESIAN_POINT('Origin',(-4.675,1.725,0.165));
#2036=CARTESIAN_POINT('Origin',(-4.675,1.725,-0.825));
#2037=CARTESIAN_POINT('Origin',(-4.675,1.725,0.28));
#2038=CARTESIAN_POINT('Origin',(-4.55,-2.475,0.));
#2039=CARTESIAN_POINT('',(-4.7,-2.475,0.165));
#2040=CARTESIAN_POINT('Origin',(-4.55,-2.475,0.165));
#2041=CARTESIAN_POINT('',(-4.7,-2.475,0.));
#2042=CARTESIAN_POINT('',(-4.7,-2.475,0.));
#2043=CARTESIAN_POINT('Origin',(-4.55,-2.475,0.));
#2044=CARTESIAN_POINT('Origin',(4.55,2.475,0.));
#2045=CARTESIAN_POINT('',(4.4,2.475,0.165));
#2046=CARTESIAN_POINT('Origin',(4.55,2.475,0.165));
#2047=CARTESIAN_POINT('',(4.4,2.475,0.));
#2048=CARTESIAN_POINT('',(4.4,2.475,0.));
#2049=CARTESIAN_POINT('Origin',(4.55,2.475,0.));
#2050=CARTESIAN_POINT('Origin',(4.55,-2.475,0.));
#2051=CARTESIAN_POINT('',(4.4,-2.475,0.165));
#2052=CARTESIAN_POINT('Origin',(4.55,-2.475,0.165));
#2053=CARTESIAN_POINT('',(4.4,-2.475,0.));
#2054=CARTESIAN_POINT('',(4.4,-2.475,0.));
#2055=CARTESIAN_POINT('Origin',(4.55,-2.475,0.));
#2056=CARTESIAN_POINT('Origin',(-4.55,2.475,0.));
#2057=CARTESIAN_POINT('',(-4.7,2.475,0.165));
#2058=CARTESIAN_POINT('Origin',(-4.55,2.475,0.165));
#2059=CARTESIAN_POINT('',(-4.7,2.475,0.));
#2060=CARTESIAN_POINT('',(-4.7,2.475,0.));
#2061=CARTESIAN_POINT('Origin',(-4.55,2.475,0.));
#2062=CARTESIAN_POINT('Origin',(4.9,-2.825,0.));
#2063=CARTESIAN_POINT('',(4.9,2.825,0.));
#2064=CARTESIAN_POINT('',(4.9,-2.825,0.));
#2065=CARTESIAN_POINT('',(4.9,2.825,0.));
#2066=CARTESIAN_POINT('',(4.9,2.825,0.165));
#2067=CARTESIAN_POINT('',(4.9,2.825,0.));
#2068=CARTESIAN_POINT('',(4.9,-2.825,0.165));
#2069=CARTESIAN_POINT('',(4.9,2.825,0.165));
#2070=CARTESIAN_POINT('',(4.9,-2.825,0.));
#2071=CARTESIAN_POINT('Origin',(-4.9,-2.825,0.));
#2072=CARTESIAN_POINT('',(-4.9,-2.825,0.));
#2073=CARTESIAN_POINT('',(4.9,-2.825,0.));
#2074=CARTESIAN_POINT('',(-4.9,-2.825,0.165));
#2075=CARTESIAN_POINT('',(4.9,-2.825,0.165));
#2076=CARTESIAN_POINT('',(-4.9,-2.825,0.));
#2077=CARTESIAN_POINT('Origin',(-4.9,2.825,0.));
#2078=CARTESIAN_POINT('',(-4.9,2.825,0.));
#2079=CARTESIAN_POINT('',(-4.9,-2.825,0.));
#2080=CARTESIAN_POINT('',(-4.9,2.825,0.165));
#2081=CARTESIAN_POINT('',(-4.9,-2.825,0.165));
#2082=CARTESIAN_POINT('',(-4.9,2.825,0.));
#2083=CARTESIAN_POINT('Origin',(4.9,2.825,0.));
#2084=CARTESIAN_POINT('',(-4.9,2.825,0.));
#2085=CARTESIAN_POINT('',(-4.9,2.825,0.165));
#2086=CARTESIAN_POINT('Origin',(0.,0.,0.165));
#2087=CARTESIAN_POINT('Origin',(0.,0.,0.));
#2088=UNCERTAINTY_MEASURE_WITH_UNIT(LENGTH_MEASURE(0.001),#2092,
'DISTANCE_ACCURACY_VALUE',
'Maximum model space distance between geometric entities at asserted c
onnectivities');
#2089=UNCERTAINTY_MEASURE_WITH_UNIT(LENGTH_MEASURE(0.001),#2092,
'DISTANCE_ACCURACY_VALUE',
'Maximum model space distance between geometric entities at asserted c
onnectivities');
#2090=(
GEOMETRIC_REPRESENTATION_CONTEXT(3)
GLOBAL_UNCERTAINTY_ASSIGNED_CONTEXT((#2088))
GLOBAL_UNIT_ASSIGNED_CONTEXT((#2092,#2094,#2095))
REPRESENTATION_CONTEXT('','3D')
);
#2091=(
GEOMETRIC_REPRESENTATION_CONTEXT(3)
GLOBAL_UNCERTAINTY_ASSIGNED_CONTEXT((#2089))
GLOBAL_UNIT_ASSIGNED_CONTEXT((#2092,#2094,#2095))
REPRESENTATION_CONTEXT('','3D')
);
#2092=(
LENGTH_UNIT()
NAMED_UNIT(*)
SI_UNIT(.CENTI.,.METRE.)
);
#2093=(
LENGTH_UNIT()
NAMED_UNIT(*)
SI_UNIT($,.METRE.)
);
#2094=(
NAMED_UNIT(*)
PLANE_ANGLE_UNIT()
SI_UNIT($,.RADIAN.)
);
#2095=(
NAMED_UNIT(*)
SI_UNIT($,.STERADIAN.)
SOLID_ANGLE_UNIT()
);
#2096=SHAPE_DEFINITION_REPRESENTATION(#2097,#2098);
#2097=PRODUCT_DEFINITION_SHAPE('',$,#2100);
#2098=SHAPE_REPRESENTATION('',(#1224),#2090);
#2099=PRODUCT_DEFINITION_CONTEXT('part definition',#2104,'design');
#2100=PRODUCT_DEFINITION('3.5" TFI SPI 480*320 V1',
'3.5" TFI SPI 480*320 V1 v2',#2101,#2099);
#2101=PRODUCT_DEFINITION_FORMATION('',$,#2106);
#2102=PRODUCT_RELATED_PRODUCT_CATEGORY('3.5" TFI SPI 480*320 V1 v2',
'3.5" TFI SPI 480*320 V1 v2',(#2106));
#2103=APPLICATION_PROTOCOL_DEFINITION('international standard',
'automotive_design',2009,#2104);
#2104=APPLICATION_CONTEXT(
'Core Data for Automotive Mechanical Design Process');
#2105=PRODUCT_CONTEXT('part definition',#2104,'mechanical');
#2106=PRODUCT('3.5" TFI SPI 480*320 V1','3.5" TFI SPI 480*320 V1 v2',$,
(#2105));
#2107=PRESENTATION_STYLE_ASSIGNMENT((#2108));
#2108=SURFACE_STYLE_USAGE(.BOTH.,#2109);
#2109=SURFACE_SIDE_STYLE('',(#2110));
#2110=SURFACE_STYLE_FILL_AREA(#2111);
#2111=FILL_AREA_STYLE('Steel - Satin',(#2112));
#2112=FILL_AREA_STYLE_COLOUR('Steel - Satin',#2113);
#2113=COLOUR_RGB('Steel - Satin',0.627450980392157,0.627450980392157,0.627450980392157);
ENDSEC;
END-ISO-10303-21;
