ISO-10303-21;
HEADER;
/* Generated by software containing ST-Developer
 * from STEP Tools, Inc. (www.steptools.com) 
 */

FILE_DESCRIPTION(
/* description */ (''),
/* implementation_level */ '2;1');

FILE_NAME(
/* name */ 'GT-U7GpsModule v1.step',
/* time_stamp */ '2023-07-16T13:19:36-04:00',
/* author */ (''),
/* organization */ (''),
/* preprocessor_version */ 'ST-DEVELOPER v19.2',
/* originating_system */ 'Autodesk Translation Framework v12.6.0.85',
/* authorisation */ '');

FILE_SCHEMA (('AUTOMOTIVE_DESIGN { 1 0 10303 214 3 1 1 }'));
ENDSEC;

DATA;
#10=MECHANICAL_DESIGN_GEOMETRIC_PRESENTATION_REPRESENTATION('',(#13,#14,
#15,#16,#17,#18,#19,#20,#21,#22),#1640);
#11=SHAPE_REPRESENTATION_RELATIONSHIP('SRR','None',#1647,#12);
#12=ADVANCED_BREP_SHAPE_REPRESENTATION('',(#23,#24,#25,#26,#27,#28,#29,
#30,#31,#32),#1639);
#13=STYLED_ITEM('',(#1657),#23);
#14=STYLED_ITEM('',(#1658),#24);
#15=STYLED_ITEM('',(#1659),#25);
#16=STYLED_ITEM('',(#1660),#26);
#17=STYLED_ITEM('',(#1661),#27);
#18=STYLED_ITEM('',(#1661),#28);
#19=STYLED_ITEM('',(#1661),#29);
#20=STYLED_ITEM('',(#1661),#30);
#21=STYLED_ITEM('',(#1661),#31);
#22=STYLED_ITEM('',(#1662),#32);
#23=MANIFOLD_SOLID_BREP('PCB',#967);
#24=MANIFOLD_SOLID_BREP('Usb Port',#968);
#25=MANIFOLD_SOLID_BREP('Chip',#969);
#26=MANIFOLD_SOLID_BREP('Antenna Port',#970);
#27=MANIFOLD_SOLID_BREP('Body6',#971);
#28=MANIFOLD_SOLID_BREP('Body7',#972);
#29=MANIFOLD_SOLID_BREP('Body8',#973);
#30=MANIFOLD_SOLID_BREP('Body9',#974);
#31=MANIFOLD_SOLID_BREP('Body10',#975);
#32=MANIFOLD_SOLID_BREP('Body5',#976);
#33=FACE_BOUND('',#163,.T.);
#34=FACE_BOUND('',#164,.T.);
#35=FACE_BOUND('',#165,.T.);
#36=FACE_BOUND('',#166,.T.);
#37=FACE_BOUND('',#167,.T.);
#38=FACE_BOUND('',#168,.T.);
#39=FACE_BOUND('',#180,.T.);
#40=FACE_BOUND('',#181,.T.);
#41=FACE_BOUND('',#182,.T.);
#42=FACE_BOUND('',#183,.T.);
#43=FACE_BOUND('',#184,.T.);
#44=FACE_BOUND('',#185,.T.);
#45=FACE_BOUND('',#194,.T.);
#46=FACE_BOUND('',#207,.T.);
#47=FACE_BOUND('',#209,.T.);
#48=FACE_BOUND('',#235,.T.);
#49=FACE_BOUND('',#236,.T.);
#50=FACE_BOUND('',#237,.T.);
#51=FACE_BOUND('',#238,.T.);
#52=FACE_BOUND('',#239,.T.);
#53=FACE_BOUND('',#241,.T.);
#54=FACE_BOUND('',#242,.T.);
#55=FACE_BOUND('',#243,.T.);
#56=FACE_BOUND('',#244,.T.);
#57=FACE_BOUND('',#245,.T.);
#58=PLANE('',#993);
#59=PLANE('',#994);
#60=PLANE('',#1004);
#61=PLANE('',#1017);
#62=PLANE('',#1018);
#63=PLANE('',#1019);
#64=PLANE('',#1020);
#65=PLANE('',#1021);
#66=PLANE('',#1022);
#67=PLANE('',#1023);
#68=PLANE('',#1024);
#69=PLANE('',#1025);
#70=PLANE('',#1026);
#71=PLANE('',#1027);
#72=PLANE('',#1028);
#73=PLANE('',#1029);
#74=PLANE('',#1030);
#75=PLANE('',#1031);
#76=PLANE('',#1032);
#77=PLANE('',#1033);
#78=PLANE('',#1034);
#79=PLANE('',#1035);
#80=PLANE('',#1036);
#81=PLANE('',#1043);
#82=PLANE('',#1044);
#83=PLANE('',#1045);
#84=PLANE('',#1049);
#85=PLANE('',#1050);
#86=PLANE('',#1054);
#87=PLANE('',#1055);
#88=PLANE('',#1059);
#89=PLANE('',#1060);
#90=PLANE('',#1064);
#91=PLANE('',#1065);
#92=PLANE('',#1069);
#93=PLANE('',#1085);
#94=PLANE('',#1086);
#95=PLANE('',#1087);
#96=PLANE('',#1088);
#97=PLANE('',#1089);
#98=PLANE('',#1090);
#99=FACE_OUTER_BOUND('',#160,.T.);
#100=FACE_OUTER_BOUND('',#161,.T.);
#101=FACE_OUTER_BOUND('',#162,.T.);
#102=FACE_OUTER_BOUND('',#169,.T.);
#103=FACE_OUTER_BOUND('',#170,.T.);
#104=FACE_OUTER_BOUND('',#171,.T.);
#105=FACE_OUTER_BOUND('',#172,.T.);
#106=FACE_OUTER_BOUND('',#173,.T.);
#107=FACE_OUTER_BOUND('',#174,.T.);
#108=FACE_OUTER_BOUND('',#175,.T.);
#109=FACE_OUTER_BOUND('',#176,.T.);
#110=FACE_OUTER_BOUND('',#177,.T.);
#111=FACE_OUTER_BOUND('',#178,.T.);
#112=FACE_OUTER_BOUND('',#179,.T.);
#113=FACE_OUTER_BOUND('',#186,.T.);
#114=FACE_OUTER_BOUND('',#187,.T.);
#115=FACE_OUTER_BOUND('',#188,.T.);
#116=FACE_OUTER_BOUND('',#189,.T.);
#117=FACE_OUTER_BOUND('',#190,.T.);
#118=FACE_OUTER_BOUND('',#191,.T.);
#119=FACE_OUTER_BOUND('',#192,.T.);
#120=FACE_OUTER_BOUND('',#193,.T.);
#121=FACE_OUTER_BOUND('',#195,.T.);
#122=FACE_OUTER_BOUND('',#196,.T.);
#123=FACE_OUTER_BOUND('',#197,.T.);
#124=FACE_OUTER_BOUND('',#198,.T.);
#125=FACE_OUTER_BOUND('',#199,.T.);
#126=FACE_OUTER_BOUND('',#200,.T.);
#127=FACE_OUTER_BOUND('',#201,.T.);
#128=FACE_OUTER_BOUND('',#202,.T.);
#129=FACE_OUTER_BOUND('',#203,.T.);
#130=FACE_OUTER_BOUND('',#204,.T.);
#131=FACE_OUTER_BOUND('',#205,.T.);
#132=FACE_OUTER_BOUND('',#206,.T.);
#133=FACE_OUTER_BOUND('',#208,.T.);
#134=FACE_OUTER_BOUND('',#210,.T.);
#135=FACE_OUTER_BOUND('',#211,.T.);
#136=FACE_OUTER_BOUND('',#212,.T.);
#137=FACE_OUTER_BOUND('',#213,.T.);
#138=FACE_OUTER_BOUND('',#214,.T.);
#139=FACE_OUTER_BOUND('',#215,.T.);
#140=FACE_OUTER_BOUND('',#216,.T.);
#141=FACE_OUTER_BOUND('',#217,.T.);
#142=FACE_OUTER_BOUND('',#218,.T.);
#143=FACE_OUTER_BOUND('',#219,.T.);
#144=FACE_OUTER_BOUND('',#220,.T.);
#145=FACE_OUTER_BOUND('',#221,.T.);
#146=FACE_OUTER_BOUND('',#222,.T.);
#147=FACE_OUTER_BOUND('',#223,.T.);
#148=FACE_OUTER_BOUND('',#224,.T.);
#149=FACE_OUTER_BOUND('',#225,.T.);
#150=FACE_OUTER_BOUND('',#226,.T.);
#151=FACE_OUTER_BOUND('',#227,.T.);
#152=FACE_OUTER_BOUND('',#228,.T.);
#153=FACE_OUTER_BOUND('',#229,.T.);
#154=FACE_OUTER_BOUND('',#230,.T.);
#155=FACE_OUTER_BOUND('',#231,.T.);
#156=FACE_OUTER_BOUND('',#232,.T.);
#157=FACE_OUTER_BOUND('',#233,.T.);
#158=FACE_OUTER_BOUND('',#234,.T.);
#159=FACE_OUTER_BOUND('',#240,.T.);
#160=EDGE_LOOP('',(#646,#647,#648,#649));
#161=EDGE_LOOP('',(#650,#651,#652,#653));
#162=EDGE_LOOP('',(#654,#655,#656,#657,#658,#659));
#163=EDGE_LOOP('',(#660));
#164=EDGE_LOOP('',(#661));
#165=EDGE_LOOP('',(#662));
#166=EDGE_LOOP('',(#663));
#167=EDGE_LOOP('',(#664));
#168=EDGE_LOOP('',(#665));
#169=EDGE_LOOP('',(#666,#667,#668,#669));
#170=EDGE_LOOP('',(#670,#671,#672,#673));
#171=EDGE_LOOP('',(#674,#675,#676,#677));
#172=EDGE_LOOP('',(#678,#679,#680,#681));
#173=EDGE_LOOP('',(#682,#683,#684,#685));
#174=EDGE_LOOP('',(#686,#687,#688,#689));
#175=EDGE_LOOP('',(#690,#691,#692,#693));
#176=EDGE_LOOP('',(#694,#695,#696,#697));
#177=EDGE_LOOP('',(#698,#699,#700,#701));
#178=EDGE_LOOP('',(#702,#703,#704,#705));
#179=EDGE_LOOP('',(#706,#707,#708,#709,#710,#711));
#180=EDGE_LOOP('',(#712));
#181=EDGE_LOOP('',(#713));
#182=EDGE_LOOP('',(#714));
#183=EDGE_LOOP('',(#715));
#184=EDGE_LOOP('',(#716));
#185=EDGE_LOOP('',(#717));
#186=EDGE_LOOP('',(#718,#719,#720,#721));
#187=EDGE_LOOP('',(#722,#723,#724,#725));
#188=EDGE_LOOP('',(#726,#727,#728,#729));
#189=EDGE_LOOP('',(#730,#731,#732,#733));
#190=EDGE_LOOP('',(#734,#735,#736,#737));
#191=EDGE_LOOP('',(#738,#739,#740,#741));
#192=EDGE_LOOP('',(#742,#743,#744,#745));
#193=EDGE_LOOP('',(#746,#747,#748,#749));
#194=EDGE_LOOP('',(#750,#751,#752,#753));
#195=EDGE_LOOP('',(#754,#755,#756,#757));
#196=EDGE_LOOP('',(#758,#759,#760,#761));
#197=EDGE_LOOP('',(#762,#763,#764,#765));
#198=EDGE_LOOP('',(#766,#767,#768,#769));
#199=EDGE_LOOP('',(#770,#771,#772,#773));
#200=EDGE_LOOP('',(#774,#775,#776,#777));
#201=EDGE_LOOP('',(#778,#779,#780,#781));
#202=EDGE_LOOP('',(#782,#783,#784,#785));
#203=EDGE_LOOP('',(#786,#787,#788,#789));
#204=EDGE_LOOP('',(#790,#791,#792,#793));
#205=EDGE_LOOP('',(#794,#795,#796,#797));
#206=EDGE_LOOP('',(#798));
#207=EDGE_LOOP('',(#799));
#208=EDGE_LOOP('',(#800));
#209=EDGE_LOOP('',(#801));
#210=EDGE_LOOP('',(#802));
#211=EDGE_LOOP('',(#803,#804,#805,#806));
#212=EDGE_LOOP('',(#807));
#213=EDGE_LOOP('',(#808));
#214=EDGE_LOOP('',(#809,#810,#811,#812));
#215=EDGE_LOOP('',(#813));
#216=EDGE_LOOP('',(#814));
#217=EDGE_LOOP('',(#815,#816,#817,#818));
#218=EDGE_LOOP('',(#819));
#219=EDGE_LOOP('',(#820));
#220=EDGE_LOOP('',(#821,#822,#823,#824));
#221=EDGE_LOOP('',(#825));
#222=EDGE_LOOP('',(#826));
#223=EDGE_LOOP('',(#827,#828,#829,#830));
#224=EDGE_LOOP('',(#831));
#225=EDGE_LOOP('',(#832,#833,#834,#835));
#226=EDGE_LOOP('',(#836,#837,#838,#839));
#227=EDGE_LOOP('',(#840,#841,#842,#843));
#228=EDGE_LOOP('',(#844,#845,#846,#847));
#229=EDGE_LOOP('',(#848,#849,#850,#851));
#230=EDGE_LOOP('',(#852,#853,#854,#855));
#231=EDGE_LOOP('',(#856,#857,#858,#859));
#232=EDGE_LOOP('',(#860,#861,#862,#863));
#233=EDGE_LOOP('',(#864,#865,#866,#867));
#234=EDGE_LOOP('',(#868,#869,#870,#871));
#235=EDGE_LOOP('',(#872));
#236=EDGE_LOOP('',(#873));
#237=EDGE_LOOP('',(#874));
#238=EDGE_LOOP('',(#875));
#239=EDGE_LOOP('',(#876));
#240=EDGE_LOOP('',(#877,#878,#879,#880));
#241=EDGE_LOOP('',(#881));
#242=EDGE_LOOP('',(#882));
#243=EDGE_LOOP('',(#883));
#244=EDGE_LOOP('',(#884));
#245=EDGE_LOOP('',(#885));
#246=LINE('',#1381,#326);
#247=LINE('',#1384,#327);
#248=LINE('',#1387,#328);
#249=LINE('',#1389,#329);
#250=LINE('',#1390,#330);
#251=LINE('',#1393,#331);
#252=LINE('',#1397,#332);
#253=LINE('',#1398,#333);
#254=LINE('',#1415,#334);
#255=LINE('',#1416,#335);
#256=LINE('',#1419,#336);
#257=LINE('',#1420,#337);
#258=LINE('',#1424,#338);
#259=LINE('',#1428,#339);
#260=LINE('',#1432,#340);
#261=LINE('',#1436,#341);
#262=LINE('',#1440,#342);
#263=LINE('',#1444,#343);
#264=LINE('',#1446,#344);
#265=LINE('',#1448,#345);
#266=LINE('',#1453,#346);
#267=LINE('',#1455,#347);
#268=LINE('',#1457,#348);
#269=LINE('',#1458,#349);
#270=LINE('',#1461,#350);
#271=LINE('',#1463,#351);
#272=LINE('',#1464,#352);
#273=LINE('',#1467,#353);
#274=LINE('',#1469,#354);
#275=LINE('',#1470,#355);
#276=LINE('',#1472,#356);
#277=LINE('',#1473,#357);
#278=LINE('',#1478,#358);
#279=LINE('',#1480,#359);
#280=LINE('',#1482,#360);
#281=LINE('',#1483,#361);
#282=LINE('',#1486,#362);
#283=LINE('',#1488,#363);
#284=LINE('',#1489,#364);
#285=LINE('',#1492,#365);
#286=LINE('',#1494,#366);
#287=LINE('',#1495,#367);
#288=LINE('',#1497,#368);
#289=LINE('',#1498,#369);
#290=LINE('',#1504,#370);
#291=LINE('',#1506,#371);
#292=LINE('',#1508,#372);
#293=LINE('',#1509,#373);
#294=LINE('',#1512,#374);
#295=LINE('',#1514,#375);
#296=LINE('',#1515,#376);
#297=LINE('',#1518,#377);
#298=LINE('',#1520,#378);
#299=LINE('',#1521,#379);
#300=LINE('',#1523,#380);
#301=LINE('',#1524,#381);
#302=LINE('',#1531,#382);
#303=LINE('',#1537,#383);
#304=LINE('',#1547,#384);
#305=LINE('',#1555,#385);
#306=LINE('',#1563,#386);
#307=LINE('',#1571,#387);
#308=LINE('',#1579,#388);
#309=LINE('',#1585,#389);
#310=LINE('',#1591,#390);
#311=LINE('',#1597,#391);
#312=LINE('',#1603,#392);
#313=LINE('',#1609,#393);
#314=LINE('',#1614,#394);
#315=LINE('',#1616,#395);
#316=LINE('',#1618,#396);
#317=LINE('',#1619,#397);
#318=LINE('',#1622,#398);
#319=LINE('',#1624,#399);
#320=LINE('',#1625,#400);
#321=LINE('',#1628,#401);
#322=LINE('',#1630,#402);
#323=LINE('',#1631,#403);
#324=LINE('',#1633,#404);
#325=LINE('',#1634,#405);
#326=VECTOR('',#1097,1.);
#327=VECTOR('',#1100,1.);
#328=VECTOR('',#1103,1.);
#329=VECTOR('',#1104,1.);
#330=VECTOR('',#1105,1.);
#331=VECTOR('',#1108,1.);
#332=VECTOR('',#1111,1.);
#333=VECTOR('',#1112,1.);
#334=VECTOR('',#1129,1.);
#335=VECTOR('',#1130,1.);
#336=VECTOR('',#1133,1.);
#337=VECTOR('',#1134,1.);
#338=VECTOR('',#1139,0.05);
#339=VECTOR('',#1144,0.05);
#340=VECTOR('',#1149,0.05);
#341=VECTOR('',#1154,0.05);
#342=VECTOR('',#1159,0.05);
#343=VECTOR('',#1164,0.1375);
#344=VECTOR('',#1167,1.);
#345=VECTOR('',#1170,1.);
#346=VECTOR('',#1175,1.);
#347=VECTOR('',#1176,1.);
#348=VECTOR('',#1177,1.);
#349=VECTOR('',#1178,1.);
#350=VECTOR('',#1181,1.);
#351=VECTOR('',#1182,1.);
#352=VECTOR('',#1183,1.);
#353=VECTOR('',#1186,1.);
#354=VECTOR('',#1187,1.);
#355=VECTOR('',#1188,1.);
#356=VECTOR('',#1191,1.);
#357=VECTOR('',#1192,1.);
#358=VECTOR('',#1197,1.);
#359=VECTOR('',#1198,1.);
#360=VECTOR('',#1199,1.);
#361=VECTOR('',#1200,1.);
#362=VECTOR('',#1203,1.);
#363=VECTOR('',#1204,1.);
#364=VECTOR('',#1205,1.);
#365=VECTOR('',#1208,1.);
#366=VECTOR('',#1209,1.);
#367=VECTOR('',#1210,1.);
#368=VECTOR('',#1213,1.);
#369=VECTOR('',#1214,1.);
#370=VECTOR('',#1221,1.);
#371=VECTOR('',#1222,1.);
#372=VECTOR('',#1223,1.);
#373=VECTOR('',#1224,1.);
#374=VECTOR('',#1227,1.);
#375=VECTOR('',#1228,1.);
#376=VECTOR('',#1229,1.);
#377=VECTOR('',#1232,1.);
#378=VECTOR('',#1233,1.);
#379=VECTOR('',#1234,1.);
#380=VECTOR('',#1237,1.);
#381=VECTOR('',#1238,1.);
#382=VECTOR('',#1247,0.05);
#383=VECTOR('',#1254,0.0999999999999999);
#384=VECTOR('',#1269,0.05);
#385=VECTOR('',#1280,0.05);
#386=VECTOR('',#1291,0.05);
#387=VECTOR('',#1302,0.05);
#388=VECTOR('',#1313,0.05);
#389=VECTOR('',#1320,0.05);
#390=VECTOR('',#1327,0.05);
#391=VECTOR('',#1334,0.05);
#392=VECTOR('',#1341,0.05);
#393=VECTOR('',#1348,0.05);
#394=VECTOR('',#1353,1.);
#395=VECTOR('',#1354,1.);
#396=VECTOR('',#1355,1.);
#397=VECTOR('',#1356,1.);
#398=VECTOR('',#1359,1.);
#399=VECTOR('',#1360,1.);
#400=VECTOR('',#1361,1.);
#401=VECTOR('',#1364,1.);
#402=VECTOR('',#1365,1.);
#403=VECTOR('',#1366,1.);
#404=VECTOR('',#1369,1.);
#405=VECTOR('',#1370,1.);
#406=CIRCLE('',#991,0.3);
#407=CIRCLE('',#992,0.3);
#408=CIRCLE('',#995,0.3);
#409=CIRCLE('',#996,0.1375);
#410=CIRCLE('',#997,0.05);
#411=CIRCLE('',#998,0.05);
#412=CIRCLE('',#999,0.05);
#413=CIRCLE('',#1000,0.05);
#414=CIRCLE('',#1001,0.05);
#415=CIRCLE('',#1003,0.3);
#416=CIRCLE('',#1006,0.05);
#417=CIRCLE('',#1008,0.05);
#418=CIRCLE('',#1010,0.05);
#419=CIRCLE('',#1012,0.05);
#420=CIRCLE('',#1014,0.05);
#421=CIRCLE('',#1016,0.1375);
#422=CIRCLE('',#1038,0.05);
#423=CIRCLE('',#1039,0.05);
#424=CIRCLE('',#1041,0.0999999999999999);
#425=CIRCLE('',#1042,0.0999999999999999);
#426=CIRCLE('',#1046,0.05);
#427=CIRCLE('',#1048,0.05);
#428=CIRCLE('',#1051,0.05);
#429=CIRCLE('',#1053,0.05);
#430=CIRCLE('',#1056,0.05);
#431=CIRCLE('',#1058,0.05);
#432=CIRCLE('',#1061,0.05);
#433=CIRCLE('',#1063,0.05);
#434=CIRCLE('',#1066,0.05);
#435=CIRCLE('',#1068,0.05);
#436=CIRCLE('',#1071,0.05);
#437=CIRCLE('',#1072,0.05);
#438=CIRCLE('',#1074,0.05);
#439=CIRCLE('',#1075,0.05);
#440=CIRCLE('',#1077,0.05);
#441=CIRCLE('',#1078,0.05);
#442=CIRCLE('',#1080,0.05);
#443=CIRCLE('',#1081,0.05);
#444=CIRCLE('',#1083,0.05);
#445=CIRCLE('',#1084,0.05);
#446=VERTEX_POINT('',#1377);
#447=VERTEX_POINT('',#1378);
#448=VERTEX_POINT('',#1380);
#449=VERTEX_POINT('',#1382);
#450=VERTEX_POINT('',#1386);
#451=VERTEX_POINT('',#1388);
#452=VERTEX_POINT('',#1392);
#453=VERTEX_POINT('',#1394);
#454=VERTEX_POINT('',#1396);
#455=VERTEX_POINT('',#1399);
#456=VERTEX_POINT('',#1401);
#457=VERTEX_POINT('',#1403);
#458=VERTEX_POINT('',#1405);
#459=VERTEX_POINT('',#1407);
#460=VERTEX_POINT('',#1409);
#461=VERTEX_POINT('',#1412);
#462=VERTEX_POINT('',#1413);
#463=VERTEX_POINT('',#1418);
#464=VERTEX_POINT('',#1422);
#465=VERTEX_POINT('',#1426);
#466=VERTEX_POINT('',#1430);
#467=VERTEX_POINT('',#1434);
#468=VERTEX_POINT('',#1438);
#469=VERTEX_POINT('',#1442);
#470=VERTEX_POINT('',#1451);
#471=VERTEX_POINT('',#1452);
#472=VERTEX_POINT('',#1454);
#473=VERTEX_POINT('',#1456);
#474=VERTEX_POINT('',#1460);
#475=VERTEX_POINT('',#1462);
#476=VERTEX_POINT('',#1466);
#477=VERTEX_POINT('',#1468);
#478=VERTEX_POINT('',#1476);
#479=VERTEX_POINT('',#1477);
#480=VERTEX_POINT('',#1479);
#481=VERTEX_POINT('',#1481);
#482=VERTEX_POINT('',#1485);
#483=VERTEX_POINT('',#1487);
#484=VERTEX_POINT('',#1491);
#485=VERTEX_POINT('',#1493);
#486=VERTEX_POINT('',#1502);
#487=VERTEX_POINT('',#1503);
#488=VERTEX_POINT('',#1505);
#489=VERTEX_POINT('',#1507);
#490=VERTEX_POINT('',#1511);
#491=VERTEX_POINT('',#1513);
#492=VERTEX_POINT('',#1517);
#493=VERTEX_POINT('',#1519);
#494=VERTEX_POINT('',#1528);
#495=VERTEX_POINT('',#1530);
#496=VERTEX_POINT('',#1534);
#497=VERTEX_POINT('',#1536);
#498=VERTEX_POINT('',#1542);
#499=VERTEX_POINT('',#1545);
#500=VERTEX_POINT('',#1550);
#501=VERTEX_POINT('',#1553);
#502=VERTEX_POINT('',#1558);
#503=VERTEX_POINT('',#1561);
#504=VERTEX_POINT('',#1566);
#505=VERTEX_POINT('',#1569);
#506=VERTEX_POINT('',#1574);
#507=VERTEX_POINT('',#1577);
#508=VERTEX_POINT('',#1582);
#509=VERTEX_POINT('',#1584);
#510=VERTEX_POINT('',#1588);
#511=VERTEX_POINT('',#1590);
#512=VERTEX_POINT('',#1594);
#513=VERTEX_POINT('',#1596);
#514=VERTEX_POINT('',#1600);
#515=VERTEX_POINT('',#1602);
#516=VERTEX_POINT('',#1606);
#517=VERTEX_POINT('',#1608);
#518=VERTEX_POINT('',#1612);
#519=VERTEX_POINT('',#1613);
#520=VERTEX_POINT('',#1615);
#521=VERTEX_POINT('',#1617);
#522=VERTEX_POINT('',#1621);
#523=VERTEX_POINT('',#1623);
#524=VERTEX_POINT('',#1627);
#525=VERTEX_POINT('',#1629);
#526=EDGE_CURVE('',#446,#447,#406,.T.);
#527=EDGE_CURVE('',#447,#448,#246,.T.);
#528=EDGE_CURVE('',#448,#449,#407,.T.);
#529=EDGE_CURVE('',#449,#446,#247,.T.);
#530=EDGE_CURVE('',#449,#450,#248,.T.);
#531=EDGE_CURVE('',#450,#451,#249,.T.);
#532=EDGE_CURVE('',#446,#451,#250,.T.);
#533=EDGE_CURVE('',#452,#448,#251,.T.);
#534=EDGE_CURVE('',#453,#452,#408,.T.);
#535=EDGE_CURVE('',#454,#453,#252,.T.);
#536=EDGE_CURVE('',#454,#450,#253,.T.);
#537=EDGE_CURVE('',#455,#455,#409,.T.);
#538=EDGE_CURVE('',#456,#456,#410,.T.);
#539=EDGE_CURVE('',#457,#457,#411,.T.);
#540=EDGE_CURVE('',#458,#458,#412,.T.);
#541=EDGE_CURVE('',#459,#459,#413,.T.);
#542=EDGE_CURVE('',#460,#460,#414,.T.);
#543=EDGE_CURVE('',#461,#462,#415,.T.);
#544=EDGE_CURVE('',#462,#453,#254,.T.);
#545=EDGE_CURVE('',#452,#461,#255,.T.);
#546=EDGE_CURVE('',#463,#462,#256,.T.);
#547=EDGE_CURVE('',#454,#463,#257,.T.);
#548=EDGE_CURVE('',#464,#464,#416,.T.);
#549=EDGE_CURVE('',#464,#460,#258,.T.);
#550=EDGE_CURVE('',#465,#465,#417,.T.);
#551=EDGE_CURVE('',#465,#459,#259,.T.);
#552=EDGE_CURVE('',#466,#466,#418,.T.);
#553=EDGE_CURVE('',#466,#458,#260,.T.);
#554=EDGE_CURVE('',#467,#467,#419,.T.);
#555=EDGE_CURVE('',#467,#457,#261,.T.);
#556=EDGE_CURVE('',#468,#468,#420,.T.);
#557=EDGE_CURVE('',#468,#456,#262,.T.);
#558=EDGE_CURVE('',#469,#469,#421,.T.);
#559=EDGE_CURVE('',#469,#455,#263,.T.);
#560=EDGE_CURVE('',#461,#447,#264,.T.);
#561=EDGE_CURVE('',#451,#463,#265,.T.);
#562=EDGE_CURVE('',#470,#471,#266,.T.);
#563=EDGE_CURVE('',#470,#472,#267,.T.);
#564=EDGE_CURVE('',#472,#473,#268,.T.);
#565=EDGE_CURVE('',#471,#473,#269,.T.);
#566=EDGE_CURVE('',#474,#470,#270,.T.);
#567=EDGE_CURVE('',#474,#475,#271,.T.);
#568=EDGE_CURVE('',#475,#472,#272,.T.);
#569=EDGE_CURVE('',#476,#474,#273,.T.);
#570=EDGE_CURVE('',#476,#477,#274,.T.);
#571=EDGE_CURVE('',#477,#475,#275,.T.);
#572=EDGE_CURVE('',#471,#476,#276,.T.);
#573=EDGE_CURVE('',#473,#477,#277,.T.);
#574=EDGE_CURVE('',#478,#479,#278,.T.);
#575=EDGE_CURVE('',#479,#480,#279,.T.);
#576=EDGE_CURVE('',#481,#480,#280,.T.);
#577=EDGE_CURVE('',#478,#481,#281,.T.);
#578=EDGE_CURVE('',#482,#478,#282,.T.);
#579=EDGE_CURVE('',#483,#481,#283,.T.);
#580=EDGE_CURVE('',#482,#483,#284,.T.);
#581=EDGE_CURVE('',#484,#482,#285,.T.);
#582=EDGE_CURVE('',#485,#483,#286,.T.);
#583=EDGE_CURVE('',#484,#485,#287,.T.);
#584=EDGE_CURVE('',#479,#484,#288,.T.);
#585=EDGE_CURVE('',#480,#485,#289,.T.);
#586=EDGE_CURVE('',#486,#487,#290,.T.);
#587=EDGE_CURVE('',#486,#488,#291,.T.);
#588=EDGE_CURVE('',#489,#488,#292,.T.);
#589=EDGE_CURVE('',#487,#489,#293,.T.);
#590=EDGE_CURVE('',#487,#490,#294,.T.);
#591=EDGE_CURVE('',#491,#489,#295,.T.);
#592=EDGE_CURVE('',#490,#491,#296,.T.);
#593=EDGE_CURVE('',#490,#492,#297,.T.);
#594=EDGE_CURVE('',#493,#491,#298,.T.);
#595=EDGE_CURVE('',#492,#493,#299,.T.);
#596=EDGE_CURVE('',#492,#486,#300,.T.);
#597=EDGE_CURVE('',#488,#493,#301,.T.);
#598=EDGE_CURVE('',#494,#494,#422,.T.);
#599=EDGE_CURVE('',#494,#495,#302,.T.);
#600=EDGE_CURVE('',#495,#495,#423,.T.);
#601=EDGE_CURVE('',#496,#496,#424,.T.);
#602=EDGE_CURVE('',#496,#497,#303,.T.);
#603=EDGE_CURVE('',#497,#497,#425,.T.);
#604=EDGE_CURVE('',#498,#498,#426,.T.);
#605=EDGE_CURVE('',#499,#499,#427,.T.);
#606=EDGE_CURVE('',#499,#498,#304,.T.);
#607=EDGE_CURVE('',#500,#500,#428,.T.);
#608=EDGE_CURVE('',#501,#501,#429,.T.);
#609=EDGE_CURVE('',#501,#500,#305,.T.);
#610=EDGE_CURVE('',#502,#502,#430,.T.);
#611=EDGE_CURVE('',#503,#503,#431,.T.);
#612=EDGE_CURVE('',#503,#502,#306,.T.);
#613=EDGE_CURVE('',#504,#504,#432,.T.);
#614=EDGE_CURVE('',#505,#505,#433,.T.);
#615=EDGE_CURVE('',#505,#504,#307,.T.);
#616=EDGE_CURVE('',#506,#506,#434,.T.);
#617=EDGE_CURVE('',#507,#507,#435,.T.);
#618=EDGE_CURVE('',#507,#506,#308,.T.);
#619=EDGE_CURVE('',#508,#508,#436,.T.);
#620=EDGE_CURVE('',#508,#509,#309,.T.);
#621=EDGE_CURVE('',#509,#509,#437,.T.);
#622=EDGE_CURVE('',#510,#510,#438,.T.);
#623=EDGE_CURVE('',#510,#511,#310,.T.);
#624=EDGE_CURVE('',#511,#511,#439,.T.);
#625=EDGE_CURVE('',#512,#512,#440,.T.);
#626=EDGE_CURVE('',#512,#513,#311,.T.);
#627=EDGE_CURVE('',#513,#513,#441,.T.);
#628=EDGE_CURVE('',#514,#514,#442,.T.);
#629=EDGE_CURVE('',#514,#515,#312,.T.);
#630=EDGE_CURVE('',#515,#515,#443,.T.);
#631=EDGE_CURVE('',#516,#516,#444,.T.);
#632=EDGE_CURVE('',#516,#517,#313,.T.);
#633=EDGE_CURVE('',#517,#517,#445,.T.);
#634=EDGE_CURVE('',#518,#519,#314,.T.);
#635=EDGE_CURVE('',#519,#520,#315,.T.);
#636=EDGE_CURVE('',#521,#520,#316,.T.);
#637=EDGE_CURVE('',#518,#521,#317,.T.);
#638=EDGE_CURVE('',#522,#518,#318,.T.);
#639=EDGE_CURVE('',#523,#521,#319,.T.);
#640=EDGE_CURVE('',#522,#523,#320,.T.);
#641=EDGE_CURVE('',#524,#522,#321,.T.);
#642=EDGE_CURVE('',#525,#523,#322,.T.);
#643=EDGE_CURVE('',#524,#525,#323,.T.);
#644=EDGE_CURVE('',#519,#524,#324,.T.);
#645=EDGE_CURVE('',#520,#525,#325,.T.);
#646=ORIENTED_EDGE('',*,*,#526,.T.);
#647=ORIENTED_EDGE('',*,*,#527,.T.);
#648=ORIENTED_EDGE('',*,*,#528,.T.);
#649=ORIENTED_EDGE('',*,*,#529,.T.);
#650=ORIENTED_EDGE('',*,*,#529,.F.);
#651=ORIENTED_EDGE('',*,*,#530,.T.);
#652=ORIENTED_EDGE('',*,*,#531,.T.);
#653=ORIENTED_EDGE('',*,*,#532,.F.);
#654=ORIENTED_EDGE('',*,*,#528,.F.);
#655=ORIENTED_EDGE('',*,*,#533,.F.);
#656=ORIENTED_EDGE('',*,*,#534,.F.);
#657=ORIENTED_EDGE('',*,*,#535,.F.);
#658=ORIENTED_EDGE('',*,*,#536,.T.);
#659=ORIENTED_EDGE('',*,*,#530,.F.);
#660=ORIENTED_EDGE('',*,*,#537,.T.);
#661=ORIENTED_EDGE('',*,*,#538,.T.);
#662=ORIENTED_EDGE('',*,*,#539,.T.);
#663=ORIENTED_EDGE('',*,*,#540,.T.);
#664=ORIENTED_EDGE('',*,*,#541,.T.);
#665=ORIENTED_EDGE('',*,*,#542,.T.);
#666=ORIENTED_EDGE('',*,*,#543,.T.);
#667=ORIENTED_EDGE('',*,*,#544,.T.);
#668=ORIENTED_EDGE('',*,*,#534,.T.);
#669=ORIENTED_EDGE('',*,*,#545,.T.);
#670=ORIENTED_EDGE('',*,*,#544,.F.);
#671=ORIENTED_EDGE('',*,*,#546,.F.);
#672=ORIENTED_EDGE('',*,*,#547,.F.);
#673=ORIENTED_EDGE('',*,*,#535,.T.);
#674=ORIENTED_EDGE('',*,*,#548,.F.);
#675=ORIENTED_EDGE('',*,*,#549,.T.);
#676=ORIENTED_EDGE('',*,*,#542,.F.);
#677=ORIENTED_EDGE('',*,*,#549,.F.);
#678=ORIENTED_EDGE('',*,*,#550,.F.);
#679=ORIENTED_EDGE('',*,*,#551,.T.);
#680=ORIENTED_EDGE('',*,*,#541,.F.);
#681=ORIENTED_EDGE('',*,*,#551,.F.);
#682=ORIENTED_EDGE('',*,*,#552,.F.);
#683=ORIENTED_EDGE('',*,*,#553,.T.);
#684=ORIENTED_EDGE('',*,*,#540,.F.);
#685=ORIENTED_EDGE('',*,*,#553,.F.);
#686=ORIENTED_EDGE('',*,*,#554,.F.);
#687=ORIENTED_EDGE('',*,*,#555,.T.);
#688=ORIENTED_EDGE('',*,*,#539,.F.);
#689=ORIENTED_EDGE('',*,*,#555,.F.);
#690=ORIENTED_EDGE('',*,*,#556,.F.);
#691=ORIENTED_EDGE('',*,*,#557,.T.);
#692=ORIENTED_EDGE('',*,*,#538,.F.);
#693=ORIENTED_EDGE('',*,*,#557,.F.);
#694=ORIENTED_EDGE('',*,*,#558,.F.);
#695=ORIENTED_EDGE('',*,*,#559,.T.);
#696=ORIENTED_EDGE('',*,*,#537,.F.);
#697=ORIENTED_EDGE('',*,*,#559,.F.);
#698=ORIENTED_EDGE('',*,*,#527,.F.);
#699=ORIENTED_EDGE('',*,*,#560,.F.);
#700=ORIENTED_EDGE('',*,*,#545,.F.);
#701=ORIENTED_EDGE('',*,*,#533,.T.);
#702=ORIENTED_EDGE('',*,*,#536,.F.);
#703=ORIENTED_EDGE('',*,*,#547,.T.);
#704=ORIENTED_EDGE('',*,*,#561,.F.);
#705=ORIENTED_EDGE('',*,*,#531,.F.);
#706=ORIENTED_EDGE('',*,*,#526,.F.);
#707=ORIENTED_EDGE('',*,*,#532,.T.);
#708=ORIENTED_EDGE('',*,*,#561,.T.);
#709=ORIENTED_EDGE('',*,*,#546,.T.);
#710=ORIENTED_EDGE('',*,*,#543,.F.);
#711=ORIENTED_EDGE('',*,*,#560,.T.);
#712=ORIENTED_EDGE('',*,*,#558,.T.);
#713=ORIENTED_EDGE('',*,*,#556,.T.);
#714=ORIENTED_EDGE('',*,*,#554,.T.);
#715=ORIENTED_EDGE('',*,*,#552,.T.);
#716=ORIENTED_EDGE('',*,*,#550,.T.);
#717=ORIENTED_EDGE('',*,*,#548,.T.);
#718=ORIENTED_EDGE('',*,*,#562,.F.);
#719=ORIENTED_EDGE('',*,*,#563,.T.);
#720=ORIENTED_EDGE('',*,*,#564,.T.);
#721=ORIENTED_EDGE('',*,*,#565,.F.);
#722=ORIENTED_EDGE('',*,*,#566,.F.);
#723=ORIENTED_EDGE('',*,*,#567,.T.);
#724=ORIENTED_EDGE('',*,*,#568,.T.);
#725=ORIENTED_EDGE('',*,*,#563,.F.);
#726=ORIENTED_EDGE('',*,*,#569,.F.);
#727=ORIENTED_EDGE('',*,*,#570,.T.);
#728=ORIENTED_EDGE('',*,*,#571,.T.);
#729=ORIENTED_EDGE('',*,*,#567,.F.);
#730=ORIENTED_EDGE('',*,*,#572,.F.);
#731=ORIENTED_EDGE('',*,*,#565,.T.);
#732=ORIENTED_EDGE('',*,*,#573,.T.);
#733=ORIENTED_EDGE('',*,*,#570,.F.);
#734=ORIENTED_EDGE('',*,*,#573,.F.);
#735=ORIENTED_EDGE('',*,*,#564,.F.);
#736=ORIENTED_EDGE('',*,*,#568,.F.);
#737=ORIENTED_EDGE('',*,*,#571,.F.);
#738=ORIENTED_EDGE('',*,*,#574,.T.);
#739=ORIENTED_EDGE('',*,*,#575,.T.);
#740=ORIENTED_EDGE('',*,*,#576,.F.);
#741=ORIENTED_EDGE('',*,*,#577,.F.);
#742=ORIENTED_EDGE('',*,*,#578,.T.);
#743=ORIENTED_EDGE('',*,*,#577,.T.);
#744=ORIENTED_EDGE('',*,*,#579,.F.);
#745=ORIENTED_EDGE('',*,*,#580,.F.);
#746=ORIENTED_EDGE('',*,*,#581,.T.);
#747=ORIENTED_EDGE('',*,*,#580,.T.);
#748=ORIENTED_EDGE('',*,*,#582,.F.);
#749=ORIENTED_EDGE('',*,*,#583,.F.);
#750=ORIENTED_EDGE('',*,*,#562,.T.);
#751=ORIENTED_EDGE('',*,*,#572,.T.);
#752=ORIENTED_EDGE('',*,*,#569,.T.);
#753=ORIENTED_EDGE('',*,*,#566,.T.);
#754=ORIENTED_EDGE('',*,*,#584,.T.);
#755=ORIENTED_EDGE('',*,*,#583,.T.);
#756=ORIENTED_EDGE('',*,*,#585,.F.);
#757=ORIENTED_EDGE('',*,*,#575,.F.);
#758=ORIENTED_EDGE('',*,*,#585,.T.);
#759=ORIENTED_EDGE('',*,*,#582,.T.);
#760=ORIENTED_EDGE('',*,*,#579,.T.);
#761=ORIENTED_EDGE('',*,*,#576,.T.);
#762=ORIENTED_EDGE('',*,*,#584,.F.);
#763=ORIENTED_EDGE('',*,*,#574,.F.);
#764=ORIENTED_EDGE('',*,*,#578,.F.);
#765=ORIENTED_EDGE('',*,*,#581,.F.);
#766=ORIENTED_EDGE('',*,*,#586,.F.);
#767=ORIENTED_EDGE('',*,*,#587,.T.);
#768=ORIENTED_EDGE('',*,*,#588,.F.);
#769=ORIENTED_EDGE('',*,*,#589,.F.);
#770=ORIENTED_EDGE('',*,*,#590,.F.);
#771=ORIENTED_EDGE('',*,*,#589,.T.);
#772=ORIENTED_EDGE('',*,*,#591,.F.);
#773=ORIENTED_EDGE('',*,*,#592,.F.);
#774=ORIENTED_EDGE('',*,*,#593,.F.);
#775=ORIENTED_EDGE('',*,*,#592,.T.);
#776=ORIENTED_EDGE('',*,*,#594,.F.);
#777=ORIENTED_EDGE('',*,*,#595,.F.);
#778=ORIENTED_EDGE('',*,*,#596,.F.);
#779=ORIENTED_EDGE('',*,*,#595,.T.);
#780=ORIENTED_EDGE('',*,*,#597,.F.);
#781=ORIENTED_EDGE('',*,*,#587,.F.);
#782=ORIENTED_EDGE('',*,*,#597,.T.);
#783=ORIENTED_EDGE('',*,*,#594,.T.);
#784=ORIENTED_EDGE('',*,*,#591,.T.);
#785=ORIENTED_EDGE('',*,*,#588,.T.);
#786=ORIENTED_EDGE('',*,*,#596,.T.);
#787=ORIENTED_EDGE('',*,*,#586,.T.);
#788=ORIENTED_EDGE('',*,*,#590,.T.);
#789=ORIENTED_EDGE('',*,*,#593,.T.);
#790=ORIENTED_EDGE('',*,*,#598,.F.);
#791=ORIENTED_EDGE('',*,*,#599,.T.);
#792=ORIENTED_EDGE('',*,*,#600,.T.);
#793=ORIENTED_EDGE('',*,*,#599,.F.);
#794=ORIENTED_EDGE('',*,*,#601,.F.);
#795=ORIENTED_EDGE('',*,*,#602,.T.);
#796=ORIENTED_EDGE('',*,*,#603,.T.);
#797=ORIENTED_EDGE('',*,*,#602,.F.);
#798=ORIENTED_EDGE('',*,*,#601,.T.);
#799=ORIENTED_EDGE('',*,*,#598,.T.);
#800=ORIENTED_EDGE('',*,*,#603,.F.);
#801=ORIENTED_EDGE('',*,*,#600,.F.);
#802=ORIENTED_EDGE('',*,*,#604,.T.);
#803=ORIENTED_EDGE('',*,*,#605,.F.);
#804=ORIENTED_EDGE('',*,*,#606,.T.);
#805=ORIENTED_EDGE('',*,*,#604,.F.);
#806=ORIENTED_EDGE('',*,*,#606,.F.);
#807=ORIENTED_EDGE('',*,*,#605,.T.);
#808=ORIENTED_EDGE('',*,*,#607,.T.);
#809=ORIENTED_EDGE('',*,*,#608,.F.);
#810=ORIENTED_EDGE('',*,*,#609,.T.);
#811=ORIENTED_EDGE('',*,*,#607,.F.);
#812=ORIENTED_EDGE('',*,*,#609,.F.);
#813=ORIENTED_EDGE('',*,*,#608,.T.);
#814=ORIENTED_EDGE('',*,*,#610,.T.);
#815=ORIENTED_EDGE('',*,*,#611,.F.);
#816=ORIENTED_EDGE('',*,*,#612,.T.);
#817=ORIENTED_EDGE('',*,*,#610,.F.);
#818=ORIENTED_EDGE('',*,*,#612,.F.);
#819=ORIENTED_EDGE('',*,*,#611,.T.);
#820=ORIENTED_EDGE('',*,*,#613,.T.);
#821=ORIENTED_EDGE('',*,*,#614,.F.);
#822=ORIENTED_EDGE('',*,*,#615,.T.);
#823=ORIENTED_EDGE('',*,*,#613,.F.);
#824=ORIENTED_EDGE('',*,*,#615,.F.);
#825=ORIENTED_EDGE('',*,*,#614,.T.);
#826=ORIENTED_EDGE('',*,*,#616,.T.);
#827=ORIENTED_EDGE('',*,*,#617,.F.);
#828=ORIENTED_EDGE('',*,*,#618,.T.);
#829=ORIENTED_EDGE('',*,*,#616,.F.);
#830=ORIENTED_EDGE('',*,*,#618,.F.);
#831=ORIENTED_EDGE('',*,*,#617,.T.);
#832=ORIENTED_EDGE('',*,*,#619,.F.);
#833=ORIENTED_EDGE('',*,*,#620,.T.);
#834=ORIENTED_EDGE('',*,*,#621,.F.);
#835=ORIENTED_EDGE('',*,*,#620,.F.);
#836=ORIENTED_EDGE('',*,*,#622,.F.);
#837=ORIENTED_EDGE('',*,*,#623,.T.);
#838=ORIENTED_EDGE('',*,*,#624,.F.);
#839=ORIENTED_EDGE('',*,*,#623,.F.);
#840=ORIENTED_EDGE('',*,*,#625,.F.);
#841=ORIENTED_EDGE('',*,*,#626,.T.);
#842=ORIENTED_EDGE('',*,*,#627,.F.);
#843=ORIENTED_EDGE('',*,*,#626,.F.);
#844=ORIENTED_EDGE('',*,*,#628,.F.);
#845=ORIENTED_EDGE('',*,*,#629,.T.);
#846=ORIENTED_EDGE('',*,*,#630,.F.);
#847=ORIENTED_EDGE('',*,*,#629,.F.);
#848=ORIENTED_EDGE('',*,*,#631,.F.);
#849=ORIENTED_EDGE('',*,*,#632,.T.);
#850=ORIENTED_EDGE('',*,*,#633,.F.);
#851=ORIENTED_EDGE('',*,*,#632,.F.);
#852=ORIENTED_EDGE('',*,*,#634,.T.);
#853=ORIENTED_EDGE('',*,*,#635,.T.);
#854=ORIENTED_EDGE('',*,*,#636,.F.);
#855=ORIENTED_EDGE('',*,*,#637,.F.);
#856=ORIENTED_EDGE('',*,*,#638,.T.);
#857=ORIENTED_EDGE('',*,*,#637,.T.);
#858=ORIENTED_EDGE('',*,*,#639,.F.);
#859=ORIENTED_EDGE('',*,*,#640,.F.);
#860=ORIENTED_EDGE('',*,*,#641,.T.);
#861=ORIENTED_EDGE('',*,*,#640,.T.);
#862=ORIENTED_EDGE('',*,*,#642,.F.);
#863=ORIENTED_EDGE('',*,*,#643,.F.);
#864=ORIENTED_EDGE('',*,*,#644,.T.);
#865=ORIENTED_EDGE('',*,*,#643,.T.);
#866=ORIENTED_EDGE('',*,*,#645,.F.);
#867=ORIENTED_EDGE('',*,*,#635,.F.);
#868=ORIENTED_EDGE('',*,*,#644,.F.);
#869=ORIENTED_EDGE('',*,*,#634,.F.);
#870=ORIENTED_EDGE('',*,*,#638,.F.);
#871=ORIENTED_EDGE('',*,*,#641,.F.);
#872=ORIENTED_EDGE('',*,*,#633,.T.);
#873=ORIENTED_EDGE('',*,*,#630,.T.);
#874=ORIENTED_EDGE('',*,*,#627,.T.);
#875=ORIENTED_EDGE('',*,*,#624,.T.);
#876=ORIENTED_EDGE('',*,*,#621,.T.);
#877=ORIENTED_EDGE('',*,*,#645,.T.);
#878=ORIENTED_EDGE('',*,*,#642,.T.);
#879=ORIENTED_EDGE('',*,*,#639,.T.);
#880=ORIENTED_EDGE('',*,*,#636,.T.);
#881=ORIENTED_EDGE('',*,*,#631,.T.);
#882=ORIENTED_EDGE('',*,*,#628,.T.);
#883=ORIENTED_EDGE('',*,*,#625,.T.);
#884=ORIENTED_EDGE('',*,*,#622,.T.);
#885=ORIENTED_EDGE('',*,*,#619,.T.);
#886=CYLINDRICAL_SURFACE('',#990,0.3);
#887=CYLINDRICAL_SURFACE('',#1002,0.3);
#888=CYLINDRICAL_SURFACE('',#1005,0.05);
#889=CYLINDRICAL_SURFACE('',#1007,0.05);
#890=CYLINDRICAL_SURFACE('',#1009,0.05);
#891=CYLINDRICAL_SURFACE('',#1011,0.05);
#892=CYLINDRICAL_SURFACE('',#1013,0.05);
#893=CYLINDRICAL_SURFACE('',#1015,0.1375);
#894=CYLINDRICAL_SURFACE('',#1037,0.05);
#895=CYLINDRICAL_SURFACE('',#1040,0.0999999999999999);
#896=CYLINDRICAL_SURFACE('',#1047,0.05);
#897=CYLINDRICAL_SURFACE('',#1052,0.05);
#898=CYLINDRICAL_SURFACE('',#1057,0.05);
#899=CYLINDRICAL_SURFACE('',#1062,0.05);
#900=CYLINDRICAL_SURFACE('',#1067,0.05);
#901=CYLINDRICAL_SURFACE('',#1070,0.05);
#902=CYLINDRICAL_SURFACE('',#1073,0.05);
#903=CYLINDRICAL_SURFACE('',#1076,0.05);
#904=CYLINDRICAL_SURFACE('',#1079,0.05);
#905=CYLINDRICAL_SURFACE('',#1082,0.05);
#906=ADVANCED_FACE('',(#99),#886,.T.);
#907=ADVANCED_FACE('',(#100),#58,.T.);
#908=ADVANCED_FACE('',(#101,#33,#34,#35,#36,#37,#38),#59,.T.);
#909=ADVANCED_FACE('',(#102),#887,.T.);
#910=ADVANCED_FACE('',(#103),#60,.T.);
#911=ADVANCED_FACE('',(#104),#888,.F.);
#912=ADVANCED_FACE('',(#105),#889,.F.);
#913=ADVANCED_FACE('',(#106),#890,.F.);
#914=ADVANCED_FACE('',(#107),#891,.F.);
#915=ADVANCED_FACE('',(#108),#892,.F.);
#916=ADVANCED_FACE('',(#109),#893,.F.);
#917=ADVANCED_FACE('',(#110),#61,.T.);
#918=ADVANCED_FACE('',(#111),#62,.T.);
#919=ADVANCED_FACE('',(#112,#39,#40,#41,#42,#43,#44),#63,.F.);
#920=ADVANCED_FACE('',(#113),#64,.F.);
#921=ADVANCED_FACE('',(#114),#65,.F.);
#922=ADVANCED_FACE('',(#115),#66,.F.);
#923=ADVANCED_FACE('',(#116),#67,.F.);
#924=ADVANCED_FACE('',(#117),#68,.F.);
#925=ADVANCED_FACE('',(#118),#69,.T.);
#926=ADVANCED_FACE('',(#119),#70,.T.);
#927=ADVANCED_FACE('',(#120,#45),#71,.T.);
#928=ADVANCED_FACE('',(#121),#72,.T.);
#929=ADVANCED_FACE('',(#122),#73,.T.);
#930=ADVANCED_FACE('',(#123),#74,.F.);
#931=ADVANCED_FACE('',(#124),#75,.T.);
#932=ADVANCED_FACE('',(#125),#76,.T.);
#933=ADVANCED_FACE('',(#126),#77,.T.);
#934=ADVANCED_FACE('',(#127),#78,.T.);
#935=ADVANCED_FACE('',(#128),#79,.T.);
#936=ADVANCED_FACE('',(#129),#80,.F.);
#937=ADVANCED_FACE('',(#130),#894,.F.);
#938=ADVANCED_FACE('',(#131),#895,.T.);
#939=ADVANCED_FACE('',(#132,#46),#81,.T.);
#940=ADVANCED_FACE('',(#133,#47),#82,.F.);
#941=ADVANCED_FACE('',(#134),#83,.F.);
#942=ADVANCED_FACE('',(#135),#896,.T.);
#943=ADVANCED_FACE('',(#136),#84,.T.);
#944=ADVANCED_FACE('',(#137),#85,.F.);
#945=ADVANCED_FACE('',(#138),#897,.T.);
#946=ADVANCED_FACE('',(#139),#86,.T.);
#947=ADVANCED_FACE('',(#140),#87,.F.);
#948=ADVANCED_FACE('',(#141),#898,.T.);
#949=ADVANCED_FACE('',(#142),#88,.T.);
#950=ADVANCED_FACE('',(#143),#89,.F.);
#951=ADVANCED_FACE('',(#144),#899,.T.);
#952=ADVANCED_FACE('',(#145),#90,.T.);
#953=ADVANCED_FACE('',(#146),#91,.F.);
#954=ADVANCED_FACE('',(#147),#900,.T.);
#955=ADVANCED_FACE('',(#148),#92,.T.);
#956=ADVANCED_FACE('',(#149),#901,.F.);
#957=ADVANCED_FACE('',(#150),#902,.F.);
#958=ADVANCED_FACE('',(#151),#903,.F.);
#959=ADVANCED_FACE('',(#152),#904,.F.);
#960=ADVANCED_FACE('',(#153),#905,.F.);
#961=ADVANCED_FACE('',(#154),#93,.T.);
#962=ADVANCED_FACE('',(#155),#94,.T.);
#963=ADVANCED_FACE('',(#156),#95,.T.);
#964=ADVANCED_FACE('',(#157),#96,.T.);
#965=ADVANCED_FACE('',(#158,#48,#49,#50,#51,#52),#97,.T.);
#966=ADVANCED_FACE('',(#159,#53,#54,#55,#56,#57),#98,.F.);
#967=CLOSED_SHELL('',(#906,#907,#908,#909,#910,#911,#912,#913,#914,#915,
#916,#917,#918,#919));
#968=CLOSED_SHELL('',(#920,#921,#922,#923,#924,#925,#926,#927,#928,#929,
#930));
#969=CLOSED_SHELL('',(#931,#932,#933,#934,#935,#936));
#970=CLOSED_SHELL('',(#937,#938,#939,#940));
#971=CLOSED_SHELL('',(#941,#942,#943));
#972=CLOSED_SHELL('',(#944,#945,#946));
#973=CLOSED_SHELL('',(#947,#948,#949));
#974=CLOSED_SHELL('',(#950,#951,#952));
#975=CLOSED_SHELL('',(#953,#954,#955));
#976=CLOSED_SHELL('',(#956,#957,#958,#959,#960,#961,#962,#963,#964,#965,
#966));
#977=DERIVED_UNIT_ELEMENT(#979,1.);
#978=DERIVED_UNIT_ELEMENT(#1642,-3.);
#979=(
MASS_UNIT()
NAMED_UNIT(*)
SI_UNIT(.KILO.,.GRAM.)
);
#980=DERIVED_UNIT((#977,#978));
#981=MEASURE_REPRESENTATION_ITEM('density measure',
POSITIVE_RATIO_MEASURE(7850.),#980);
#982=PROPERTY_DEFINITION_REPRESENTATION(#987,#984);
#983=PROPERTY_DEFINITION_REPRESENTATION(#988,#985);
#984=REPRESENTATION('material name',(#986),#1639);
#985=REPRESENTATION('density',(#981),#1639);
#986=DESCRIPTIVE_REPRESENTATION_ITEM('Steel','Steel');
#987=PROPERTY_DEFINITION('material property','material name',#1649);
#988=PROPERTY_DEFINITION('material property','density of part',#1649);
#989=AXIS2_PLACEMENT_3D('',#1375,#1091,#1092);
#990=AXIS2_PLACEMENT_3D('',#1376,#1093,#1094);
#991=AXIS2_PLACEMENT_3D('',#1379,#1095,#1096);
#992=AXIS2_PLACEMENT_3D('',#1383,#1098,#1099);
#993=AXIS2_PLACEMENT_3D('',#1385,#1101,#1102);
#994=AXIS2_PLACEMENT_3D('',#1391,#1106,#1107);
#995=AXIS2_PLACEMENT_3D('',#1395,#1109,#1110);
#996=AXIS2_PLACEMENT_3D('',#1400,#1113,#1114);
#997=AXIS2_PLACEMENT_3D('',#1402,#1115,#1116);
#998=AXIS2_PLACEMENT_3D('',#1404,#1117,#1118);
#999=AXIS2_PLACEMENT_3D('',#1406,#1119,#1120);
#1000=AXIS2_PLACEMENT_3D('',#1408,#1121,#1122);
#1001=AXIS2_PLACEMENT_3D('',#1410,#1123,#1124);
#1002=AXIS2_PLACEMENT_3D('',#1411,#1125,#1126);
#1003=AXIS2_PLACEMENT_3D('',#1414,#1127,#1128);
#1004=AXIS2_PLACEMENT_3D('',#1417,#1131,#1132);
#1005=AXIS2_PLACEMENT_3D('',#1421,#1135,#1136);
#1006=AXIS2_PLACEMENT_3D('',#1423,#1137,#1138);
#1007=AXIS2_PLACEMENT_3D('',#1425,#1140,#1141);
#1008=AXIS2_PLACEMENT_3D('',#1427,#1142,#1143);
#1009=AXIS2_PLACEMENT_3D('',#1429,#1145,#1146);
#1010=AXIS2_PLACEMENT_3D('',#1431,#1147,#1148);
#1011=AXIS2_PLACEMENT_3D('',#1433,#1150,#1151);
#1012=AXIS2_PLACEMENT_3D('',#1435,#1152,#1153);
#1013=AXIS2_PLACEMENT_3D('',#1437,#1155,#1156);
#1014=AXIS2_PLACEMENT_3D('',#1439,#1157,#1158);
#1015=AXIS2_PLACEMENT_3D('',#1441,#1160,#1161);
#1016=AXIS2_PLACEMENT_3D('',#1443,#1162,#1163);
#1017=AXIS2_PLACEMENT_3D('',#1445,#1165,#1166);
#1018=AXIS2_PLACEMENT_3D('',#1447,#1168,#1169);
#1019=AXIS2_PLACEMENT_3D('',#1449,#1171,#1172);
#1020=AXIS2_PLACEMENT_3D('',#1450,#1173,#1174);
#1021=AXIS2_PLACEMENT_3D('',#1459,#1179,#1180);
#1022=AXIS2_PLACEMENT_3D('',#1465,#1184,#1185);
#1023=AXIS2_PLACEMENT_3D('',#1471,#1189,#1190);
#1024=AXIS2_PLACEMENT_3D('',#1474,#1193,#1194);
#1025=AXIS2_PLACEMENT_3D('',#1475,#1195,#1196);
#1026=AXIS2_PLACEMENT_3D('',#1484,#1201,#1202);
#1027=AXIS2_PLACEMENT_3D('',#1490,#1206,#1207);
#1028=AXIS2_PLACEMENT_3D('',#1496,#1211,#1212);
#1029=AXIS2_PLACEMENT_3D('',#1499,#1215,#1216);
#1030=AXIS2_PLACEMENT_3D('',#1500,#1217,#1218);
#1031=AXIS2_PLACEMENT_3D('',#1501,#1219,#1220);
#1032=AXIS2_PLACEMENT_3D('',#1510,#1225,#1226);
#1033=AXIS2_PLACEMENT_3D('',#1516,#1230,#1231);
#1034=AXIS2_PLACEMENT_3D('',#1522,#1235,#1236);
#1035=AXIS2_PLACEMENT_3D('',#1525,#1239,#1240);
#1036=AXIS2_PLACEMENT_3D('',#1526,#1241,#1242);
#1037=AXIS2_PLACEMENT_3D('',#1527,#1243,#1244);
#1038=AXIS2_PLACEMENT_3D('',#1529,#1245,#1246);
#1039=AXIS2_PLACEMENT_3D('',#1532,#1248,#1249);
#1040=AXIS2_PLACEMENT_3D('',#1533,#1250,#1251);
#1041=AXIS2_PLACEMENT_3D('',#1535,#1252,#1253);
#1042=AXIS2_PLACEMENT_3D('',#1538,#1255,#1256);
#1043=AXIS2_PLACEMENT_3D('',#1539,#1257,#1258);
#1044=AXIS2_PLACEMENT_3D('',#1540,#1259,#1260);
#1045=AXIS2_PLACEMENT_3D('',#1541,#1261,#1262);
#1046=AXIS2_PLACEMENT_3D('',#1543,#1263,#1264);
#1047=AXIS2_PLACEMENT_3D('',#1544,#1265,#1266);
#1048=AXIS2_PLACEMENT_3D('',#1546,#1267,#1268);
#1049=AXIS2_PLACEMENT_3D('',#1548,#1270,#1271);
#1050=AXIS2_PLACEMENT_3D('',#1549,#1272,#1273);
#1051=AXIS2_PLACEMENT_3D('',#1551,#1274,#1275);
#1052=AXIS2_PLACEMENT_3D('',#1552,#1276,#1277);
#1053=AXIS2_PLACEMENT_3D('',#1554,#1278,#1279);
#1054=AXIS2_PLACEMENT_3D('',#1556,#1281,#1282);
#1055=AXIS2_PLACEMENT_3D('',#1557,#1283,#1284);
#1056=AXIS2_PLACEMENT_3D('',#1559,#1285,#1286);
#1057=AXIS2_PLACEMENT_3D('',#1560,#1287,#1288);
#1058=AXIS2_PLACEMENT_3D('',#1562,#1289,#1290);
#1059=AXIS2_PLACEMENT_3D('',#1564,#1292,#1293);
#1060=AXIS2_PLACEMENT_3D('',#1565,#1294,#1295);
#1061=AXIS2_PLACEMENT_3D('',#1567,#1296,#1297);
#1062=AXIS2_PLACEMENT_3D('',#1568,#1298,#1299);
#1063=AXIS2_PLACEMENT_3D('',#1570,#1300,#1301);
#1064=AXIS2_PLACEMENT_3D('',#1572,#1303,#1304);
#1065=AXIS2_PLACEMENT_3D('',#1573,#1305,#1306);
#1066=AXIS2_PLACEMENT_3D('',#1575,#1307,#1308);
#1067=AXIS2_PLACEMENT_3D('',#1576,#1309,#1310);
#1068=AXIS2_PLACEMENT_3D('',#1578,#1311,#1312);
#1069=AXIS2_PLACEMENT_3D('',#1580,#1314,#1315);
#1070=AXIS2_PLACEMENT_3D('',#1581,#1316,#1317);
#1071=AXIS2_PLACEMENT_3D('',#1583,#1318,#1319);
#1072=AXIS2_PLACEMENT_3D('',#1586,#1321,#1322);
#1073=AXIS2_PLACEMENT_3D('',#1587,#1323,#1324);
#1074=AXIS2_PLACEMENT_3D('',#1589,#1325,#1326);
#1075=AXIS2_PLACEMENT_3D('',#1592,#1328,#1329);
#1076=AXIS2_PLACEMENT_3D('',#1593,#1330,#1331);
#1077=AXIS2_PLACEMENT_3D('',#1595,#1332,#1333);
#1078=AXIS2_PLACEMENT_3D('',#1598,#1335,#1336);
#1079=AXIS2_PLACEMENT_3D('',#1599,#1337,#1338);
#1080=AXIS2_PLACEMENT_3D('',#1601,#1339,#1340);
#1081=AXIS2_PLACEMENT_3D('',#1604,#1342,#1343);
#1082=AXIS2_PLACEMENT_3D('',#1605,#1344,#1345);
#1083=AXIS2_PLACEMENT_3D('',#1607,#1346,#1347);
#1084=AXIS2_PLACEMENT_3D('',#1610,#1349,#1350);
#1085=AXIS2_PLACEMENT_3D('',#1611,#1351,#1352);
#1086=AXIS2_PLACEMENT_3D('',#1620,#1357,#1358);
#1087=AXIS2_PLACEMENT_3D('',#1626,#1362,#1363);
#1088=AXIS2_PLACEMENT_3D('',#1632,#1367,#1368);
#1089=AXIS2_PLACEMENT_3D('',#1635,#1371,#1372);
#1090=AXIS2_PLACEMENT_3D('',#1636,#1373,#1374);
#1091=DIRECTION('axis',(0.,0.,1.));
#1092=DIRECTION('refdir',(1.,0.,0.));
#1093=DIRECTION('center_axis',(0.,0.,-1.));
#1094=DIRECTION('ref_axis',(0.707106781186548,0.707106781186548,0.));
#1095=DIRECTION('center_axis',(0.,0.,1.));
#1096=DIRECTION('ref_axis',(0.707106781186548,0.707106781186548,0.));
#1097=DIRECTION('',(0.,0.,1.));
#1098=DIRECTION('center_axis',(0.,0.,-1.));
#1099=DIRECTION('ref_axis',(0.707106781186548,0.707106781186548,0.));
#1100=DIRECTION('',(0.,0.,-1.));
#1101=DIRECTION('center_axis',(1.,0.,0.));
#1102=DIRECTION('ref_axis',(0.,-1.,0.));
#1103=DIRECTION('',(0.,-1.,0.));
#1104=DIRECTION('',(0.,0.,-1.));
#1105=DIRECTION('',(0.,-1.,0.));
#1106=DIRECTION('center_axis',(0.,0.,1.));
#1107=DIRECTION('ref_axis',(1.,0.,0.));
#1108=DIRECTION('',(1.,0.,0.));
#1109=DIRECTION('center_axis',(0.,0.,-1.));
#1110=DIRECTION('ref_axis',(-0.707106781186548,0.707106781186548,0.));
#1111=DIRECTION('',(0.,1.,0.));
#1112=DIRECTION('',(1.,0.,0.));
#1113=DIRECTION('center_axis',(0.,0.,-1.));
#1114=DIRECTION('ref_axis',(1.,0.,0.));
#1115=DIRECTION('center_axis',(0.,0.,-1.));
#1116=DIRECTION('ref_axis',(1.,0.,0.));
#1117=DIRECTION('center_axis',(0.,0.,-1.));
#1118=DIRECTION('ref_axis',(1.,0.,0.));
#1119=DIRECTION('center_axis',(0.,0.,-1.));
#1120=DIRECTION('ref_axis',(1.,0.,0.));
#1121=DIRECTION('center_axis',(0.,0.,-1.));
#1122=DIRECTION('ref_axis',(1.,0.,0.));
#1123=DIRECTION('center_axis',(0.,0.,-1.));
#1124=DIRECTION('ref_axis',(1.,0.,0.));
#1125=DIRECTION('center_axis',(0.,0.,-1.));
#1126=DIRECTION('ref_axis',(-0.707106781186548,0.707106781186548,0.));
#1127=DIRECTION('center_axis',(0.,0.,1.));
#1128=DIRECTION('ref_axis',(-0.707106781186548,0.707106781186548,0.));
#1129=DIRECTION('',(0.,0.,1.));
#1130=DIRECTION('',(0.,0.,-1.));
#1131=DIRECTION('center_axis',(-1.,0.,0.));
#1132=DIRECTION('ref_axis',(0.,1.,0.));
#1133=DIRECTION('',(0.,1.,0.));
#1134=DIRECTION('',(0.,0.,-1.));
#1135=DIRECTION('center_axis',(0.,0.,-1.));
#1136=DIRECTION('ref_axis',(1.,0.,0.));
#1137=DIRECTION('center_axis',(0.,0.,1.));
#1138=DIRECTION('ref_axis',(1.,0.,0.));
#1139=DIRECTION('',(0.,0.,1.));
#1140=DIRECTION('center_axis',(0.,0.,-1.));
#1141=DIRECTION('ref_axis',(1.,0.,0.));
#1142=DIRECTION('center_axis',(0.,0.,1.));
#1143=DIRECTION('ref_axis',(1.,0.,0.));
#1144=DIRECTION('',(0.,0.,1.));
#1145=DIRECTION('center_axis',(0.,0.,-1.));
#1146=DIRECTION('ref_axis',(1.,0.,0.));
#1147=DIRECTION('center_axis',(0.,0.,1.));
#1148=DIRECTION('ref_axis',(1.,0.,0.));
#1149=DIRECTION('',(0.,0.,1.));
#1150=DIRECTION('center_axis',(0.,0.,-1.));
#1151=DIRECTION('ref_axis',(1.,0.,0.));
#1152=DIRECTION('center_axis',(0.,0.,1.));
#1153=DIRECTION('ref_axis',(1.,0.,0.));
#1154=DIRECTION('',(0.,0.,1.));
#1155=DIRECTION('center_axis',(0.,0.,-1.));
#1156=DIRECTION('ref_axis',(1.,0.,0.));
#1157=DIRECTION('center_axis',(0.,0.,1.));
#1158=DIRECTION('ref_axis',(1.,0.,0.));
#1159=DIRECTION('',(0.,0.,1.));
#1160=DIRECTION('center_axis',(0.,0.,-1.));
#1161=DIRECTION('ref_axis',(1.,0.,0.));
#1162=DIRECTION('center_axis',(0.,0.,1.));
#1163=DIRECTION('ref_axis',(1.,0.,0.));
#1164=DIRECTION('',(0.,0.,1.));
#1165=DIRECTION('center_axis',(0.,1.,0.));
#1166=DIRECTION('ref_axis',(1.,0.,0.));
#1167=DIRECTION('',(1.,0.,0.));
#1168=DIRECTION('center_axis',(0.,-1.,0.));
#1169=DIRECTION('ref_axis',(-1.,0.,0.));
#1170=DIRECTION('',(-1.,0.,0.));
#1171=DIRECTION('center_axis',(0.,0.,1.));
#1172=DIRECTION('ref_axis',(1.,0.,0.));
#1173=DIRECTION('center_axis',(0.,0.,-1.));
#1174=DIRECTION('ref_axis',(-1.,0.,0.));
#1175=DIRECTION('',(-1.,0.,0.));
#1176=DIRECTION('',(0.,1.,0.));
#1177=DIRECTION('',(-1.,0.,0.));
#1178=DIRECTION('',(0.,1.,0.));
#1179=DIRECTION('center_axis',(1.,0.,1.11022302462516E-15));
#1180=DIRECTION('ref_axis',(1.11022302462516E-15,0.,-1.));
#1181=DIRECTION('',(1.11022302462516E-15,0.,-1.));
#1182=DIRECTION('',(0.,1.,0.));
#1183=DIRECTION('',(1.11022302462516E-15,0.,-1.));
#1184=DIRECTION('center_axis',(0.,0.,1.));
#1185=DIRECTION('ref_axis',(1.,0.,0.));
#1186=DIRECTION('',(1.,0.,0.));
#1187=DIRECTION('',(0.,1.,0.));
#1188=DIRECTION('',(1.,0.,0.));
#1189=DIRECTION('center_axis',(-1.,0.,-1.11022302462516E-15));
#1190=DIRECTION('ref_axis',(-1.11022302462516E-15,0.,1.));
#1191=DIRECTION('',(-1.11022302462516E-15,0.,1.));
#1192=DIRECTION('',(-1.11022302462516E-15,0.,1.));
#1193=DIRECTION('center_axis',(0.,1.,0.));
#1194=DIRECTION('ref_axis',(0.,0.,1.));
#1195=DIRECTION('center_axis',(0.,1.,0.));
#1196=DIRECTION('ref_axis',(-1.,0.,0.));
#1197=DIRECTION('',(-1.,0.,0.));
#1198=DIRECTION('',(0.,0.,1.));
#1199=DIRECTION('',(-1.,0.,0.));
#1200=DIRECTION('',(0.,0.,1.));
#1201=DIRECTION('center_axis',(1.,0.,0.));
#1202=DIRECTION('ref_axis',(0.,1.,0.));
#1203=DIRECTION('',(0.,1.,0.));
#1204=DIRECTION('',(0.,1.,0.));
#1205=DIRECTION('',(0.,0.,1.));
#1206=DIRECTION('center_axis',(0.,-1.,0.));
#1207=DIRECTION('ref_axis',(1.,0.,0.));
#1208=DIRECTION('',(1.,0.,0.));
#1209=DIRECTION('',(1.,0.,0.));
#1210=DIRECTION('',(0.,0.,1.));
#1211=DIRECTION('center_axis',(-1.,0.,0.));
#1212=DIRECTION('ref_axis',(0.,-1.,0.));
#1213=DIRECTION('',(0.,-1.,0.));
#1214=DIRECTION('',(0.,-1.,0.));
#1215=DIRECTION('center_axis',(0.,0.,1.));
#1216=DIRECTION('ref_axis',(1.,0.,0.));
#1217=DIRECTION('center_axis',(0.,0.,1.));
#1218=DIRECTION('ref_axis',(1.,0.,0.));
#1219=DIRECTION('center_axis',(1.,0.,0.));
#1220=DIRECTION('ref_axis',(0.,1.,0.));
#1221=DIRECTION('',(0.,-1.,0.));
#1222=DIRECTION('',(0.,0.,1.));
#1223=DIRECTION('',(0.,1.,0.));
#1224=DIRECTION('',(0.,0.,1.));
#1225=DIRECTION('center_axis',(0.,-1.,0.));
#1226=DIRECTION('ref_axis',(1.,0.,0.));
#1227=DIRECTION('',(-1.,0.,0.));
#1228=DIRECTION('',(1.,0.,0.));
#1229=DIRECTION('',(0.,0.,1.));
#1230=DIRECTION('center_axis',(-1.,0.,0.));
#1231=DIRECTION('ref_axis',(0.,-1.,0.));
#1232=DIRECTION('',(0.,1.,0.));
#1233=DIRECTION('',(0.,-1.,0.));
#1234=DIRECTION('',(0.,0.,1.));
#1235=DIRECTION('center_axis',(0.,1.,0.));
#1236=DIRECTION('ref_axis',(-1.,0.,0.));
#1237=DIRECTION('',(1.,0.,0.));
#1238=DIRECTION('',(-1.,0.,0.));
#1239=DIRECTION('center_axis',(0.,0.,1.));
#1240=DIRECTION('ref_axis',(1.,0.,0.));
#1241=DIRECTION('center_axis',(0.,0.,1.));
#1242=DIRECTION('ref_axis',(1.,0.,0.));
#1243=DIRECTION('center_axis',(0.,0.,1.));
#1244=DIRECTION('ref_axis',(1.,0.,0.));
#1245=DIRECTION('center_axis',(0.,0.,-1.));
#1246=DIRECTION('ref_axis',(1.,0.,0.));
#1247=DIRECTION('',(0.,0.,-1.));
#1248=DIRECTION('center_axis',(0.,0.,-1.));
#1249=DIRECTION('ref_axis',(1.,0.,0.));
#1250=DIRECTION('center_axis',(0.,0.,1.));
#1251=DIRECTION('ref_axis',(1.,0.,0.));
#1252=DIRECTION('center_axis',(0.,0.,1.));
#1253=DIRECTION('ref_axis',(1.,0.,0.));
#1254=DIRECTION('',(0.,0.,-1.));
#1255=DIRECTION('center_axis',(0.,0.,1.));
#1256=DIRECTION('ref_axis',(1.,0.,0.));
#1257=DIRECTION('center_axis',(0.,0.,1.));
#1258=DIRECTION('ref_axis',(1.,0.,0.));
#1259=DIRECTION('center_axis',(0.,0.,1.));
#1260=DIRECTION('ref_axis',(1.,0.,0.));
#1261=DIRECTION('center_axis',(0.,0.,1.));
#1262=DIRECTION('ref_axis',(1.,0.,0.));
#1263=DIRECTION('center_axis',(0.,0.,-1.));
#1264=DIRECTION('ref_axis',(1.,0.,0.));
#1265=DIRECTION('center_axis',(0.,0.,1.));
#1266=DIRECTION('ref_axis',(1.,0.,0.));
#1267=DIRECTION('center_axis',(0.,0.,1.));
#1268=DIRECTION('ref_axis',(1.,0.,0.));
#1269=DIRECTION('',(0.,0.,-1.));
#1270=DIRECTION('center_axis',(0.,0.,1.));
#1271=DIRECTION('ref_axis',(1.,0.,0.));
#1272=DIRECTION('center_axis',(0.,0.,1.));
#1273=DIRECTION('ref_axis',(1.,0.,0.));
#1274=DIRECTION('center_axis',(0.,0.,-1.));
#1275=DIRECTION('ref_axis',(1.,0.,0.));
#1276=DIRECTION('center_axis',(0.,0.,1.));
#1277=DIRECTION('ref_axis',(1.,0.,0.));
#1278=DIRECTION('center_axis',(0.,0.,1.));
#1279=DIRECTION('ref_axis',(1.,0.,0.));
#1280=DIRECTION('',(0.,0.,-1.));
#1281=DIRECTION('center_axis',(0.,0.,1.));
#1282=DIRECTION('ref_axis',(1.,0.,0.));
#1283=DIRECTION('center_axis',(0.,0.,1.));
#1284=DIRECTION('ref_axis',(1.,0.,0.));
#1285=DIRECTION('center_axis',(0.,0.,-1.));
#1286=DIRECTION('ref_axis',(1.,0.,0.));
#1287=DIRECTION('center_axis',(0.,0.,1.));
#1288=DIRECTION('ref_axis',(1.,0.,0.));
#1289=DIRECTION('center_axis',(0.,0.,1.));
#1290=DIRECTION('ref_axis',(1.,0.,0.));
#1291=DIRECTION('',(0.,0.,-1.));
#1292=DIRECTION('center_axis',(0.,0.,1.));
#1293=DIRECTION('ref_axis',(1.,0.,0.));
#1294=DIRECTION('center_axis',(0.,0.,1.));
#1295=DIRECTION('ref_axis',(1.,0.,0.));
#1296=DIRECTION('center_axis',(0.,0.,-1.));
#1297=DIRECTION('ref_axis',(1.,0.,0.));
#1298=DIRECTION('center_axis',(0.,0.,1.));
#1299=DIRECTION('ref_axis',(1.,0.,0.));
#1300=DIRECTION('center_axis',(0.,0.,1.));
#1301=DIRECTION('ref_axis',(1.,0.,0.));
#1302=DIRECTION('',(0.,0.,-1.));
#1303=DIRECTION('center_axis',(0.,0.,1.));
#1304=DIRECTION('ref_axis',(1.,0.,0.));
#1305=DIRECTION('center_axis',(0.,0.,1.));
#1306=DIRECTION('ref_axis',(1.,0.,0.));
#1307=DIRECTION('center_axis',(0.,0.,-1.));
#1308=DIRECTION('ref_axis',(1.,0.,0.));
#1309=DIRECTION('center_axis',(0.,0.,1.));
#1310=DIRECTION('ref_axis',(1.,0.,0.));
#1311=DIRECTION('center_axis',(0.,0.,1.));
#1312=DIRECTION('ref_axis',(1.,0.,0.));
#1313=DIRECTION('',(0.,0.,-1.));
#1314=DIRECTION('center_axis',(0.,0.,1.));
#1315=DIRECTION('ref_axis',(1.,0.,0.));
#1316=DIRECTION('center_axis',(0.,0.,-1.));
#1317=DIRECTION('ref_axis',(1.,0.,0.));
#1318=DIRECTION('center_axis',(0.,0.,1.));
#1319=DIRECTION('ref_axis',(1.,0.,0.));
#1320=DIRECTION('',(0.,0.,1.));
#1321=DIRECTION('center_axis',(0.,0.,-1.));
#1322=DIRECTION('ref_axis',(1.,0.,0.));
#1323=DIRECTION('center_axis',(0.,0.,-1.));
#1324=DIRECTION('ref_axis',(1.,0.,0.));
#1325=DIRECTION('center_axis',(0.,0.,1.));
#1326=DIRECTION('ref_axis',(1.,0.,0.));
#1327=DIRECTION('',(0.,0.,1.));
#1328=DIRECTION('center_axis',(0.,0.,-1.));
#1329=DIRECTION('ref_axis',(1.,0.,0.));
#1330=DIRECTION('center_axis',(0.,0.,-1.));
#1331=DIRECTION('ref_axis',(1.,0.,0.));
#1332=DIRECTION('center_axis',(0.,0.,1.));
#1333=DIRECTION('ref_axis',(1.,0.,0.));
#1334=DIRECTION('',(0.,0.,1.));
#1335=DIRECTION('center_axis',(0.,0.,-1.));
#1336=DIRECTION('ref_axis',(1.,0.,0.));
#1337=DIRECTION('center_axis',(0.,0.,-1.));
#1338=DIRECTION('ref_axis',(1.,0.,0.));
#1339=DIRECTION('center_axis',(0.,0.,1.));
#1340=DIRECTION('ref_axis',(1.,0.,0.));
#1341=DIRECTION('',(0.,0.,1.));
#1342=DIRECTION('center_axis',(0.,0.,-1.));
#1343=DIRECTION('ref_axis',(1.,0.,0.));
#1344=DIRECTION('center_axis',(0.,0.,-1.));
#1345=DIRECTION('ref_axis',(1.,0.,0.));
#1346=DIRECTION('center_axis',(0.,0.,1.));
#1347=DIRECTION('ref_axis',(1.,0.,0.));
#1348=DIRECTION('',(0.,0.,1.));
#1349=DIRECTION('center_axis',(0.,0.,-1.));
#1350=DIRECTION('ref_axis',(1.,0.,0.));
#1351=DIRECTION('center_axis',(1.,0.,0.));
#1352=DIRECTION('ref_axis',(0.,-1.,0.));
#1353=DIRECTION('',(0.,-1.,0.));
#1354=DIRECTION('',(0.,0.,-1.));
#1355=DIRECTION('',(0.,-1.,0.));
#1356=DIRECTION('',(0.,0.,-1.));
#1357=DIRECTION('center_axis',(0.,1.,0.));
#1358=DIRECTION('ref_axis',(1.,0.,0.));
#1359=DIRECTION('',(1.,0.,0.));
#1360=DIRECTION('',(1.,0.,0.));
#1361=DIRECTION('',(0.,0.,-1.));
#1362=DIRECTION('center_axis',(-1.,0.,0.));
#1363=DIRECTION('ref_axis',(0.,1.,0.));
#1364=DIRECTION('',(0.,1.,0.));
#1365=DIRECTION('',(0.,1.,0.));
#1366=DIRECTION('',(0.,0.,-1.));
#1367=DIRECTION('center_axis',(0.,-1.,0.));
#1368=DIRECTION('ref_axis',(-1.,0.,0.));
#1369=DIRECTION('',(-1.,0.,0.));
#1370=DIRECTION('',(-1.,0.,0.));
#1371=DIRECTION('center_axis',(0.,0.,1.));
#1372=DIRECTION('ref_axis',(1.,0.,0.));
#1373=DIRECTION('center_axis',(0.,0.,1.));
#1374=DIRECTION('ref_axis',(1.,0.,0.));
#1375=CARTESIAN_POINT('',(0.,0.,0.));
#1376=CARTESIAN_POINT('Origin',(1.075,1.0375,0.));
#1377=CARTESIAN_POINT('',(1.375,1.0375,-0.125));
#1378=CARTESIAN_POINT('',(1.075,1.3375,-0.125));
#1379=CARTESIAN_POINT('Origin',(1.075,1.0375,-0.125));
#1380=CARTESIAN_POINT('',(1.075,1.3375,0.));
#1381=CARTESIAN_POINT('',(1.075,1.3375,0.));
#1382=CARTESIAN_POINT('',(1.375,1.0375,0.));
#1383=CARTESIAN_POINT('Origin',(1.075,1.0375,0.));
#1384=CARTESIAN_POINT('',(1.375,1.0375,0.));
#1385=CARTESIAN_POINT('Origin',(1.375,1.3375,0.));
#1386=CARTESIAN_POINT('',(1.375,-1.3375,0.));
#1387=CARTESIAN_POINT('',(1.375,1.3375,0.));
#1388=CARTESIAN_POINT('',(1.375,-1.3375,-0.125));
#1389=CARTESIAN_POINT('',(1.375,-1.3375,0.));
#1390=CARTESIAN_POINT('',(1.375,1.3375,-0.125));
#1391=CARTESIAN_POINT('Origin',(0.,0.,0.));
#1392=CARTESIAN_POINT('',(-1.075,1.3375,0.));
#1393=CARTESIAN_POINT('',(-1.375,1.3375,0.));
#1394=CARTESIAN_POINT('',(-1.375,1.0375,0.));
#1395=CARTESIAN_POINT('Origin',(-1.075,1.0375,0.));
#1396=CARTESIAN_POINT('',(-1.375,-1.3375,0.));
#1397=CARTESIAN_POINT('',(-1.375,-1.3375,0.));
#1398=CARTESIAN_POINT('',(-0.375,-1.3375,0.));
#1399=CARTESIAN_POINT('',(-1.075,-1.,0.));
#1400=CARTESIAN_POINT('Origin',(-0.9375,-1.,0.));
#1401=CARTESIAN_POINT('',(-0.05,1.2125,0.));
#1402=CARTESIAN_POINT('Origin',(0.,1.2125,0.));
#1403=CARTESIAN_POINT('',(-0.51,1.2125,0.));
#1404=CARTESIAN_POINT('Origin',(-0.46,1.2125,0.));
#1405=CARTESIAN_POINT('',(0.18,1.2125,0.));
#1406=CARTESIAN_POINT('Origin',(0.23,1.2125,0.));
#1407=CARTESIAN_POINT('',(-0.28,1.2125,0.));
#1408=CARTESIAN_POINT('Origin',(-0.23,1.2125,0.));
#1409=CARTESIAN_POINT('',(0.41,1.2125,0.));
#1410=CARTESIAN_POINT('Origin',(0.46,1.2125,0.));
#1411=CARTESIAN_POINT('Origin',(-1.075,1.0375,0.));
#1412=CARTESIAN_POINT('',(-1.075,1.3375,-0.125));
#1413=CARTESIAN_POINT('',(-1.375,1.0375,-0.125));
#1414=CARTESIAN_POINT('Origin',(-1.075,1.0375,-0.125));
#1415=CARTESIAN_POINT('',(-1.375,1.0375,0.));
#1416=CARTESIAN_POINT('',(-1.075,1.3375,0.));
#1417=CARTESIAN_POINT('Origin',(-1.375,-1.3375,0.));
#1418=CARTESIAN_POINT('',(-1.375,-1.3375,-0.125));
#1419=CARTESIAN_POINT('',(-1.375,-1.3375,-0.125));
#1420=CARTESIAN_POINT('',(-1.375,-1.3375,0.));
#1421=CARTESIAN_POINT('Origin',(0.46,1.2125,0.));
#1422=CARTESIAN_POINT('',(0.41,1.2125,-0.125));
#1423=CARTESIAN_POINT('Origin',(0.46,1.2125,-0.125));
#1424=CARTESIAN_POINT('',(0.41,1.2125,0.));
#1425=CARTESIAN_POINT('Origin',(-0.23,1.2125,0.));
#1426=CARTESIAN_POINT('',(-0.28,1.2125,-0.125));
#1427=CARTESIAN_POINT('Origin',(-0.23,1.2125,-0.125));
#1428=CARTESIAN_POINT('',(-0.28,1.2125,0.));
#1429=CARTESIAN_POINT('Origin',(0.23,1.2125,0.));
#1430=CARTESIAN_POINT('',(0.18,1.2125,-0.125));
#1431=CARTESIAN_POINT('Origin',(0.23,1.2125,-0.125));
#1432=CARTESIAN_POINT('',(0.18,1.2125,0.));
#1433=CARTESIAN_POINT('Origin',(-0.46,1.2125,0.));
#1434=CARTESIAN_POINT('',(-0.51,1.2125,-0.125));
#1435=CARTESIAN_POINT('Origin',(-0.46,1.2125,-0.125));
#1436=CARTESIAN_POINT('',(-0.51,1.2125,0.));
#1437=CARTESIAN_POINT('Origin',(0.,1.2125,0.));
#1438=CARTESIAN_POINT('',(-0.05,1.2125,-0.125));
#1439=CARTESIAN_POINT('Origin',(0.,1.2125,-0.125));
#1440=CARTESIAN_POINT('',(-0.05,1.2125,0.));
#1441=CARTESIAN_POINT('Origin',(-0.9375,-1.,0.));
#1442=CARTESIAN_POINT('',(-1.075,-1.,-0.125));
#1443=CARTESIAN_POINT('Origin',(-0.9375,-1.,-0.125));
#1444=CARTESIAN_POINT('',(-1.075,-1.,0.));
#1445=CARTESIAN_POINT('Origin',(-1.375,1.3375,0.));
#1446=CARTESIAN_POINT('',(-1.375,1.3375,-0.125));
#1447=CARTESIAN_POINT('Origin',(1.375,-1.3375,0.));
#1448=CARTESIAN_POINT('',(-0.375,-1.3375,-0.125));
#1449=CARTESIAN_POINT('Origin',(0.,0.,-0.125));
#1450=CARTESIAN_POINT('Origin',(0.3,-1.3375,0.075));
#1451=CARTESIAN_POINT('',(0.3,-1.3375,0.075));
#1452=CARTESIAN_POINT('',(-0.3,-1.3375,0.075));
#1453=CARTESIAN_POINT('',(-0.0375,-1.3375,0.075));
#1454=CARTESIAN_POINT('',(0.3,-0.7375,0.075));
#1455=CARTESIAN_POINT('',(0.3,-1.3375,0.075));
#1456=CARTESIAN_POINT('',(-0.3,-0.7375,0.075));
#1457=CARTESIAN_POINT('',(-0.3,-0.7375,0.075));
#1458=CARTESIAN_POINT('',(-0.3,-1.3375,0.075));
#1459=CARTESIAN_POINT('Origin',(0.3,-1.3375,0.175));
#1460=CARTESIAN_POINT('',(0.3,-1.3375,0.175));
#1461=CARTESIAN_POINT('',(0.3,-1.3375,0.0875000000000004));
#1462=CARTESIAN_POINT('',(0.3,-0.7375,0.175));
#1463=CARTESIAN_POINT('',(0.3,-1.3375,0.175));
#1464=CARTESIAN_POINT('',(0.3,-0.7375,0.075));
#1465=CARTESIAN_POINT('Origin',(-0.3,-1.3375,0.175));
#1466=CARTESIAN_POINT('',(-0.3,-1.3375,0.175));
#1467=CARTESIAN_POINT('',(-0.3375,-1.3375,0.175));
#1468=CARTESIAN_POINT('',(-0.3,-0.7375,0.175));
#1469=CARTESIAN_POINT('',(-0.3,-1.3375,0.175));
#1470=CARTESIAN_POINT('',(0.3,-0.7375,0.175));
#1471=CARTESIAN_POINT('Origin',(-0.3,-1.3375,0.075));
#1472=CARTESIAN_POINT('',(-0.3,-1.3375,0.0375));
#1473=CARTESIAN_POINT('',(-0.3,-0.7375,0.175));
#1474=CARTESIAN_POINT('Origin',(0.,-0.7375,0.125));
#1475=CARTESIAN_POINT('Origin',(0.375,-0.7225,0.));
#1476=CARTESIAN_POINT('',(0.375,-0.7225,0.));
#1477=CARTESIAN_POINT('',(-0.375,-0.7225,0.));
#1478=CARTESIAN_POINT('',(0.375,-0.7225,0.));
#1479=CARTESIAN_POINT('',(-0.375,-0.7225,0.25));
#1480=CARTESIAN_POINT('',(-0.375,-0.7225,0.));
#1481=CARTESIAN_POINT('',(0.375,-0.7225,0.25));
#1482=CARTESIAN_POINT('',(0.375,-0.7225,0.25));
#1483=CARTESIAN_POINT('',(0.375,-0.7225,0.));
#1484=CARTESIAN_POINT('Origin',(0.375,-1.3375,0.));
#1485=CARTESIAN_POINT('',(0.375,-1.3375,0.));
#1486=CARTESIAN_POINT('',(0.375,-1.3375,0.));
#1487=CARTESIAN_POINT('',(0.375,-1.3375,0.25));
#1488=CARTESIAN_POINT('',(0.375,-1.3375,0.25));
#1489=CARTESIAN_POINT('',(0.375,-1.3375,0.));
#1490=CARTESIAN_POINT('Origin',(-0.375,-1.3375,0.));
#1491=CARTESIAN_POINT('',(-0.375,-1.3375,0.));
#1492=CARTESIAN_POINT('',(-0.375,-1.3375,0.));
#1493=CARTESIAN_POINT('',(-0.375,-1.3375,0.25));
#1494=CARTESIAN_POINT('',(-0.375,-1.3375,0.25));
#1495=CARTESIAN_POINT('',(-0.375,-1.3375,0.));
#1496=CARTESIAN_POINT('Origin',(-0.375,-0.7225,0.));
#1497=CARTESIAN_POINT('',(-0.375,-0.7225,0.));
#1498=CARTESIAN_POINT('',(-0.375,-0.7225,0.25));
#1499=CARTESIAN_POINT('Origin',(0.,-1.03,0.25));
#1500=CARTESIAN_POINT('Origin',(0.,-1.03,0.));
#1501=CARTESIAN_POINT('Origin',(0.8,-0.6,0.));
#1502=CARTESIAN_POINT('',(0.8,0.6,0.));
#1503=CARTESIAN_POINT('',(0.8,-0.6,0.));
#1504=CARTESIAN_POINT('',(0.8,0.6,0.));
#1505=CARTESIAN_POINT('',(0.8,0.6,0.25));
#1506=CARTESIAN_POINT('',(0.8,0.6,0.));
#1507=CARTESIAN_POINT('',(0.8,-0.6,0.25));
#1508=CARTESIAN_POINT('',(0.8,0.6,0.25));
#1509=CARTESIAN_POINT('',(0.8,-0.6,0.));
#1510=CARTESIAN_POINT('Origin',(-0.8,-0.6,0.));
#1511=CARTESIAN_POINT('',(-0.8,-0.6,0.));
#1512=CARTESIAN_POINT('',(0.8,-0.6,0.));
#1513=CARTESIAN_POINT('',(-0.8,-0.6,0.25));
#1514=CARTESIAN_POINT('',(0.8,-0.6,0.25));
#1515=CARTESIAN_POINT('',(-0.8,-0.6,0.));
#1516=CARTESIAN_POINT('Origin',(-0.8,0.6,0.));
#1517=CARTESIAN_POINT('',(-0.8,0.6,0.));
#1518=CARTESIAN_POINT('',(-0.8,-0.6,0.));
#1519=CARTESIAN_POINT('',(-0.8,0.6,0.25));
#1520=CARTESIAN_POINT('',(-0.8,-0.6,0.25));
#1521=CARTESIAN_POINT('',(-0.8,0.6,0.));
#1522=CARTESIAN_POINT('Origin',(0.8,0.6,0.));
#1523=CARTESIAN_POINT('',(-0.8,0.6,0.));
#1524=CARTESIAN_POINT('',(-0.8,0.6,0.25));
#1525=CARTESIAN_POINT('Origin',(0.,0.,0.25));
#1526=CARTESIAN_POINT('Origin',(0.,0.,0.));
#1527=CARTESIAN_POINT('Origin',(1.125,-0.6625,0.));
#1528=CARTESIAN_POINT('',(1.075,-0.6625,0.1));
#1529=CARTESIAN_POINT('Origin',(1.125,-0.6625,0.1));
#1530=CARTESIAN_POINT('',(1.075,-0.6625,0.));
#1531=CARTESIAN_POINT('',(1.075,-0.6625,0.));
#1532=CARTESIAN_POINT('Origin',(1.125,-0.6625,0.));
#1533=CARTESIAN_POINT('Origin',(1.125,-0.6625,0.));
#1534=CARTESIAN_POINT('',(1.025,-0.6625,0.1));
#1535=CARTESIAN_POINT('Origin',(1.125,-0.6625,0.1));
#1536=CARTESIAN_POINT('',(1.025,-0.6625,0.));
#1537=CARTESIAN_POINT('',(1.025,-0.6625,0.));
#1538=CARTESIAN_POINT('Origin',(1.125,-0.6625,0.));
#1539=CARTESIAN_POINT('Origin',(1.125,-0.6625,0.1));
#1540=CARTESIAN_POINT('Origin',(1.125,-0.6625,0.));
#1541=CARTESIAN_POINT('Origin',(0.,1.2125,-0.8));
#1542=CARTESIAN_POINT('',(-0.05,1.2125,-0.8));
#1543=CARTESIAN_POINT('Origin',(0.,1.2125,-0.8));
#1544=CARTESIAN_POINT('Origin',(0.,1.2125,0.));
#1545=CARTESIAN_POINT('',(-0.05,1.2125,0.1));
#1546=CARTESIAN_POINT('Origin',(0.,1.2125,0.1));
#1547=CARTESIAN_POINT('',(-0.05,1.2125,0.));
#1548=CARTESIAN_POINT('Origin',(0.,1.2125,0.1));
#1549=CARTESIAN_POINT('Origin',(0.23,1.2125,-0.8));
#1550=CARTESIAN_POINT('',(0.18,1.2125,-0.8));
#1551=CARTESIAN_POINT('Origin',(0.23,1.2125,-0.8));
#1552=CARTESIAN_POINT('Origin',(0.23,1.2125,0.));
#1553=CARTESIAN_POINT('',(0.18,1.2125,0.1));
#1554=CARTESIAN_POINT('Origin',(0.23,1.2125,0.1));
#1555=CARTESIAN_POINT('',(0.18,1.2125,0.));
#1556=CARTESIAN_POINT('Origin',(0.23,1.2125,0.1));
#1557=CARTESIAN_POINT('Origin',(-0.23,1.2125,-0.8));
#1558=CARTESIAN_POINT('',(-0.28,1.2125,-0.8));
#1559=CARTESIAN_POINT('Origin',(-0.23,1.2125,-0.8));
#1560=CARTESIAN_POINT('Origin',(-0.23,1.2125,0.));
#1561=CARTESIAN_POINT('',(-0.28,1.2125,0.1));
#1562=CARTESIAN_POINT('Origin',(-0.23,1.2125,0.1));
#1563=CARTESIAN_POINT('',(-0.28,1.2125,0.));
#1564=CARTESIAN_POINT('Origin',(-0.23,1.2125,0.1));
#1565=CARTESIAN_POINT('Origin',(0.46,1.2125,-0.8));
#1566=CARTESIAN_POINT('',(0.41,1.2125,-0.8));
#1567=CARTESIAN_POINT('Origin',(0.46,1.2125,-0.8));
#1568=CARTESIAN_POINT('Origin',(0.46,1.2125,0.));
#1569=CARTESIAN_POINT('',(0.41,1.2125,0.1));
#1570=CARTESIAN_POINT('Origin',(0.46,1.2125,0.1));
#1571=CARTESIAN_POINT('',(0.41,1.2125,0.));
#1572=CARTESIAN_POINT('Origin',(0.46,1.2125,0.1));
#1573=CARTESIAN_POINT('Origin',(-0.46,1.2125,-0.8));
#1574=CARTESIAN_POINT('',(-0.51,1.2125,-0.8));
#1575=CARTESIAN_POINT('Origin',(-0.46,1.2125,-0.8));
#1576=CARTESIAN_POINT('Origin',(-0.46,1.2125,0.));
#1577=CARTESIAN_POINT('',(-0.51,1.2125,0.1));
#1578=CARTESIAN_POINT('Origin',(-0.46,1.2125,0.1));
#1579=CARTESIAN_POINT('',(-0.51,1.2125,0.));
#1580=CARTESIAN_POINT('Origin',(-0.46,1.2125,0.1));
#1581=CARTESIAN_POINT('Origin',(0.,1.2125,-0.125));
#1582=CARTESIAN_POINT('',(-0.05,1.2125,-0.375));
#1583=CARTESIAN_POINT('Origin',(0.,1.2125,-0.375));
#1584=CARTESIAN_POINT('',(-0.05,1.2125,-0.125));
#1585=CARTESIAN_POINT('',(-0.05,1.2125,-0.125));
#1586=CARTESIAN_POINT('Origin',(0.,1.2125,-0.125));
#1587=CARTESIAN_POINT('Origin',(0.46,1.2125,-0.125));
#1588=CARTESIAN_POINT('',(0.41,1.2125,-0.375));
#1589=CARTESIAN_POINT('Origin',(0.46,1.2125,-0.375));
#1590=CARTESIAN_POINT('',(0.41,1.2125,-0.125));
#1591=CARTESIAN_POINT('',(0.41,1.2125,-0.125));
#1592=CARTESIAN_POINT('Origin',(0.46,1.2125,-0.125));
#1593=CARTESIAN_POINT('Origin',(0.23,1.2125,-0.125));
#1594=CARTESIAN_POINT('',(0.18,1.2125,-0.375));
#1595=CARTESIAN_POINT('Origin',(0.23,1.2125,-0.375));
#1596=CARTESIAN_POINT('',(0.18,1.2125,-0.125));
#1597=CARTESIAN_POINT('',(0.18,1.2125,-0.125));
#1598=CARTESIAN_POINT('Origin',(0.23,1.2125,-0.125));
#1599=CARTESIAN_POINT('Origin',(-0.46,1.2125,-0.125));
#1600=CARTESIAN_POINT('',(-0.51,1.2125,-0.375));
#1601=CARTESIAN_POINT('Origin',(-0.46,1.2125,-0.375));
#1602=CARTESIAN_POINT('',(-0.51,1.2125,-0.125));
#1603=CARTESIAN_POINT('',(-0.51,1.2125,-0.125));
#1604=CARTESIAN_POINT('Origin',(-0.46,1.2125,-0.125));
#1605=CARTESIAN_POINT('Origin',(-0.23,1.2125,-0.125));
#1606=CARTESIAN_POINT('',(-0.28,1.2125,-0.375));
#1607=CARTESIAN_POINT('Origin',(-0.23,1.2125,-0.375));
#1608=CARTESIAN_POINT('',(-0.28,1.2125,-0.125));
#1609=CARTESIAN_POINT('',(-0.28,1.2125,-0.125));
#1610=CARTESIAN_POINT('Origin',(-0.23,1.2125,-0.125));
#1611=CARTESIAN_POINT('Origin',(0.66,1.3375,-0.125));
#1612=CARTESIAN_POINT('',(0.66,1.3375,-0.125));
#1613=CARTESIAN_POINT('',(0.66,1.0875,-0.125));
#1614=CARTESIAN_POINT('',(0.66,1.3375,-0.125));
#1615=CARTESIAN_POINT('',(0.66,1.0875,-0.375));
#1616=CARTESIAN_POINT('',(0.66,1.0875,-0.125));
#1617=CARTESIAN_POINT('',(0.66,1.3375,-0.375));
#1618=CARTESIAN_POINT('',(0.66,1.3375,-0.375));
#1619=CARTESIAN_POINT('',(0.66,1.3375,-0.125));
#1620=CARTESIAN_POINT('Origin',(-0.66,1.3375,-0.125));
#1621=CARTESIAN_POINT('',(-0.66,1.3375,-0.125));
#1622=CARTESIAN_POINT('',(-0.66,1.3375,-0.125));
#1623=CARTESIAN_POINT('',(-0.66,1.3375,-0.375));
#1624=CARTESIAN_POINT('',(-0.66,1.3375,-0.375));
#1625=CARTESIAN_POINT('',(-0.66,1.3375,-0.125));
#1626=CARTESIAN_POINT('Origin',(-0.66,1.0875,-0.125));
#1627=CARTESIAN_POINT('',(-0.66,1.0875,-0.125));
#1628=CARTESIAN_POINT('',(-0.66,1.0875,-0.125));
#1629=CARTESIAN_POINT('',(-0.66,1.0875,-0.375));
#1630=CARTESIAN_POINT('',(-0.66,1.0875,-0.375));
#1631=CARTESIAN_POINT('',(-0.66,1.0875,-0.125));
#1632=CARTESIAN_POINT('Origin',(0.66,1.0875,-0.125));
#1633=CARTESIAN_POINT('',(0.66,1.0875,-0.125));
#1634=CARTESIAN_POINT('',(0.66,1.0875,-0.375));
#1635=CARTESIAN_POINT('Origin',(0.,1.2125,-0.125));
#1636=CARTESIAN_POINT('Origin',(0.,1.2125,-0.375));
#1637=UNCERTAINTY_MEASURE_WITH_UNIT(LENGTH_MEASURE(0.001),#1641,
'DISTANCE_ACCURACY_VALUE',
'Maximum model space distance between geometric entities at asserted c
onnectivities');
#1638=UNCERTAINTY_MEASURE_WITH_UNIT(LENGTH_MEASURE(0.001),#1641,
'DISTANCE_ACCURACY_VALUE',
'Maximum model space distance between geometric entities at asserted c
onnectivities');
#1639=(
GEOMETRIC_REPRESENTATION_CONTEXT(3)
GLOBAL_UNCERTAINTY_ASSIGNED_CONTEXT((#1637))
GLOBAL_UNIT_ASSIGNED_CONTEXT((#1641,#1643,#1644))
REPRESENTATION_CONTEXT('','3D')
);
#1640=(
GEOMETRIC_REPRESENTATION_CONTEXT(3)
GLOBAL_UNCERTAINTY_ASSIGNED_CONTEXT((#1638))
GLOBAL_UNIT_ASSIGNED_CONTEXT((#1641,#1643,#1644))
REPRESENTATION_CONTEXT('','3D')
);
#1641=(
LENGTH_UNIT()
NAMED_UNIT(*)
SI_UNIT(.CENTI.,.METRE.)
);
#1642=(
LENGTH_UNIT()
NAMED_UNIT(*)
SI_UNIT($,.METRE.)
);
#1643=(
NAMED_UNIT(*)
PLANE_ANGLE_UNIT()
SI_UNIT($,.RADIAN.)
);
#1644=(
NAMED_UNIT(*)
SI_UNIT($,.STERADIAN.)
SOLID_ANGLE_UNIT()
);
#1645=SHAPE_DEFINITION_REPRESENTATION(#1646,#1647);
#1646=PRODUCT_DEFINITION_SHAPE('',$,#1649);
#1647=SHAPE_REPRESENTATION('',(#989),#1639);
#1648=PRODUCT_DEFINITION_CONTEXT('part definition',#1653,'design');
#1649=PRODUCT_DEFINITION('GT-U7GpsModule','GT-U7GpsModule v1',#1650,#1648);
#1650=PRODUCT_DEFINITION_FORMATION('',$,#1655);
#1651=PRODUCT_RELATED_PRODUCT_CATEGORY('GT-U7GpsModule v1',
'GT-U7GpsModule v1',(#1655));
#1652=APPLICATION_PROTOCOL_DEFINITION('international standard',
'automotive_design',2009,#1653);
#1653=APPLICATION_CONTEXT(
'Core Data for Automotive Mechanical Design Process');
#1654=PRODUCT_CONTEXT('part definition',#1653,'mechanical');
#1655=PRODUCT('GT-U7GpsModule','GT-U7GpsModule v1',$,(#1654));
#1656=PRESENTATION_STYLE_ASSIGNMENT((#1663));
#1657=PRESENTATION_STYLE_ASSIGNMENT((#1664));
#1658=PRESENTATION_STYLE_ASSIGNMENT((#1665));
#1659=PRESENTATION_STYLE_ASSIGNMENT((#1666));
#1660=PRESENTATION_STYLE_ASSIGNMENT((#1667));
#1661=PRESENTATION_STYLE_ASSIGNMENT((#1668));
#1662=PRESENTATION_STYLE_ASSIGNMENT((#1669));
#1663=SURFACE_STYLE_USAGE(.BOTH.,#1670);
#1664=SURFACE_STYLE_USAGE(.BOTH.,#1671);
#1665=SURFACE_STYLE_USAGE(.BOTH.,#1672);
#1666=SURFACE_STYLE_USAGE(.BOTH.,#1673);
#1667=SURFACE_STYLE_USAGE(.BOTH.,#1674);
#1668=SURFACE_STYLE_USAGE(.BOTH.,#1675);
#1669=SURFACE_STYLE_USAGE(.BOTH.,#1676);
#1670=SURFACE_SIDE_STYLE('',(#1677));
#1671=SURFACE_SIDE_STYLE('',(#1678));
#1672=SURFACE_SIDE_STYLE('',(#1679));
#1673=SURFACE_SIDE_STYLE('',(#1680));
#1674=SURFACE_SIDE_STYLE('',(#1681));
#1675=SURFACE_SIDE_STYLE('',(#1682));
#1676=SURFACE_SIDE_STYLE('',(#1683));
#1677=SURFACE_STYLE_FILL_AREA(#1684);
#1678=SURFACE_STYLE_FILL_AREA(#1685);
#1679=SURFACE_STYLE_FILL_AREA(#1686);
#1680=SURFACE_STYLE_FILL_AREA(#1687);
#1681=SURFACE_STYLE_FILL_AREA(#1688);
#1682=SURFACE_STYLE_FILL_AREA(#1689);
#1683=SURFACE_STYLE_FILL_AREA(#1690);
#1684=FILL_AREA_STYLE('Steel - Satin',(#1691));
#1685=FILL_AREA_STYLE('Paint - Enamel Glossy (Black)',(#1692));
#1686=FILL_AREA_STYLE('Silver - Satin',(#1693));
#1687=FILL_AREA_STYLE('Silver - Polished',(#1694));
#1688=FILL_AREA_STYLE('Gold - Polished',(#1695));
#1689=FILL_AREA_STYLE('Paint - Enamel Glossy (Grey)',(#1696));
#1690=FILL_AREA_STYLE('Paint - Enamel Glossy (Yellow)',(#1697));
#1691=FILL_AREA_STYLE_COLOUR('Steel - Satin',#1698);
#1692=FILL_AREA_STYLE_COLOUR('Paint - Enamel Glossy (Black)',#1699);
#1693=FILL_AREA_STYLE_COLOUR('Silver - Satin',#1700);
#1694=FILL_AREA_STYLE_COLOUR('Silver - Polished',#1701);
#1695=FILL_AREA_STYLE_COLOUR('Gold - Polished',#1702);
#1696=FILL_AREA_STYLE_COLOUR('Paint - Enamel Glossy (Grey)',#1703);
#1697=FILL_AREA_STYLE_COLOUR('Paint - Enamel Glossy (Yellow)',#1704);
#1698=COLOUR_RGB('Steel - Satin',0.627450980392157,0.627450980392157,0.627450980392157);
#1699=COLOUR_RGB('Paint - Enamel Glossy (Black)',0.0980392156862745,0.0980392156862745,
0.0980392156862745);
#1700=COLOUR_RGB('Silver - Satin',0.984313725490196,0.980392156862745,0.96078431372549);
#1701=COLOUR_RGB('Silver - Polished',0.984313725490196,0.980392156862745,
0.96078431372549);
#1702=COLOUR_RGB('Gold - Polished',0.956862745098039,0.898039215686275,
0.654901960784314);
#1703=COLOUR_RGB('Paint - Enamel Glossy (Grey)',0.701960784313725,0.701960784313725,
0.701960784313725);
#1704=COLOUR_RGB('Paint - Enamel Glossy (Yellow)',0.909803921568627,0.67843137254902,
0.137254901960784);
ENDSEC;
END-ISO-10303-21;
