ISO-10303-21;
HEADER;
/* Generated by software containing ST-Developer
 * from STEP Tools, Inc. (www.steptools.com) 
 */

FILE_DESCRIPTION(
/* description */ (''),
/* implementation_level */ '2;1');

FILE_NAME(
/* name */ 'Stunning Duup-Juttuli.f3d v1.step',
/* time_stamp */ '2023-08-12T04:17:20-04:00',
/* author */ (''),
/* organization */ (''),
/* preprocessor_version */ 'ST-DEVELOPER v20',
/* originating_system */ 'Autodesk Translation Framework v12.9.0.99',
/* authorisation */ '');

FILE_SCHEMA (('AUTOMOTIVE_DESIGN { 1 0 10303 214 3 1 1 }'));
ENDSEC;

DATA;
#10=MECHANICAL_DESIGN_GEOMETRIC_PRESENTATION_REPRESENTATION('',(#13,#14),
#237);
#11=SHAPE_REPRESENTATION_RELATIONSHIP('SRR','None',#244,#12);
#12=ADVANCED_BREP_SHAPE_REPRESENTATION('',(#15,#16),#236);
#13=STYLED_ITEM('',(#254),#15);
#14=STYLED_ITEM('',(#255),#16);
#15=MANIFOLD_SOLID_BREP('Body1',#136);
#16=MANIFOLD_SOLID_BREP('Body2',#137);
#17=PLANE('',#154);
#18=PLANE('',#155);
#19=PLANE('',#156);
#20=PLANE('',#157);
#21=PLANE('',#158);
#22=PLANE('',#159);
#23=PLANE('',#160);
#24=PLANE('',#161);
#25=FACE_OUTER_BOUND('',#34,.T.);
#26=FACE_OUTER_BOUND('',#35,.T.);
#27=FACE_OUTER_BOUND('',#36,.T.);
#28=FACE_OUTER_BOUND('',#37,.T.);
#29=FACE_OUTER_BOUND('',#38,.T.);
#30=FACE_OUTER_BOUND('',#39,.T.);
#31=FACE_OUTER_BOUND('',#40,.T.);
#32=FACE_OUTER_BOUND('',#41,.T.);
#33=FACE_OUTER_BOUND('',#42,.T.);
#34=EDGE_LOOP('',(#96,#97,#98,#99));
#35=EDGE_LOOP('',(#100));
#36=EDGE_LOOP('',(#101));
#37=EDGE_LOOP('',(#102,#103,#104,#105));
#38=EDGE_LOOP('',(#106,#107,#108,#109));
#39=EDGE_LOOP('',(#110,#111,#112,#113));
#40=EDGE_LOOP('',(#114,#115,#116,#117));
#41=EDGE_LOOP('',(#118,#119,#120,#121));
#42=EDGE_LOOP('',(#122,#123,#124,#125));
#43=LINE('',#204,#56);
#44=LINE('',#211,#57);
#45=LINE('',#213,#58);
#46=LINE('',#215,#59);
#47=LINE('',#216,#60);
#48=LINE('',#220,#61);
#49=LINE('',#222,#62);
#50=LINE('',#224,#63);
#51=LINE('',#225,#64);
#52=LINE('',#227,#65);
#53=LINE('',#228,#66);
#54=LINE('',#230,#67);
#55=LINE('',#232,#68);
#56=VECTOR('',#168,0.100000000000007);
#57=VECTOR('',#177,1.);
#58=VECTOR('',#178,1.);
#59=VECTOR('',#179,1.);
#60=VECTOR('',#180,1.);
#61=VECTOR('',#183,1.);
#62=VECTOR('',#184,1.);
#63=VECTOR('',#185,1.);
#64=VECTOR('',#186,1.);
#65=VECTOR('',#189,1.);
#66=VECTOR('',#190,1.);
#67=VECTOR('',#193,1.);
#68=VECTOR('',#196,1.);
#69=CIRCLE('',#152,0.100000000000007);
#70=CIRCLE('',#153,0.100000000000007);
#71=VERTEX_POINT('',#201);
#72=VERTEX_POINT('',#203);
#73=VERTEX_POINT('',#209);
#74=VERTEX_POINT('',#210);
#75=VERTEX_POINT('',#212);
#76=VERTEX_POINT('',#214);
#77=VERTEX_POINT('',#218);
#78=VERTEX_POINT('',#219);
#79=VERTEX_POINT('',#221);
#80=VERTEX_POINT('',#223);
#81=EDGE_CURVE('',#71,#71,#69,.T.);
#82=EDGE_CURVE('',#71,#72,#43,.T.);
#83=EDGE_CURVE('',#72,#72,#70,.T.);
#84=EDGE_CURVE('',#73,#74,#44,.T.);
#85=EDGE_CURVE('',#74,#75,#45,.T.);
#86=EDGE_CURVE('',#75,#76,#46,.T.);
#87=EDGE_CURVE('',#76,#73,#47,.T.);
#88=EDGE_CURVE('',#77,#78,#48,.T.);
#89=EDGE_CURVE('',#78,#79,#49,.T.);
#90=EDGE_CURVE('',#79,#80,#50,.T.);
#91=EDGE_CURVE('',#80,#77,#51,.T.);
#92=EDGE_CURVE('',#76,#79,#52,.T.);
#93=EDGE_CURVE('',#73,#78,#53,.T.);
#94=EDGE_CURVE('',#75,#80,#54,.T.);
#95=EDGE_CURVE('',#74,#77,#55,.T.);
#96=ORIENTED_EDGE('',*,*,#81,.F.);
#97=ORIENTED_EDGE('',*,*,#82,.T.);
#98=ORIENTED_EDGE('',*,*,#83,.T.);
#99=ORIENTED_EDGE('',*,*,#82,.F.);
#100=ORIENTED_EDGE('',*,*,#81,.T.);
#101=ORIENTED_EDGE('',*,*,#83,.F.);
#102=ORIENTED_EDGE('',*,*,#84,.T.);
#103=ORIENTED_EDGE('',*,*,#85,.T.);
#104=ORIENTED_EDGE('',*,*,#86,.T.);
#105=ORIENTED_EDGE('',*,*,#87,.T.);
#106=ORIENTED_EDGE('',*,*,#88,.T.);
#107=ORIENTED_EDGE('',*,*,#89,.T.);
#108=ORIENTED_EDGE('',*,*,#90,.T.);
#109=ORIENTED_EDGE('',*,*,#91,.T.);
#110=ORIENTED_EDGE('',*,*,#92,.T.);
#111=ORIENTED_EDGE('',*,*,#89,.F.);
#112=ORIENTED_EDGE('',*,*,#93,.F.);
#113=ORIENTED_EDGE('',*,*,#87,.F.);
#114=ORIENTED_EDGE('',*,*,#94,.T.);
#115=ORIENTED_EDGE('',*,*,#90,.F.);
#116=ORIENTED_EDGE('',*,*,#92,.F.);
#117=ORIENTED_EDGE('',*,*,#86,.F.);
#118=ORIENTED_EDGE('',*,*,#95,.T.);
#119=ORIENTED_EDGE('',*,*,#91,.F.);
#120=ORIENTED_EDGE('',*,*,#94,.F.);
#121=ORIENTED_EDGE('',*,*,#85,.F.);
#122=ORIENTED_EDGE('',*,*,#93,.T.);
#123=ORIENTED_EDGE('',*,*,#88,.F.);
#124=ORIENTED_EDGE('',*,*,#95,.F.);
#125=ORIENTED_EDGE('',*,*,#84,.F.);
#126=CYLINDRICAL_SURFACE('',#151,0.100000000000007);
#127=ADVANCED_FACE('',(#25),#126,.T.);
#128=ADVANCED_FACE('',(#26),#17,.T.);
#129=ADVANCED_FACE('',(#27),#18,.F.);
#130=ADVANCED_FACE('',(#28),#19,.T.);
#131=ADVANCED_FACE('',(#29),#20,.F.);
#132=ADVANCED_FACE('',(#30),#21,.F.);
#133=ADVANCED_FACE('',(#31),#22,.F.);
#134=ADVANCED_FACE('',(#32),#23,.F.);
#135=ADVANCED_FACE('',(#33),#24,.F.);
#136=CLOSED_SHELL('',(#127,#128,#129));
#137=CLOSED_SHELL('',(#130,#131,#132,#133,#134,#135));
#138=DERIVED_UNIT_ELEMENT(#140,1.);
#139=DERIVED_UNIT_ELEMENT(#239,-3.);
#140=(
MASS_UNIT()
NAMED_UNIT(*)
SI_UNIT(.KILO.,.GRAM.)
);
#141=DERIVED_UNIT((#138,#139));
#142=MEASURE_REPRESENTATION_ITEM('density measure',
POSITIVE_RATIO_MEASURE(7850.),#141);
#143=PROPERTY_DEFINITION_REPRESENTATION(#148,#145);
#144=PROPERTY_DEFINITION_REPRESENTATION(#149,#146);
#145=REPRESENTATION('material name',(#147),#236);
#146=REPRESENTATION('density',(#142),#236);
#147=DESCRIPTIVE_REPRESENTATION_ITEM('Steel','Steel');
#148=PROPERTY_DEFINITION('material property','material name',#246);
#149=PROPERTY_DEFINITION('material property','density of part',#246);
#150=AXIS2_PLACEMENT_3D('',#199,#162,#163);
#151=AXIS2_PLACEMENT_3D('',#200,#164,#165);
#152=AXIS2_PLACEMENT_3D('',#202,#166,#167);
#153=AXIS2_PLACEMENT_3D('',#205,#169,#170);
#154=AXIS2_PLACEMENT_3D('',#206,#171,#172);
#155=AXIS2_PLACEMENT_3D('',#207,#173,#174);
#156=AXIS2_PLACEMENT_3D('',#208,#175,#176);
#157=AXIS2_PLACEMENT_3D('',#217,#181,#182);
#158=AXIS2_PLACEMENT_3D('',#226,#187,#188);
#159=AXIS2_PLACEMENT_3D('',#229,#191,#192);
#160=AXIS2_PLACEMENT_3D('',#231,#194,#195);
#161=AXIS2_PLACEMENT_3D('',#233,#197,#198);
#162=DIRECTION('axis',(0.,0.,1.));
#163=DIRECTION('refdir',(1.,0.,0.));
#164=DIRECTION('center_axis',(0.,1.41638472441195E-16,1.));
#165=DIRECTION('ref_axis',(1.,0.,0.));
#166=DIRECTION('center_axis',(0.,-9.95799250102806E-17,1.));
#167=DIRECTION('ref_axis',(1.,0.,0.));
#168=DIRECTION('',(0.,-1.41638472441195E-16,-1.));
#169=DIRECTION('center_axis',(0.,-9.95799250102806E-17,1.));
#170=DIRECTION('ref_axis',(1.,0.,0.));
#171=DIRECTION('center_axis',(0.,-9.95799250102806E-17,1.));
#172=DIRECTION('ref_axis',(1.,0.,0.));
#173=DIRECTION('center_axis',(0.,-9.95799250102806E-17,1.));
#174=DIRECTION('ref_axis',(1.,0.,0.));
#175=DIRECTION('center_axis',(0.,-1.,2.83276944882399E-16));
#176=DIRECTION('ref_axis',(1.,0.,0.));
#177=DIRECTION('',(0.,2.83276944882399E-16,1.));
#178=DIRECTION('',(-1.,0.,0.));
#179=DIRECTION('',(0.,-2.83276944882399E-16,-1.));
#180=DIRECTION('',(1.,0.,0.));
#181=DIRECTION('center_axis',(0.,-1.,2.83276944882399E-16));
#182=DIRECTION('ref_axis',(1.,0.,0.));
#183=DIRECTION('',(0.,-2.83276944882399E-16,-1.));
#184=DIRECTION('',(-1.,0.,0.));
#185=DIRECTION('',(0.,2.83276944882399E-16,1.));
#186=DIRECTION('',(1.,0.,0.));
#187=DIRECTION('center_axis',(0.,2.83276944882399E-16,1.));
#188=DIRECTION('ref_axis',(0.,-1.,2.83276944882399E-16));
#189=DIRECTION('',(0.,1.,-2.83276944882399E-16));
#190=DIRECTION('',(0.,1.,-2.83276944882399E-16));
#191=DIRECTION('center_axis',(1.,0.,0.));
#192=DIRECTION('ref_axis',(0.,1.,-2.83276944882399E-16));
#193=DIRECTION('',(0.,1.,-2.83276944882399E-16));
#194=DIRECTION('center_axis',(0.,-2.83276944882399E-16,-1.));
#195=DIRECTION('ref_axis',(0.,1.,-2.83276944882399E-16));
#196=DIRECTION('',(0.,1.,-2.83276944882399E-16));
#197=DIRECTION('center_axis',(-1.,0.,0.));
#198=DIRECTION('ref_axis',(0.,-1.,2.83276944882399E-16));
#199=CARTESIAN_POINT('',(0.,0.,0.));
#200=CARTESIAN_POINT('Origin',(5.09999999999999,9.05747666689301,0.0999999999999984));
#201=CARTESIAN_POINT('',(4.99999999999999,9.05747666689301,0.499999999999998));
#202=CARTESIAN_POINT('Origin',(5.09999999999999,9.05747666689301,0.499999999999998));
#203=CARTESIAN_POINT('',(4.99999999999999,9.05747666689301,0.0999999999999984));
#204=CARTESIAN_POINT('',(4.99999999999999,9.05747666689301,0.0999999999999984));
#205=CARTESIAN_POINT('Origin',(5.09999999999999,9.05747666689301,0.0999999999999984));
#206=CARTESIAN_POINT('Origin',(5.09999999999999,9.05747666689301,0.499999999999998));
#207=CARTESIAN_POINT('Origin',(5.09999999999999,9.05747666689301,0.0999999999999984));
#208=CARTESIAN_POINT('Origin',(5.5,7.6,0.249999999999998));
#209=CARTESIAN_POINT('',(6.1,7.6,-1.63855312546434E-15));
#210=CARTESIAN_POINT('',(6.1,7.6,0.499999999999998));
#211=CARTESIAN_POINT('',(6.1,7.6,0.249999999999998));
#212=CARTESIAN_POINT('',(4.9,7.6,0.499999999999998));
#213=CARTESIAN_POINT('',(5.5,7.6,0.499999999999998));
#214=CARTESIAN_POINT('',(4.9,7.6,-1.63855312546434E-15));
#215=CARTESIAN_POINT('',(4.9,7.6,0.249999999999998));
#216=CARTESIAN_POINT('',(5.5,7.6,-1.63855312546434E-15));
#217=CARTESIAN_POINT('Origin',(5.5,9.2,0.249999999999998));
#218=CARTESIAN_POINT('',(6.1,9.2,0.499999999999998));
#219=CARTESIAN_POINT('',(6.1,9.2,-2.09179623727618E-15));
#220=CARTESIAN_POINT('',(6.1,9.2,0.249999999999998));
#221=CARTESIAN_POINT('',(4.9,9.2,-2.09179623727618E-15));
#222=CARTESIAN_POINT('',(5.5,9.2,-2.09179623727618E-15));
#223=CARTESIAN_POINT('',(4.9,9.2,0.499999999999998));
#224=CARTESIAN_POINT('',(4.9,9.2,0.249999999999998));
#225=CARTESIAN_POINT('',(5.5,9.2,0.499999999999998));
#226=CARTESIAN_POINT('Origin',(5.5,8.4,-1.86517468137026E-15));
#227=CARTESIAN_POINT('',(4.9,8.4,-1.86517468137026E-15));
#228=CARTESIAN_POINT('',(6.1,8.4,-1.86517468137026E-15));
#229=CARTESIAN_POINT('Origin',(4.9,8.4,0.249999999999998));
#230=CARTESIAN_POINT('',(4.9,8.4,0.499999999999998));
#231=CARTESIAN_POINT('Origin',(5.5,8.4,0.499999999999998));
#232=CARTESIAN_POINT('',(6.1,8.4,0.499999999999998));
#233=CARTESIAN_POINT('Origin',(6.1,8.4,0.249999999999998));
#234=UNCERTAINTY_MEASURE_WITH_UNIT(LENGTH_MEASURE(0.01),#238,
'DISTANCE_ACCURACY_VALUE',
'Maximum model space distance between geometric entities at asserted c
onnectivities');
#235=UNCERTAINTY_MEASURE_WITH_UNIT(LENGTH_MEASURE(0.01),#238,
'DISTANCE_ACCURACY_VALUE',
'Maximum model space distance between geometric entities at asserted c
onnectivities');
#236=(
GEOMETRIC_REPRESENTATION_CONTEXT(3)
GLOBAL_UNCERTAINTY_ASSIGNED_CONTEXT((#234))
GLOBAL_UNIT_ASSIGNED_CONTEXT((#238,#240,#241))
REPRESENTATION_CONTEXT('','3D')
);
#237=(
GEOMETRIC_REPRESENTATION_CONTEXT(3)
GLOBAL_UNCERTAINTY_ASSIGNED_CONTEXT((#235))
GLOBAL_UNIT_ASSIGNED_CONTEXT((#238,#240,#241))
REPRESENTATION_CONTEXT('','3D')
);
#238=(
LENGTH_UNIT()
NAMED_UNIT(*)
SI_UNIT(.MILLI.,.METRE.)
);
#239=(
LENGTH_UNIT()
NAMED_UNIT(*)
SI_UNIT($,.METRE.)
);
#240=(
NAMED_UNIT(*)
PLANE_ANGLE_UNIT()
SI_UNIT($,.RADIAN.)
);
#241=(
NAMED_UNIT(*)
SI_UNIT($,.STERADIAN.)
SOLID_ANGLE_UNIT()
);
#242=SHAPE_DEFINITION_REPRESENTATION(#243,#244);
#243=PRODUCT_DEFINITION_SHAPE('',$,#246);
#244=SHAPE_REPRESENTATION('',(#150),#236);
#245=PRODUCT_DEFINITION_CONTEXT('part definition',#250,'design');
#246=PRODUCT_DEFINITION('Stunning Duup-Juttuli.f3d',
'Stunning Duup-Juttuli.f3d v1',#247,#245);
#247=PRODUCT_DEFINITION_FORMATION('',$,#252);
#248=PRODUCT_RELATED_PRODUCT_CATEGORY('Stunning Duup-Juttuli.f3d v1',
'Stunning Duup-Juttuli.f3d v1',(#252));
#249=APPLICATION_PROTOCOL_DEFINITION('international standard',
'automotive_design',2009,#250);
#250=APPLICATION_CONTEXT(
'Core Data for Automotive Mechanical Design Process');
#251=PRODUCT_CONTEXT('part definition',#250,'mechanical');
#252=PRODUCT('Stunning Duup-Juttuli.f3d','Stunning Duup-Juttuli.f3d v1',
$,(#251));
#253=PRESENTATION_STYLE_ASSIGNMENT((#256));
#254=PRESENTATION_STYLE_ASSIGNMENT((#257));
#255=PRESENTATION_STYLE_ASSIGNMENT((#258));
#256=SURFACE_STYLE_USAGE(.BOTH.,#259);
#257=SURFACE_STYLE_USAGE(.BOTH.,#260);
#258=SURFACE_STYLE_USAGE(.BOTH.,#261);
#259=SURFACE_SIDE_STYLE('',(#262));
#260=SURFACE_SIDE_STYLE('',(#263));
#261=SURFACE_SIDE_STYLE('',(#264));
#262=SURFACE_STYLE_FILL_AREA(#265);
#263=SURFACE_STYLE_FILL_AREA(#266);
#264=SURFACE_STYLE_FILL_AREA(#267);
#265=FILL_AREA_STYLE('Steel - Satin',(#268));
#266=FILL_AREA_STYLE('Opaque(250,250,250)',(#269));
#267=FILL_AREA_STYLE('Opaque(97,103,106)',(#270));
#268=FILL_AREA_STYLE_COLOUR('Steel - Satin',#271);
#269=FILL_AREA_STYLE_COLOUR('Opaque(250,250,250)',#272);
#270=FILL_AREA_STYLE_COLOUR('Opaque(97,103,106)',#273);
#271=COLOUR_RGB('Steel - Satin',0.627450980392157,0.627450980392157,0.627450980392157);
#272=COLOUR_RGB('Opaque(250,250,250)',0.980392156862745,0.980392156862745,
0.980392156862745);
#273=COLOUR_RGB('Opaque(97,103,106)',0.380392156862745,0.403921568627451,
0.415686274509804);
ENDSEC;
END-ISO-10303-21;
